# Exported from Blender
v 2.438631 -25.000000 37.259819
v 0.000003 -25.000000 37.500000
v 0.000002 -25.000000 35.737000
v 2.094686 -25.000000 35.530693
v 4.783545 -25.000000 36.548496
v 5.085412 -25.000000 34.514103
v 6.944628 -25.000000 35.393372
v 8.838837 -25.000000 33.838837
v 8.339198 -25.000000 31.843781
v 10.393372 -25.000000 31.944630
v 11.548494 -25.000000 29.783546
v 10.323410 -25.000000 28.131569
v 12.259816 -25.000000 27.438631
v 12.500000 -25.000000 25.000002
v 10.736998 -25.000000 25.000002
v 12.259816 -25.000000 22.561375
v 10.323410 -25.000000 21.868433
v 11.548494 -25.000000 20.216461
v 10.393372 -25.000000 18.055376
v 8.339191 -25.000000 18.156216
v 8.838836 -25.000000 16.161167
v 6.944627 -25.000000 14.606635
v 5.085392 -25.000000 15.485895
v 4.783543 -25.000000 13.451511
v 2.438630 -25.000000 12.740191
v 2.094686 -25.000000 14.469318
v 0.000002 -25.000000 12.500006
v -1.057397 -25.000000 14.264021
v -2.438627 -25.000000 12.740191
v -4.783542 -25.000000 13.451513
v -5.085400 -25.000000 15.485899
v -6.944624 -25.000000 14.606635
v -8.838832 -25.000000 16.161171
v -7.592202 -25.000000 17.407803
v -10.393367 -25.000000 18.055378
v -9.514106 -25.000000 19.914612
v -11.548490 -25.000000 20.216461
v -12.259811 -25.000000 22.561375
v -10.735983 -25.000000 23.942602
v -12.499995 -25.000000 25.000004
v -12.259811 -25.000000 27.438633
v -10.323405 -25.000000 28.131569
v -11.548490 -25.000000 29.783546
v -10.393367 -25.000000 31.944630
v -8.927484 -25.000000 30.965158
v -8.838831 -25.000000 33.838837
v -6.843788 -25.000000 33.339188
v -6.944624 -25.000000 35.393372
v -4.783541 -25.000000 36.548496
v -3.131573 -25.000000 35.323414
v -2.438626 -25.000000 37.259819
v 0.000003 -25.000000 37.500000
v 0.000002 -25.000000 35.737000
v -0.000001 19.194160 19.194162
v 3.645784 18.853676 18.853691
v -0.000001 17.947533 17.947527
v 3.131600 17.655067 17.655075
v 6.944624 17.704542 17.704554
v 8.838834 16.605328 16.605328
v 6.843801 16.252003 16.252020
v 10.393368 15.265918 15.265920
v 8.927485 14.573325 14.573329
v 11.548492 13.737799 13.737807
v 12.259813 12.079696 12.079698
v 10.323405 12.569676 12.569677
v 12.499996 10.355326 10.355330
v 10.736993 10.355326 10.355330
v 12.259811 8.630954 8.630960
v 11.548490 6.972841 6.972853
v 10.323405 8.140979 8.140970
v 10.393368 5.444730 5.444736
v 8.927485 6.137320 6.137329
v 8.838833 4.105330 4.105333
v 6.944625 3.006109 3.006109
v 6.843781 4.458631 4.458633
v 4.783541 2.189313 2.189318
v 2.438627 1.686329 1.686333
v 3.131559 3.055574 3.055574
v -0.000000 1.516491 1.516495
v -0.000001 2.763123 2.763128
v -2.438628 1.686329 1.686333
v -4.783543 2.189312 2.189318
v -3.131565 3.055571 3.055578
v -6.944627 3.006107 3.006109
v -8.838834 4.105328 4.105333
v -6.843792 4.458637 4.458628
v -10.393369 5.444729 5.444736
v -8.927485 6.137319 6.137329
v -11.548493 6.972839 6.972855
v -12.259815 8.630951 8.630960
v -10.323413 8.140980 8.140980
v -12.500001 10.355324 10.355331
v -12.259815 12.079694 12.079698
v -10.735988 11.103015 11.103022
v -11.548491 13.737797 13.737807
v -10.393369 15.265916 15.265922
v -9.514105 13.951241 13.951247
v -8.838834 16.605324 16.605328
v -6.944629 17.704542 17.704554
v -6.843813 16.252016 16.251999
v -3.645783 18.853680 18.853687
v -3.131602 17.655066 17.655079
v -0.000001 19.194160 19.194162
v -0.000001 17.947533 17.947527
v 0.000002 -25.000000 14.263010
v 4.874164 -24.998047 15.174989
v 0.004119 -10.383028 11.763381
v 5.189143 -4.915314 9.951531
v 0.017078 2.654282 2.649952
v 5.124734 3.644314 3.644764
v 5.189139 -14.645801 13.958888
v 10.389343 -25.002869 21.400049
v 10.019817 -7.128747 17.570288
v 9.712646 6.702818 6.702196
v 10.721035 -0.140079 20.601490
v 9.712657 -24.999552 30.165854
v 10.051072 -11.356944 27.396357
v 6.981965 4.122124 25.722311
v 10.389340 12.898837 12.902896
v 3.248191 -25.002113 35.482719
v 6.848927 -9.930046 31.354719
v -1.079222 5.480737 27.767086
v 4.874218 17.304024 17.301264
v -4.874159 -25.001953 34.825020
v 1.079224 -9.241177 33.865108
v -6.848943 4.192727 25.504856
v -3.248168 17.769226 17.766233
v -10.389338 -24.997131 28.599951
v -6.981967 -9.726363 31.458548
v -10.051075 2.402705 21.696901
v -9.712661 14.007801 14.008439
v -10.721034 -10.333491 24.823744
v -9.712652 -25.000446 19.834154
v -10.019816 -7.535147 17.738625
v -10.389328 7.811769 7.807722
v -5.124785 -24.999685 15.509540
v -5.189150 -4.773440 9.869622
v -0.017077 -25.003063 14.106023
v -5.189145 -14.487564 13.916492
v -0.004118 -9.340130 11.331402
v -4.874118 3.406593 3.409355
v -0.000001 2.763123 2.763128
v -0.000000 1.516491 1.516495
v -0.003933 -10.043297 9.700035
v -6.041199 -5.557230 8.485155
v -0.019881 -25.003571 12.317241
v -5.966268 -24.999634 13.951218
v -5.674467 2.265631 2.268848
v -6.041200 -14.886320 12.376340
v -11.307460 -25.000519 18.985928
v -12.095261 7.394149 7.389441
v -11.670164 -7.763291 17.090290
v -12.428746 1.958555 19.934399
v -12.095259 -24.996660 29.191053
v -8.128392 5.082598 26.777096
v -11.307423 14.607605 14.608348
v -11.293266 -9.991240 28.965437
v -5.674493 -25.002272 36.438278
v -5.925261 -9.174075 33.987602
v 1.256412 6.353339 29.337141
v -3.781488 18.986586 18.983107
v 3.781539 -25.002462 37.203972
v 1.256423 -8.778486 35.600498
v 7.973524 4.822258 26.721703
v 5.674474 18.445017 18.441807
v 7.973521 -9.580466 32.677902
v 11.307463 -24.999479 31.014082
v 11.701453 2.024944 22.700338
v 12.095260 13.316477 13.321204
v 12.328436 -12.455977 27.033058
v 12.095263 -25.003340 20.808947
v 11.307469 6.103110 6.102385
v 11.670167 -7.425894 16.950535
v 6.041202 -5.722396 8.580517
v 5.674498 -24.997726 13.561732
v 5.966229 2.542383 2.542900
v 0.019883 1.389780 1.384737
v 6.041199 -15.070539 12.425702
v 0.003934 -11.039360 10.112615
v 0.000002 -25.000000 12.500006
vn 0.000000 -1.000000 -0.000001
vn 0.000000 -1.000000 -0.000002
vn 0.000000 -1.000000 -0.000001
vn 0.000000 -1.000000 0.000000
vn 0.000000 -1.000000 0.000001
vn 0.000000 -1.000000 0.000001
vn 0.000000 -1.000000 -0.000000
vn 0.000000 -1.000000 -0.000000
vn 0.000000 -1.000000 0.000000
vn 0.000000 -1.000000 0.000001
vn 0.000000 -1.000000 -0.000000
vn 0.000000 -1.000000 -0.000000
vn 0.000000 -1.000000 -0.000000
vn 0.000000 -1.000000 0.000001
vn 0.000000 -1.000000 0.000001
vn 0.000000 -1.000000 0.000001
vn 0.000000 -1.000000 0.000001
vn 0.000000 -1.000000 0.000001
vn 0.000000 -1.000000 0.000000
vn 0.000000 -1.000000 -0.000000
vn 0.000000 -1.000000 0.000000
vn 0.000000 -1.000000 -0.000000
vn 0.000000 -1.000000 -0.000001
vn 0.000000 -1.000000 -0.000001
vn 0.000000 -1.000000 -0.000000
vn 0.000000 -1.000000 -0.000001
vn 0.000000 -1.000000 -0.000000
vn 0.000000 -1.000000 -0.000000
vn 0.000000 -1.000000 -0.000000
vn 0.000000 -1.000000 0.000000
vn 0.000000 -1.000000 0.000001
vn 0.000000 -1.000000 0.000000
vn 0.000000 -1.000000 0.000000
vn 0.000000 -1.000000 0.000000
vn 0.000000 -1.000000 -0.000000
vn 0.000000 -1.000000 -0.000000
vn 0.000000 -1.000000 0.000001
vn 0.000000 -1.000000 0.000000
vn 0.000000 -1.000000 0.000000
vn 0.000000 -1.000000 0.000000
vn 0.000000 -1.000000 -0.000001
vn 0.000000 -1.000000 -0.000001
vn 0.000000 -1.000000 -0.000001
vn 0.000000 -1.000000 0.000000
vn 0.000000 -1.000000 0.000000
vn 0.000000 -1.000000 -0.000000
vn 0.000000 -1.000000 -0.000000
vn 0.000000 -1.000000 0.000000
vn 0.000000 -1.000000 0.000000
vn 0.000000 -1.000000 0.000000
vn 0.000000 -1.000000 0.000001
vn 0.000000 -1.000000 0.000000
vn 0.000000 -1.000000 0.000000
vn 0.000003 0.707109 -0.707105
vn 0.000002 0.707109 -0.707105
vn 0.000003 0.707109 -0.707105
vn 0.000002 0.707108 -0.707105
vn -0.000001 0.707106 -0.707107
vn -0.000005 0.707104 -0.707109
vn -0.000003 0.707106 -0.707108
vn -0.000001 0.707106 -0.707108
vn -0.000000 0.707107 -0.707107
vn 0.000002 0.707108 -0.707106
vn 0.000001 0.707107 -0.707107
vn 0.000002 0.707108 -0.707106
vn 0.000000 0.707106 -0.707107
vn 0.000001 0.707106 -0.707107
vn 0.000005 0.707107 -0.707107
vn 0.000007 0.707105 -0.707109
vn 0.000005 0.707106 -0.707108
vn -0.000000 0.707106 -0.707107
vn -0.000002 0.707106 -0.707107
vn 0.000000 0.707108 -0.707106
vn -0.000001 0.707107 -0.707107
vn 0.000000 0.707107 -0.707106
vn 0.000001 0.707106 -0.707108
vn 0.000000 0.707106 -0.707108
vn 0.000000 0.707106 -0.707108
vn -0.000000 0.707107 -0.707106
vn -0.000001 0.707107 -0.707106
vn -0.000000 0.707108 -0.707106
vn 0.000001 0.707107 -0.707106
vn 0.000000 0.707107 -0.707107
vn -0.000001 0.707104 -0.707109
vn -0.000004 0.707104 -0.707109
vn -0.000002 0.707105 -0.707109
vn -0.000001 0.707109 -0.707105
vn -0.000001 0.707108 -0.707105
vn -0.000003 0.707105 -0.707109
vn -0.000004 0.707105 -0.707108
vn -0.000004 0.707105 -0.707109
vn -0.000001 0.707107 -0.707107
vn 0.000001 0.707107 -0.707106
vn -0.000000 0.707107 -0.707107
vn -0.000001 0.707107 -0.707107
vn -0.000000 0.707106 -0.707107
vn -0.000002 0.707107 -0.707107
vn -0.000006 0.707109 -0.707104
vn -0.000006 0.707114 -0.707100
vn -0.000005 0.707111 -0.707103
vn 0.000001 0.707107 -0.707106
vn 0.000002 0.707107 -0.707107
vn -0.000004 0.707108 -0.707106
vn -0.000005 0.707108 -0.707105
vn -0.085117 0.165068 0.982602
vn -0.506709 0.133981 0.851642
vn -0.083537 0.366508 0.926657
vn -0.516827 0.459715 0.722185
vn -0.240513 0.541111 0.805824
vn -0.494870 0.513037 0.701354
vn -0.530808 0.180886 0.827963
vn -0.955532 0.060726 0.288566
vn -0.919226 0.136641 0.369261
vn -0.909107 0.235507 0.343600
vn -0.977439 -0.105631 -0.182908
vn -0.876223 -0.036176 -0.480546
vn -0.926485 -0.089935 -0.365428
vn -0.611684 -0.394650 -0.685634
vn -0.939050 -0.230310 -0.255229
vn -0.289336 -0.091755 -0.952820
vn -0.613563 -0.205872 -0.762337
vn 0.068322 -0.496106 -0.865570
vn -0.431592 -0.572107 -0.697439
vn 0.431589 -0.088624 -0.897707
vn -0.068322 -0.261251 -0.962850
vn 0.613564 -0.393481 -0.684626
vn 0.289335 -0.608866 -0.738626
vn 0.939050 -0.017620 -0.343330
vn 0.611684 -0.205757 -0.763876
vn 0.926485 -0.194803 -0.321990
vn 0.876224 -0.314217 -0.365376
vn 0.977439 -0.054644 -0.204027
vn 0.909108 0.076433 0.409489
vn 0.919226 0.164487 0.357726
vn 0.955531 0.161109 0.246989
vn 0.494873 0.133161 0.858702
vn 0.530808 0.457554 0.713363
vn 0.240480 0.187216 0.952428
vn 0.516827 0.185596 0.835730
vn 0.083536 0.396078 0.914409
vn 0.506706 0.507465 0.696943
vn 0.085066 0.578089 0.811528
vn -0.085026 -0.576152 -0.812908
vn -0.104115 -0.395383 -0.912597
vn -0.528503 -0.453878 -0.717411
vn -0.269034 -0.203097 -0.941473
vn -0.494720 -0.137298 -0.858139
vn -0.505619 -0.507557 -0.697664
vn -0.513208 -0.190764 -0.836795
vn -0.909797 -0.075834 -0.408067
vn -0.950773 -0.158489 -0.266293
vn -0.925857 -0.136542 -0.352341
vn -0.975068 0.112892 0.191045
vn -0.938876 0.016256 0.343872
vn -0.606467 0.396930 0.688944
vn -0.873958 0.330327 0.356484
vn -0.862046 0.128805 0.490189
vn -0.435719 0.089876 0.895584
vn -0.460209 0.229774 0.857561
vn 0.069865 0.490587 0.868587
vn -0.288204 0.613711 0.735049
vn 0.289519 0.088721 0.953052
vn 0.092871 0.264133 0.960004
vn 0.617857 0.389045 0.683299
vn 0.439126 0.575182 0.690170
vn 0.624819 0.209755 0.752066
vn 0.870912 0.020314 0.491019
vn 0.906386 0.208681 0.367309
vn 0.939269 0.227421 0.257008
vn 0.957900 0.073255 0.277599
vn 0.951140 -0.073397 -0.299910
vn 0.910958 -0.236224 -0.338164
vn 0.934789 -0.138446 -0.327112
vn 0.513208 -0.456814 -0.726594
vn 0.505621 -0.134427 -0.852219
vn 0.494718 -0.509713 -0.703880
vn 0.269034 -0.522112 -0.809333
vn 0.528504 -0.186347 -0.828226
vn 0.104115 -0.365726 -0.924881
vn 0.085026 -0.167413 -0.982214
f 1//1 2//2 3//3
f 4//4 1//1 3//3
f 5//5 1//1 4//4
f 6//6 5//5 4//4
f 7//7 5//5 6//6
f 8//8 7//7 6//6
f 9//9 8//8 6//6
f 10//10 8//8 9//9
f 11//11 10//10 9//9
f 12//12 11//11 9//9
f 13//13 11//11 12//12
f 14//14 13//13 12//12
f 15//15 14//14 12//12
f 16//16 14//14 15//15
f 17//17 16//16 15//15
f 18//18 16//16 17//17
f 19//19 18//18 17//17
f 20//20 19//19 17//17
f 21//21 19//19 20//20
f 22//22 21//21 20//20
f 23//23 22//22 20//20
f 24//24 22//22 23//23
f 25//25 24//24 23//23
f 26//26 25//25 23//23
f 27//27 25//25 26//26
f 28//28 27//27 26//26
f 29//29 27//27 28//28
f 30//30 29//29 28//28
f 31//31 30//30 28//28
f 32//32 30//30 31//31
f 33//33 32//32 31//31
f 34//34 33//33 31//31
f 35//35 33//33 34//34
f 36//36 35//35 34//34
f 37//37 35//35 36//36
f 38//38 37//37 36//36
f 39//39 38//38 36//36
f 40//40 38//38 39//39
f 41//41 40//40 39//39
f 42//42 41//41 39//39
f 43//43 41//41 42//42
f 44//44 43//43 42//42
f 45//45 44//44 42//42
f 46//46 44//44 45//45
f 47//47 46//46 45//45
f 48//48 46//46 47//47
f 49//49 48//48 47//47
f 50//50 49//49 47//47
f 51//51 49//49 50//50
f 52//52 51//51 50//50
f 53//53 52//52 50//50
f 54//54 55//55 56//56
f 55//55 57//57 56//56
f 55//55 58//58 57//57
f 58//58 60//60 57//57
f 58//58 59//59 60//60
f 59//59 61//61 60//60
f 61//61 62//62 60//60
f 61//61 63//63 62//62
f 63//63 65//65 62//62
f 63//63 64//64 65//65
f 64//64 66//66 65//65
f 66//66 67//67 65//65
f 66//66 68//68 67//67
f 68//68 70//70 67//67
f 68//68 69//69 70//70
f 69//69 71//71 70//70
f 71//71 72//72 70//70
f 71//71 73//73 72//72
f 73//73 75//75 72//72
f 73//73 74//74 75//75
f 74//74 76//76 75//75
f 76//76 78//78 75//75
f 76//76 77//77 78//78
f 77//77 79//79 78//78
f 79//79 80//80 78//78
f 79//79 81//81 80//80
f 81//81 83//83 80//80
f 81//81 82//82 83//83
f 82//82 84//84 83//83
f 84//84 86//86 83//83
f 84//84 85//85 86//86
f 85//85 87//87 86//86
f 87//87 88//88 86//86
f 87//87 89//89 88//88
f 89//89 91//91 88//88
f 89//89 90//90 91//91
f 90//90 92//92 91//91
f 92//92 94//94 91//91
f 92//92 93//93 94//94
f 93//93 95//95 94//94
f 95//95 97//97 94//94
f 95//95 96//96 97//97
f 96//96 98//98 97//97
f 98//98 100//100 97//97
f 98//98 99//99 100//100
f 99//99 101//101 100//100
f 101//101 102//102 100//100
f 101//101 103//103 102//102
f 103//103 104//104 102//102
f 105//105 106//106 107//107
f 106//106 111//111 107//107
f 108//108 107//107 111//111
f 107//107 108//108 109//109
f 108//108 110//110 109//109
f 106//106 112//112 111//111
f 108//108 114//114 110//110
f 112//112 113//113 111//111
f 108//108 111//111 113//113
f 108//108 113//113 114//114
f 112//112 115//115 113//113
f 112//112 116//116 115//115
f 113//113 115//115 114//114
f 115//115 119//119 114//114
f 116//116 117//117 115//115
f 115//115 118//118 119//119
f 118//118 115//115 117//117
f 116//116 121//121 117//117
f 118//118 117//117 121//121
f 116//116 120//120 121//121
f 118//118 123//123 119//119
f 120//120 125//125 121//121
f 118//118 121//121 125//125
f 118//118 122//122 123//123
f 122//122 118//118 125//125
f 120//120 124//124 125//125
f 122//122 127//127 123//123
f 124//124 129//129 125//125
f 122//122 125//125 129//129
f 122//122 126//126 127//127
f 126//126 122//122 129//129
f 124//124 128//128 129//129
f 126//126 131//131 127//127
f 126//126 130//130 131//131
f 130//130 126//126 129//129
f 128//128 132//132 129//129
f 130//130 129//129 132//132
f 128//128 133//133 132//132
f 130//130 132//132 131//131
f 132//132 135//135 131//131
f 133//133 134//134 132//132
f 132//132 134//134 135//135
f 133//133 139//139 134//134
f 133//133 136//136 139//139
f 134//134 137//137 135//135
f 137//137 134//134 139//139
f 137//137 141//141 135//135
f 136//136 138//138 139//139
f 138//138 140//140 139//139
f 137//137 139//139 140//140
f 137//137 140//140 141//141
f 140//140 142//142 141//141
f 143//143 144//144 148//148
f 144//144 145//145 148//148
f 149//149 145//145 144//144
f 144//144 146//146 149//149
f 146//146 147//147 149//149
f 148//148 145//145 151//151
f 147//147 150//150 149//149
f 145//145 152//152 151//151
f 152//152 145//145 149//149
f 149//149 150//150 152//152
f 152//152 153//153 151//151
f 151//151 153//153 156//156
f 152//152 150//150 153//153
f 150//150 154//154 153//153
f 153//153 154//154 157//157
f 153//153 155//155 156//156
f 155//155 153//153 157//157
f 156//156 155//155 161//161
f 154//154 158//158 157//157
f 157//157 158//158 159//159
f 159//159 155//155 157//157
f 155//155 160//160 161//161
f 160//160 155//155 159//159
f 159//159 158//158 163//163
f 163//163 160//160 159//159
f 161//161 160//160 165//165
f 158//158 162//162 163//163
f 160//160 164//164 165//165
f 164//164 160//160 163//163
f 163//163 162//162 166//166
f 166//166 164//164 163//163
f 165//165 164//164 169//169
f 162//162 167//167 166//166
f 164//164 168//168 169//169
f 168//168 164//164 166//166
f 166//166 167//167 170//170
f 170//170 168//168 166//166
f 168//168 170//170 169//169
f 169//169 170//170 172//172
f 167//167 171//171 170//170
f 170//170 173//173 172//172
f 170//170 171//171 173//173
f 173//173 174//174 172//172
f 172//172 174//174 176//176
f 173//173 171//171 178//178
f 178//178 174//174 173//173
f 171//171 175//175 178//178
f 176//176 174//174 177//177
f 174//174 179//179 177//177
f 179//179 174//174 178//178
f 178//178 175//175 179//179
f 175//175 180//180 179//179
