# Exported from Blender
v 2.000001 23.997353 1.999993
v 2.000001 23.997353 -2.000007
v 2.000001 25.000000 -2.000007
v 2.000001 25.000008 1.999993
v -1.999994 -24.012373 2.000010
v -1.999994 -24.012375 -1.999990
v -1.999994 -25.000000 -1.999990
v -1.999994 -24.999990 2.000010
v -1.999994 -24.012375 -1.999990
v 2.000005 -24.012373 -1.999990
v 2.000005 -25.000000 -1.999990
v -1.999994 -25.000000 -1.999990
v 2.000005 -24.012383 2.000010
v -1.999994 -24.012373 2.000010
v -1.999994 -24.999990 2.000010
v 2.000005 -24.999990 2.000010
v -1.999998 25.000008 1.999993
v -1.999998 25.000000 -2.000007
v -1.999998 23.997349 -2.000007
v -1.999998 23.997349 1.999993
v -1.999998 25.000000 -2.000007
v 2.000001 25.000000 -2.000007
v 2.000001 23.997353 -2.000007
v -1.999998 23.997349 -2.000007
v 2.000001 25.000008 1.999993
v -1.999998 25.000008 1.999993
v -1.999998 23.997349 1.999993
v 2.000001 23.997353 1.999993
v 2.000005 -24.999990 2.000010
v 2.000005 -25.000000 -1.999990
v 2.000005 -24.012373 -1.999990
v 2.000005 -24.012383 2.000010
v -1.999998 25.000000 -2.000007
v -1.999998 25.000008 1.999993
v -0.999998 25.000008 0.999993
v -0.999998 25.000000 -1.000007
v -1.999998 25.000008 1.999993
v 2.000001 25.000008 1.999993
v 1.000001 25.000008 0.999993
v -0.999998 25.000008 0.999993
v 2.000001 25.000008 1.999993
v 2.000001 25.000000 -2.000007
v 1.000001 25.000000 -1.000007
v 1.000001 25.000008 0.999993
v 2.000001 25.000000 -2.000007
v -1.999998 25.000000 -2.000007
v -0.999998 25.000000 -1.000007
v 1.000001 25.000000 -1.000007
v 2.000005 -25.000000 -1.999990
v 2.000005 -24.999990 2.000010
v 1.000006 -24.999992 1.000010
v 1.000006 -24.999994 -0.999990
v 2.000005 -24.999990 2.000010
v -1.999994 -24.999990 2.000010
v -0.999994 -24.999992 1.000010
v 1.000006 -24.999992 1.000010
v -1.999994 -24.999990 2.000010
v -1.999994 -25.000000 -1.999990
v -0.999994 -24.999994 -0.999990
v -0.999994 -24.999992 1.000010
v -1.999994 -25.000000 -1.999990
v 2.000005 -25.000000 -1.999990
v 1.000006 -24.999994 -0.999990
v -0.999994 -24.999994 -0.999990
v 1.000001 25.000008 0.999993
v 1.000001 25.000000 -1.000007
v -0.999998 25.000000 -1.000007
v -0.999998 25.000008 0.999993
v -0.999994 -24.999992 1.000010
v -0.999994 -24.999994 -0.999990
v 1.000006 -24.999994 -0.999990
v 1.000006 -24.999992 1.000010
v 2.000005 -24.012383 2.000010
v 2.000005 -24.012373 -1.999990
v 2.000001 23.997353 -2.000007
v 2.000001 23.997353 1.999993
v -1.999998 23.997349 1.999993
v -1.999998 23.997349 -2.000007
v -1.999994 -24.012375 -1.999990
v -1.999994 -24.012373 2.000010
v -1.999998 23.997349 -2.000007
v 2.000001 23.997353 -2.000007
v 2.000005 -24.012373 -1.999990
v -1.999994 -24.012375 -1.999990
v 2.000001 23.997353 1.999993
v -1.999998 23.997349 1.999993
v -1.999994 -24.012373 2.000010
v 2.000005 -24.012383 2.000010
vn 1.000000 0.000000 0.000000
vn 1.000000 0.000000 0.000000
vn 1.000000 0.000000 0.000000
vn 1.000000 0.000000 0.000000
vn -1.000000 0.000000 0.000000
vn -1.000000 0.000000 0.000000
vn -1.000000 0.000000 0.000000
vn -1.000000 0.000000 0.000000
vn 0.000000 -0.000000 -1.000000
vn 0.000000 -0.000000 -1.000000
vn 0.000000 -0.000000 -1.000000
vn 0.000000 -0.000000 -1.000000
vn 0.000000 0.000000 1.000000
vn 0.000000 0.000000 1.000000
vn 0.000000 0.000000 1.000000
vn 0.000000 0.000000 1.000000
vn -1.000000 0.000000 0.000000
vn -1.000000 0.000000 0.000000
vn -1.000000 0.000000 0.000000
vn -1.000000 0.000000 0.000000
vn 0.000000 0.000000 -1.000000
vn 0.000000 0.000000 -1.000000
vn 0.000000 0.000000 -1.000000
vn 0.000000 0.000000 -1.000000
vn 0.000000 0.000000 1.000000
vn 0.000000 0.000000 1.000000
vn 0.000000 0.000000 1.000000
vn 0.000000 0.000000 1.000000
vn 1.000000 0.000000 0.000000
vn 1.000000 0.000000 0.000000
vn 1.000000 0.000000 0.000000
vn 1.000000 0.000000 0.000000
vn 0.000001 1.000000 -0.000003
vn -0.000002 1.000000 -0.000002
vn -0.000001 1.000000 -0.000002
vn 0.000004 1.000000 -0.000004
vn 0.000000 1.000000 -0.000004
vn 0.000000 1.000000 0.000002
vn 0.000000 1.000000 0.000001
vn 0.000000 1.000000 -0.000008
vn 0.000001 1.000000 -0.000003
vn -0.000002 1.000000 -0.000002
vn -0.000001 1.000000 -0.000002
vn 0.000004 1.000000 -0.000004
vn 0.000000 1.000000 0.000001
vn 0.000000 1.000000 0.000002
vn 0.000000 1.000000 0.000002
vn 0.000000 1.000000 0.000000
vn -0.000003 -1.000000 0.000001
vn -0.000000 -1.000000 0.000002
vn -0.000001 -1.000000 0.000002
vn -0.000005 -1.000000 0.000000
vn 0.000000 -1.000000 0.000002
vn 0.000000 -1.000000 0.000004
vn 0.000000 -1.000000 0.000003
vn 0.000000 -1.000000 0.000000
vn 0.000001 -1.000000 0.000001
vn 0.000003 -1.000000 0.000002
vn 0.000003 -1.000000 0.000002
vn -0.000001 -1.000000 0.000000
vn 0.000000 -1.000000 0.000006
vn 0.000000 -1.000000 0.000005
vn 0.000000 -1.000000 0.000005
vn 0.000000 -1.000000 0.000008
vn 0.000000 1.000000 -0.000004
vn 0.000000 1.000000 -0.000004
vn 0.000000 1.000000 -0.000004
vn 0.000000 1.000000 -0.000004
vn 0.000000 -1.000000 0.000001
vn 0.000000 -1.000000 0.000002
vn 0.000000 -1.000000 0.000001
vn 0.000000 -1.000000 0.000000
vn 1.000000 0.000000 0.000000
vn 1.000000 0.000000 0.000000
vn 1.000000 0.000000 0.000000
vn 1.000000 0.000000 0.000000
vn -1.000000 -0.000000 0.000000
vn -1.000000 -0.000000 0.000000
vn -1.000000 -0.000000 0.000000
vn -1.000000 -0.000000 0.000000
vn -0.000000 -0.000000 -1.000000
vn -0.000000 -0.000000 -1.000000
vn 0.000000 -0.000000 -1.000000
vn 0.000000 -0.000000 -1.000000
vn -0.000000 0.000000 1.000000
vn -0.000000 0.000000 1.000000
vn 0.000000 0.000000 1.000000
vn 0.000000 0.000000 1.000000
f 1//1 2//2 3//3
f 4//4 1//1 3//3
f 5//5 6//6 7//7
f 8//8 5//5 7//7
f 9//9 10//10 11//11
f 12//12 9//9 11//11
f 13//13 14//14 15//15
f 16//16 13//13 15//15
f 17//17 18//18 19//19
f 20//20 17//17 19//19
f 21//21 22//22 23//23
f 24//24 21//21 23//23
f 25//25 26//26 27//27
f 28//28 25//25 27//27
f 29//29 30//30 31//31
f 32//32 29//29 31//31
f 33//33 34//34 35//35
f 36//36 33//33 35//35
f 37//37 38//38 39//39
f 40//40 37//37 39//39
f 41//41 42//42 43//43
f 44//44 41//41 43//43
f 45//45 46//46 47//47
f 48//48 45//45 47//47
f 49//49 50//50 51//51
f 52//52 49//49 51//51
f 53//53 54//54 55//55
f 56//56 53//53 55//55
f 57//57 58//58 59//59
f 60//60 57//57 59//59
f 61//61 62//62 63//63
f 64//64 61//61 63//63
f 65//65 66//66 67//67
f 68//68 65//65 67//67
f 69//69 70//70 71//71
f 72//72 69//69 71//71
f 73//73 74//74 75//75
f 76//76 73//73 75//75
f 77//77 78//78 79//79
f 80//80 77//77 79//79
f 81//81 82//82 83//83
f 84//84 81//81 83//83
f 85//85 86//86 87//87
f 88//88 85//85 87//87
