# Exported from Blender
v 2.000001 23.997353 1.999993
v 2.000001 24.498676 -2.000007
v 2.000001 25.000008 1.999993
v -1.999994 -24.506182 2.000010
v -1.999994 -24.506186 -1.999990
v -1.999994 -24.506186 -1.999990
v 2.000005 -24.506186 -1.999990
v 2.000006 -24.506186 2.000010
v -1.999993 -24.506182 2.000010
v -1.999998 25.000008 1.999993
v -1.999998 25.000000 -2.000007
v -1.999998 23.997349 -2.000007
v -1.999998 23.997349 1.999993
v -1.999998 24.498674 -2.000007
v 2.000002 24.498676 -2.000007
v 2.000001 25.000008 1.999993
v -1.999998 25.000008 1.999993
v -1.999998 23.997349 1.999993
v 2.000001 23.997353 1.999993
v 2.000005 -24.506186 2.000011
v 2.000005 -24.506186 -1.999989
v -1.499998 24.999912 -1.500007
v -1.499998 24.999918 1.499993
v -1.499998 25.000008 1.499993
v 1.500001 25.000008 1.499993
v 1.500001 25.000099 1.499993
v 1.500001 25.000092 -1.500007
v 1.500001 25.000000 -1.500007
v -1.499998 25.000000 -1.500007
v 1.500006 -24.999939 -1.499990
v 1.500006 -24.999931 1.500010
v 1.500006 -24.999990 1.500010
v -1.499994 -24.999990 1.500010
v -1.499994 -25.000051 1.500010
v -1.499994 -25.000057 -1.499990
v -1.499994 -24.999996 -1.499990
v 1.500006 -25.000000 -1.499990
v 1.000001 25.000008 0.999993
v 1.000001 25.000000 -1.000007
v -0.999998 25.000000 -1.000007
v -0.999998 25.000008 0.999993
v -0.999994 -24.999992 1.000010
v -0.999994 -24.999994 -0.999990
v 1.000006 -24.999994 -0.999990
v 1.000006 -24.999992 1.000010
v 2.000005 -24.012383 2.000010
v 2.000005 -24.012373 -1.999990
v 2.000001 23.997353 -2.000007
v 2.000001 23.997353 1.999993
v -1.999998 23.997349 1.999993
v -1.999998 23.997349 -2.000007
v -1.999994 -24.012375 -1.999990
v -1.999994 -24.012373 2.000010
v -1.999998 23.997349 -2.000007
v 2.000001 23.997353 -2.000007
v 2.000005 -24.012373 -1.999990
v -1.999994 -24.012375 -1.999990
v 2.000001 23.997353 1.999993
v -1.999998 23.997349 1.999993
v -1.999994 -24.012373 2.000010
v 2.000005 -24.012383 2.000010
vn 1.000000 0.000000 0.000000
vn 1.000000 0.000000 0.000000
vn 1.000000 0.000000 0.000000
vn -0.081074 -0.993405 0.081074
vn -0.081074 -0.993405 -0.081073
vn -0.081074 -0.993405 -0.081073
vn 0.081074 -0.993405 -0.081073
vn 0.081074 -0.993405 0.081074
vn -0.081074 -0.993405 0.081074
vn -1.000000 0.000000 0.000000
vn -1.000000 0.000000 0.000000
vn -1.000000 0.000000 0.000000
vn -1.000000 0.000000 0.000000
vn -0.081098 0.993401 -0.081099
vn 0.081098 0.993401 -0.081099
vn 0.000000 0.000000 1.000000
vn 0.000000 0.000000 1.000000
vn 0.000000 0.000000 1.000000
vn 0.000000 0.000000 1.000000
vn 0.081074 -0.993405 0.081074
vn 0.081074 -0.993405 -0.081073
vn -0.059785 0.996419 -0.059786
vn -0.059785 0.996419 0.059785
vn -0.059785 0.996419 0.059785
vn 0.059785 0.996419 0.059785
vn 0.059785 0.996419 0.059785
vn 0.059785 0.996419 -0.059785
vn 0.059785 0.996419 -0.059785
vn -0.059785 0.996419 -0.059785
vn 0.059786 -0.996419 -0.059785
vn 0.059786 -0.996419 0.059786
vn 0.059785 -0.996419 0.059786
vn -0.059785 -0.996419 0.059786
vn -0.059785 -0.996419 0.059785
vn -0.059785 -0.996419 -0.059785
vn -0.059785 -0.996419 -0.059785
vn 0.059785 -0.996419 -0.059785
vn 0.000000 1.000000 -0.000004
vn 0.000000 1.000000 -0.000004
vn 0.000000 1.000000 -0.000004
vn 0.000000 1.000000 -0.000004
vn 0.000000 -1.000000 0.000001
vn 0.000000 -1.000000 0.000002
vn 0.000000 -1.000000 0.000001
vn 0.000000 -1.000000 0.000000
vn 1.000000 0.000000 0.000000
vn 1.000000 0.000000 0.000000
vn 1.000000 0.000000 0.000000
vn 1.000000 0.000000 0.000000
vn -1.000000 -0.000000 0.000000
vn -1.000000 -0.000000 0.000000
vn -1.000000 -0.000000 0.000000
vn -1.000000 -0.000000 0.000000
vn -0.000000 -0.000000 -1.000000
vn -0.000000 -0.000000 -1.000000
vn 0.000000 -0.000000 -1.000000
vn 0.000000 -0.000000 -1.000000
vn -0.000000 0.000000 1.000000
vn -0.000000 0.000000 1.000000
vn 0.000000 0.000000 1.000000
vn 0.000000 0.000000 1.000000
f 3//3 1//1 2//2
f 10//10 11//11 12//12
f 13//13 10//10 12//12
f 16//16 17//17 18//18
f 19//19 16//16 18//18
f 38//38 39//39 40//40
f 41//41 38//38 40//40
f 42//42 43//43 44//44
f 45//45 42//42 44//44
f 46//46 47//47 48//48
f 49//49 46//46 48//48
f 50//50 51//51 52//52
f 53//53 50//50 52//52
f 54//54 55//55 56//56
f 57//57 54//54 56//56
f 58//58 59//59 60//60
f 61//61 58//58 60//60
