# Exported from Blender
v 0.250000 -2.500000 1.000000
v -0.250000 -2.500000 1.000000
v -1.000000 -2.500000 0.500001
v 1.000000 -2.500000 0.500001
v -1.000000 -2.500000 0.125001
v 1.000000 -2.500000 0.125001
v -0.250000 -1.700000 -1.000000
v -0.250000 -2.500000 -1.000000
v -1.000000 -2.500000 -0.499999
v -1.000000 -2.200000 -0.499999
v -0.250000 -1.700000 -1.000000
v -1.000000 -2.200000 -0.499999
v -1.000000 -2.200000 0.500001
v -0.250000 -1.700000 1.000000
v 0.250000 2.500000 -1.000000
v -0.250000 2.500000 -1.000000
v -0.250000 2.500000 1.000000
v 0.250000 2.500000 1.000000
v -1.000000 -2.200000 0.500001
v -1.000000 -2.500000 0.500001
v -0.250000 -2.500000 1.000000
v -0.250000 -1.700000 1.000000
v 1.000000 -2.500000 -0.124999
v 1.000000 -2.500000 -0.499999
v 1.000000 -2.200000 -0.499999
v 1.000000 -2.200000 0.500001
v 1.000000 -2.500000 0.500001
v 1.000000 -2.438080 0.015867
v -0.250000 2.500000 -1.000000
v 0.250000 2.500000 -1.000000
v -0.250000 -2.500000 -1.000000
v 0.250000 -2.500000 -1.000000
v 0.250000 -1.700000 -1.000000
v 1.000000 -2.200000 -0.499999
v 0.250000 -1.700000 -1.000000
v 0.250000 -1.700000 1.000000
v 1.000000 -2.200000 0.500001
v 1.000000 -2.200000 -0.499999
v 1.000000 -2.500000 -0.499999
v 0.250000 -2.500000 -1.000000
v 0.250000 -1.700000 -1.000000
v 0.250000 -1.700000 1.000000
v 0.250000 -2.500000 1.000000
v 1.000000 -2.500000 0.500001
v 1.000000 -2.200000 0.500001
v -1.000000 -2.500000 -0.124999
v 1.000000 -2.500000 -0.124999
v 1.000000 -2.400000 0.000001
v -1.000000 -2.400000 0.000001
v -1.000000 -2.500000 0.125001
v -1.000000 -2.500000 0.500001
v -1.000000 -2.200000 0.500001
v -1.000000 -2.200000 -0.499999
v -1.000000 -2.500000 -0.499999
v -1.000000 -2.438081 -0.015866
v -0.250000 2.500000 1.000000
v -0.250000 2.500000 -1.000000
v -0.250000 -1.700000 -1.000000
v -0.250000 -1.700000 1.000000
v 0.250000 2.500000 -1.000000
v 0.250000 2.500000 1.000000
v 0.250000 -1.700000 1.000000
v 0.250000 -1.700000 -1.000000
v 1.000000 -2.500000 -0.124999
v -1.000000 -2.500000 -0.124999
v -1.000000 -2.500000 -0.499999
v 1.000000 -2.500000 -0.499999
v -0.250000 -2.500000 -1.000000
v 0.250000 -2.500000 -1.000000
v -1.000000 -2.400000 0.000001
v 1.000000 -2.400000 0.000001
v 1.000000 -2.500000 0.125001
v -1.000000 -2.500000 0.125001
v 0.005000 2.545167 0.468180
v 0.005000 2.497438 0.454999
v 0.004997 2.579936 0.500000
v 0.004997 2.555773 0.461110
v -0.005002 2.564936 0.500000
v -0.005002 2.545166 0.468180
v -0.005000 2.545167 0.468180
v -0.005000 2.497438 0.454999
v 0.005003 2.555776 0.538891
v 0.005003 2.579940 0.500001
v -0.004999 2.545168 0.531820
v -0.004999 2.564938 0.500000
v -0.004998 2.555773 0.538889
v -0.004998 2.579936 0.499998
v 0.005001 2.545166 0.531819
v 0.005001 2.564936 0.499999
v 0.005000 2.497438 0.544999
v 0.005000 2.545167 0.531819
v -0.005000 2.497438 0.544999
v -0.005000 2.545167 0.531819
v -0.005001 2.497438 0.555000
v -0.005001 2.555774 0.538891
v 0.004999 2.497437 0.554999
v 0.004999 2.555774 0.538890
v 0.005000 2.555774 0.461108
v 0.005000 2.497438 0.444999
v 0.004999 2.564938 0.499999
v 0.004999 2.545168 0.468179
v -0.005003 2.579940 0.499998
v -0.005003 2.555776 0.461107
v -0.005000 2.555774 0.461109
v -0.005000 2.497437 0.445000
v 0.005000 2.545167 -0.531820
v 0.005000 2.497438 -0.545001
v -0.005003 2.579940 -0.500002
v -0.005003 2.555776 -0.538893
v -0.005001 2.497438 -0.445000
v -0.005001 2.555774 -0.461109
v 0.004997 2.579936 -0.500000
v 0.004997 2.555773 -0.538890
v 0.004999 2.564938 -0.500001
v 0.004999 2.545168 -0.531821
v 0.004999 2.497437 -0.445002
v 0.004999 2.555774 -0.461111
v 0.004999 2.497438 -0.455000
v 0.004999 2.545167 -0.468180
v 0.005000 2.555774 -0.538892
v 0.005000 2.497438 -0.555001
v -0.004998 2.555773 -0.461111
v -0.004998 2.579936 -0.500002
v -0.004999 2.545168 -0.468180
v -0.004999 2.564938 -0.500000
v 0.005003 2.555776 -0.461109
v 0.005003 2.579940 -0.499999
v 0.005001 2.545166 -0.468181
v 0.005001 2.564936 -0.500001
v -0.005000 2.545167 -0.531820
v -0.005000 2.497438 -0.545000
v -0.005000 2.555774 -0.538891
v -0.005000 2.497437 -0.555000
v -0.005000 2.497438 -0.455001
v -0.005000 2.545167 -0.468181
v -0.005002 2.564937 -0.500000
v -0.005002 2.545166 -0.531820
v -0.250000 -2.500000 1.000000
v 0.250000 -2.500000 1.000000
v -0.250000 2.500000 1.000000
v 0.250000 2.500000 1.000000
v 0.250000 -1.700000 1.000000
vn 0.000000 -1.000000 0.000000
vn 0.000000 -1.000000 0.000000
vn 0.000000 -1.000000 0.000000
vn 0.000000 -1.000000 0.000000
vn 0.000000 -1.000000 0.000000
vn 0.000000 -1.000000 0.000000
vn -0.554700 -0.000000 -0.832050
vn -0.554700 -0.000000 -0.832050
vn -0.554701 -0.000000 -0.832050
vn -0.554701 -0.000000 -0.832050
vn -0.554700 0.832050 -0.000000
vn -0.554700 0.832050 0.000000
vn -0.554700 0.832050 -0.000000
vn -0.554700 0.832050 -0.000000
vn 0.000000 1.000000 0.000000
vn 0.000000 1.000000 0.000000
vn 0.000000 1.000000 0.000000
vn 0.000000 1.000000 0.000000
vn -0.554700 0.000000 0.832051
vn -0.554700 0.000000 0.832051
vn -0.554700 0.000000 0.832050
vn -0.554700 0.000000 0.832050
vn 1.000000 0.000000 0.000000
vn 1.000000 0.000000 0.000000
vn 1.000000 0.000000 0.000000
vn 1.000000 0.000000 0.000000
vn 1.000000 0.000000 0.000000
vn 1.000000 0.000000 0.000000
vn 0.000000 -0.000000 -1.000000
vn 0.000000 -0.000000 -1.000000
vn 0.000000 -0.000000 -1.000000
vn 0.000000 -0.000000 -1.000000
vn 0.148341 0.000048 0.988936
vn 0.554700 0.832050 -0.000000
vn 0.554700 0.832050 -0.000000
vn 0.554700 0.832050 -0.000000
vn 0.554700 0.832050 0.000000
vn 0.554700 0.000000 -0.832050
vn 0.554700 0.000000 -0.832050
vn 0.554700 0.000000 -0.832050
vn 0.554700 0.000000 -0.832050
vn 0.554700 0.000000 0.832050
vn 0.554700 0.000000 0.832050
vn 0.554700 0.000000 0.832051
vn 0.554700 0.000000 0.832051
vn 0.000000 -0.780868 0.624697
vn 0.000000 -0.780868 0.624697
vn 0.000000 -0.780868 0.624697
vn 0.000000 -0.780868 0.624697
vn -1.000000 -0.000000 0.000000
vn -1.000000 0.000000 0.000000
vn -1.000000 -0.000000 0.000000
vn -1.000000 -0.000000 0.000000
vn -1.000000 -0.000000 0.000000
vn -1.000000 -0.000000 0.000000
vn -1.000000 -0.000000 0.000000
vn -1.000000 -0.000000 0.000000
vn -1.000000 -0.000000 0.000000
vn -1.000000 -0.000000 0.000000
vn 1.000000 0.000000 -0.000000
vn 1.000000 0.000000 0.000000
vn 1.000000 0.000000 -0.000000
vn 1.000000 0.000000 -0.000000
vn 0.000000 -1.000000 0.000000
vn 0.000000 -1.000000 0.000000
vn 0.000000 -1.000000 0.000000
vn 0.000000 -1.000000 0.000000
vn 0.000000 -1.000000 0.000000
vn 0.000000 -1.000000 0.000000
vn 0.000000 -0.780868 -0.624696
vn 0.000000 -0.780868 -0.624696
vn 0.000000 -0.780868 -0.624696
vn 0.000000 -0.780868 -0.624696
vn 0.001932 0.983497 0.180913
vn 0.001970 0.983804 0.179236
vn 0.001902 0.981731 0.190263
vn 0.001924 0.984110 0.177552
vn -0.001914 0.981523 0.191335
vn -0.001933 0.983497 0.180913
vn -0.001932 0.983497 0.180913
vn -0.001970 0.983804 0.179236
vn 0.001915 0.978484 0.206316
vn 0.001904 0.981731 0.190263
vn -0.001923 0.978857 0.204535
vn -0.001913 0.981523 0.191335
vn -0.001913 0.978484 0.206315
vn -0.001902 0.981731 0.190262
vn 0.001923 0.978857 0.204535
vn 0.001914 0.981523 0.191334
vn 0.001956 0.977005 0.213206
vn 0.001923 0.978857 0.204535
vn -0.001956 0.977005 0.213205
vn -0.001923 0.978857 0.204535
vn -0.001955 0.976184 0.216935
vn -0.001914 0.978484 0.206315
vn 0.001954 0.976184 0.216935
vn 0.001914 0.978484 0.206315
vn 0.001925 0.984110 0.177551
vn 0.001971 0.984492 0.175419
vn 0.001913 0.981523 0.191334
vn 0.001932 0.983497 0.180913
vn -0.001904 0.981732 0.190262
vn -0.001926 0.984110 0.177551
vn -0.001925 0.984110 0.177552
vn -0.001971 0.984492 0.175419
vn 0.001923 0.978857 -0.204535
vn 0.001956 0.977005 -0.213206
vn -0.001904 0.981731 -0.190263
vn -0.001915 0.978484 -0.206316
vn -0.001971 0.984492 -0.175419
vn -0.001926 0.984110 -0.177552
vn 0.001902 0.981731 -0.190263
vn 0.001913 0.978484 -0.206316
vn 0.001913 0.981523 -0.191335
vn 0.001922 0.978857 -0.204535
vn 0.001971 0.984492 -0.175420
vn 0.001925 0.984109 -0.177552
vn 0.001969 0.983804 -0.179236
vn 0.001932 0.983497 -0.180913
vn 0.001914 0.978483 -0.206316
vn 0.001955 0.976184 -0.216936
vn -0.001924 0.984109 -0.177552
vn -0.001902 0.981731 -0.190263
vn -0.001932 0.983497 -0.180913
vn -0.001913 0.981523 -0.191335
vn 0.001926 0.984110 -0.177551
vn 0.001904 0.981731 -0.190262
vn 0.001933 0.983497 -0.180914
vn 0.001914 0.981523 -0.191335
vn -0.001923 0.978857 -0.204535
vn -0.001956 0.977005 -0.213206
vn -0.001914 0.978484 -0.206315
vn -0.001954 0.976184 -0.216935
vn -0.001970 0.983804 -0.179236
vn -0.001932 0.983497 -0.180913
vn -0.001914 0.981523 -0.191335
vn -0.001924 0.978857 -0.204535
vn 0.000000 0.000000 1.000000
vn 0.000000 0.000000 1.000000
vn 0.000000 0.000000 1.000000
vn 0.000000 0.000000 1.000000
vn -0.999298 0.000000 0.037474
f 1//1 2//2 3//3
f 3//3 4//4 1//1
f 3//3 5//5 4//4
f 5//5 6//6 4//4
f 7//7 8//8 9//9
f 10//10 7//7 9//9
f 11//11 12//12 13//13
f 14//14 11//11 13//13
f 15//15 16//16 17//17
f 18//18 15//15 17//17
f 19//19 20//20 21//21
f 22//22 19//19 21//21
f 23//23 24//24 25//25
f 25//25 28//28 23//23
f 28//28 25//25 26//26
f 28//28 26//26 27//27
f 31//31 29//29 30//30
f 30//30 32//32 31//31
f 30//30 33//33 32//32
f 34//34 35//35 36//36
f 37//37 34//34 36//36
f 38//38 39//39 40//40
f 41//41 38//38 40//40
f 42//42 43//43 44//44
f 45//45 42//42 44//44
f 46//46 47//47 48//48
f 49//49 46//46 48//48
f 50//50 51//51 52//52
f 52//52 55//55 50//50
f 55//55 52//52 53//53
f 55//55 53//53 54//54
f 56//56 57//57 58//58
f 59//59 56//56 58//58
f 60//60 61//61 62//62
f 63//63 60//60 62//62
f 64//64 65//65 66//66
f 66//66 67//67 64//64
f 66//66 68//68 67//67
f 68//68 69//69 67//67
f 70//70 71//71 72//72
f 73//73 70//70 72//72
f 140//140 138//138 139//139
f 139//139 141//141 140//140
f 139//139 142//142 141//141
