# Exported from Blender
v -0.047864 -0.075062 1.115655
v -0.047860 -0.075062 1.035967
v -0.047759 -0.075062 -1.034393
v -0.024681 0.065392 -1.116449
v -0.024684 0.065392 -1.034392
v -0.024786 0.065392 1.035969
v 0.016547 0.317089 1.370729
v 0.305000 0.317088 1.370744
v 0.305134 0.317088 -1.371502
v 0.016681 0.317088 -1.371517
v -0.116302 0.060318 1.095810
v -0.116298 0.060318 1.055806
v -0.132940 -0.040976 1.055805
v -0.132941 -0.040976 1.095808
v 0.305134 0.317088 -1.371502
v 0.305000 0.317088 1.370744
v 0.410772 -0.326759 1.370747
v 0.410907 -0.326759 -1.371497
v 0.305000 0.317088 1.370744
v 0.016547 0.317089 1.370729
v -0.089226 -0.326759 1.370724
v 0.410772 -0.326759 1.370747
v 0.016681 0.317088 -1.371517
v 0.305134 0.317088 -1.371502
v 0.410907 -0.326759 -1.371497
v -0.089092 -0.326759 -1.371521
v -0.116197 0.060317 -1.054238
v -0.116194 0.060317 -1.096610
v -0.132836 -0.040977 -1.096611
v -0.132838 -0.040977 -1.054240
v -0.024786 0.065392 1.035969
v -0.024684 0.065392 -1.034392
v -0.047759 -0.075062 -1.034393
v -0.047860 -0.075062 1.035967
v -0.089226 -0.326759 1.370724
v -0.047864 -0.075062 1.115655
v -0.024790 0.065392 1.115656
v -0.047754 -0.075062 -1.116450
v 0.016547 0.317089 1.370729
v -0.089092 -0.326759 -1.371521
v 0.016681 0.317088 -1.371517
v -0.024681 0.065392 -1.116449
v -0.047860 -0.075062 1.035967
v -0.047864 -0.075062 1.115655
v -0.132941 -0.040976 1.095808
v -0.132940 -0.040976 1.055805
v -0.024790 0.065392 1.115656
v -0.024786 0.065392 1.035969
v -0.116298 0.060318 1.055806
v -0.116302 0.060318 1.095810
v -0.047864 -0.075062 1.115655
v -0.024790 0.065392 1.115656
v -0.116302 0.060318 1.095810
v -0.132941 -0.040976 1.095808
v -0.024681 0.065392 -1.116449
v -0.047754 -0.075062 -1.116450
v -0.132836 -0.040977 -1.096611
v -0.116194 0.060317 -1.096610
v -0.047754 -0.075062 -1.116450
v -0.047759 -0.075062 -1.034393
v -0.132838 -0.040977 -1.054240
v -0.132836 -0.040977 -1.096611
v -0.024684 0.065392 -1.034392
v -0.024681 0.065392 -1.116449
v -0.116194 0.060317 -1.096610
v -0.116197 0.060317 -1.054238
v -0.047759 -0.075062 -1.034393
v -0.024684 0.065392 -1.034392
v -0.116197 0.060317 -1.054238
v -0.132838 -0.040977 -1.054240
v -0.024786 0.065392 1.035969
v -0.047860 -0.075062 1.035967
v -0.132940 -0.040976 1.055805
v -0.116298 0.060318 1.055806
v -0.089092 -0.326759 -1.371521
v 0.410907 -0.326759 -1.371497
v 0.410772 -0.326759 1.370747
v -0.089226 -0.326759 1.370724
vn 0.000000 0.000000 0.000000
vn -0.987737 0.156128 -0.000001
vn 0.000000 0.000000 0.000000
vn 0.000000 0.000000 0.000000
vn -0.987876 0.155243 -0.000002
vn 0.000000 0.000000 0.000000
vn 0.000000 1.000000 -0.000000
vn 0.000000 1.000000 -0.000000
vn 0.000000 1.000000 -0.000000
vn 0.000000 1.000000 -0.000000
vn -0.986772 0.162117 -0.000082
vn -0.986771 0.162123 -0.000096
vn -0.986774 0.162104 -0.000051
vn -0.986775 0.162098 -0.000037
vn 0.986773 0.162110 0.000049
vn 0.986773 0.162109 0.000048
vn 0.986773 0.162109 0.000048
vn 0.986773 0.162111 0.000049
vn -0.000048 -0.000000 1.000000
vn -0.000050 0.000000 1.000000
vn -0.000047 -0.000001 1.000000
vn -0.000046 -0.000002 1.000000
vn 0.000051 -0.000000 -1.000000
vn 0.000053 0.000001 -1.000000
vn 0.000050 -0.000001 -1.000000
vn 0.000049 -0.000002 -1.000000
vn -0.986771 0.162118 -0.000066
vn -0.986771 0.162121 -0.000073
vn -0.986772 0.162113 -0.000052
vn -0.986773 0.162110 -0.000045
vn -0.986773 0.162109 -0.000047
vn -0.986771 0.162118 -0.000049
vn -0.986784 0.162039 -0.000056
vn -0.986773 0.162110 -0.000048
vn -0.986773 0.162109 -0.000049
vn -0.986773 0.162110 -0.000048
vn -0.986774 0.162105 -0.000045
vn -0.986773 0.162107 -0.000048
vn -0.986773 0.162109 -0.000048
vn -0.986773 0.162111 -0.000047
vn -0.986773 0.162108 -0.000048
vn -0.986773 0.162106 -0.000052
vn -0.371899 -0.928273 -0.000015
vn -0.371899 -0.928273 -0.000015
vn -0.371899 -0.928273 -0.000014
vn -0.371899 -0.928273 -0.000014
vn -0.055363 0.998466 -0.000003
vn -0.055363 0.998466 -0.000003
vn -0.055362 0.998466 -0.000004
vn -0.055362 0.998466 -0.000005
vn -0.213675 0.035093 0.976274
vn -0.213669 0.035096 0.976276
vn -0.213673 0.035094 0.976275
vn -0.213681 0.035090 0.976273
vn -0.213597 0.035101 -0.976291
vn -0.213591 0.035094 -0.976293
vn -0.213595 0.035099 -0.976291
vn -0.213602 0.035107 -0.976290
vn -0.371893 -0.928276 -0.000021
vn -0.371893 -0.928276 -0.000022
vn -0.371892 -0.928276 -0.000019
vn -0.371891 -0.928276 -0.000017
vn -0.055362 0.998466 -0.000003
vn -0.055363 0.998466 -0.000002
vn -0.055362 0.998466 -0.000003
vn -0.055361 0.998466 -0.000004
vn -0.213673 0.035094 0.976275
vn -0.213665 0.035098 0.976276
vn -0.213671 0.035095 0.976275
vn -0.213681 0.035091 0.976273
vn -0.213581 0.035102 -0.976294
vn -0.213582 0.035102 -0.976294
vn -0.213582 0.035102 -0.976294
vn -0.213581 0.035102 -0.976295
vn -0.000000 -1.000000 0.000000
vn -0.000000 -1.000000 0.000000
vn -0.000000 -1.000000 0.000000
vn -0.000000 -1.000000 0.000000
f 1//1 2//2 3//3
f 4//4 5//5 6//6
f 7//7 8//8 9//9
f 10//10 7//7 9//9
f 11//11 12//12 13//13
f 14//14 11//11 13//13
f 15//15 16//16 17//17
f 18//18 15//15 17//17
f 19//19 20//20 21//21
f 22//22 19//19 21//21
f 23//23 24//24 25//25
f 26//26 23//23 25//25
f 27//27 28//28 29//29
f 30//30 27//27 29//29
f 31//31 32//32 33//33
f 34//34 31//31 33//33
f 33//33 35//35 36//36
f 36//36 35//35 37//37
f 35//35 33//33 38//38
f 35//35 39//39 37//37
f 31//31 37//37 39//39
f 38//38 40//40 35//35
f 31//31 39//39 41//41
f 41//41 40//40 38//38
f 31//31 41//41 42//42
f 42//42 41//41 38//38
f 43//43 44//44 45//45
f 46//46 43//43 45//45
f 47//47 48//48 49//49
f 50//50 47//47 49//49
f 51//51 52//52 53//53
f 54//54 51//51 53//53
f 55//55 56//56 57//57
f 58//58 55//55 57//57
f 59//59 60//60 61//61
f 62//62 59//59 61//61
f 63//63 64//64 65//65
f 66//66 63//63 65//65
f 67//67 68//68 69//69
f 70//70 67//67 69//69
f 71//71 72//72 73//73
f 74//74 71//71 73//73
f 75//75 76//76 77//77
f 78//78 75//75 77//77
