# Exported from Blender
v 0.250000 -2.500000 1.000000
v -0.250000 -2.500000 1.000000
v -1.000000 -2.500000 0.500001
v 1.000000 -2.500000 0.500001
v -1.000000 -2.500000 0.125001
v 1.000000 -2.500000 0.125001
v -0.250000 -1.700000 -1.000000
v -0.250000 -2.500000 -1.000000
v -1.000000 -2.500000 -0.499999
v -1.000000 -2.200000 -0.499999
v -0.250000 -1.700000 -1.000000
v -1.000000 -2.200000 -0.499999
v -1.000000 -2.200000 0.500001
v -0.250000 -1.700000 1.000000
v 0.250000 2.500000 -1.000000
v -0.250000 2.500000 -1.000000
v -0.250000 2.500000 1.000000
v 0.250000 2.500000 1.000000
v -1.000000 -2.200000 0.500001
v -1.000000 -2.500000 0.500001
v -0.250000 -2.500000 1.000000
v -0.250000 -1.700000 1.000000
v 1.000000 -2.500000 -0.124999
v 1.000000 -2.500000 -0.499999
v 1.000000 -2.200000 -0.499999
v 1.000000 -2.400000 0.000001
v 1.000000 -2.200000 0.500001
v 1.000000 -2.500000 0.500001
v 1.000000 -2.500000 0.125001
v -0.250000 -1.700000 -1.000000
v -0.250000 2.500000 -1.000000
v 0.250000 2.500000 -1.000000
v -0.250000 -2.500000 -1.000000
v 0.250000 -2.500000 -1.000000
v 0.250000 -1.700000 -1.000000
v 1.000000 -2.200000 -0.499999
v 0.250000 -1.700000 -1.000000
v 0.250000 -1.700000 1.000000
v 1.000000 -2.200000 0.500001
v 1.000000 -2.200000 -0.499999
v 1.000000 -2.500000 -0.499999
v 0.250000 -2.500000 -1.000000
v 0.250000 -1.700000 -1.000000
v 0.250000 -1.700000 1.000000
v 0.250000 -2.500000 1.000000
v 1.000000 -2.500000 0.500001
v 1.000000 -2.200000 0.500001
v -1.000000 -2.500000 -0.124999
v 1.000000 -2.500000 -0.124999
v 1.000000 -2.400000 0.000001
v -1.000000 -2.400000 0.000001
v -1.000000 -2.500000 0.125001
v -1.000000 -2.500000 0.500001
v -1.000000 -2.200000 0.500001
v -1.000000 -2.400000 0.000001
v -1.000000 -2.200000 -0.499999
v -1.000000 -2.500000 -0.499999
v -1.000000 -2.500000 -0.124999
v -0.250000 2.500000 1.000000
v -0.250000 2.500000 -1.000000
v -0.250000 -1.700000 -1.000000
v -0.250000 -1.700000 1.000000
v 0.250000 2.500000 -1.000000
v 0.250000 2.500000 1.000000
v 0.250000 -1.700000 1.000000
v 0.250000 -1.700000 -1.000000
v 1.000000 -2.500000 -0.124999
v -1.000000 -2.500000 -0.124999
v -1.000000 -2.500000 -0.499999
v 1.000000 -2.500000 -0.499999
v -0.250000 -2.500000 -1.000000
v 0.250000 -2.500000 -1.000000
v -1.000000 -2.400000 0.000001
v 1.000000 -2.400000 0.000001
v 1.000000 -2.500000 0.125001
v -1.000000 -2.500000 0.125001
v 0.010000 2.497438 0.449999
v 0.010000 2.550471 0.464644
v -0.000000 2.539864 0.471715
v -0.000000 2.497438 0.459999
v -0.000000 2.561078 0.457573
v -0.000000 2.587438 0.499999
v 0.010000 2.572438 0.499999
v 0.010000 2.550471 0.464644
v -0.000000 2.539864 0.471715
v -0.000000 2.557437 0.499999
v -0.010000 2.572438 0.499999
v -0.010000 2.550471 0.464644
v -0.000000 2.497438 0.459999
v -0.000000 2.539864 0.471715
v -0.010000 2.550471 0.464644
v -0.010000 2.497438 0.449999
v -0.000000 2.587438 0.499999
v -0.000000 2.561078 0.542426
v 0.010000 2.550471 0.535355
v 0.010000 2.572438 0.499999
v -0.000000 2.557437 0.499999
v -0.000000 2.539864 0.528284
v -0.010000 2.550471 0.535355
v -0.010000 2.572438 0.499999
v -0.010000 2.572438 0.499999
v -0.010000 2.550471 0.535355
v -0.000000 2.561078 0.542426
v -0.000000 2.587438 0.499999
v 0.010000 2.572438 0.499999
v 0.010000 2.550471 0.535355
v -0.000000 2.539864 0.528284
v -0.000000 2.557437 0.499999
v 0.010000 2.550471 0.535355
v 0.010000 2.497438 0.549999
v -0.000000 2.497438 0.539999
v -0.000000 2.539864 0.528284
v -0.000000 2.539864 0.528284
v -0.000000 2.497438 0.539999
v -0.010000 2.497438 0.549999
v -0.010000 2.550471 0.535355
v -0.010000 2.550471 0.535355
v -0.010000 2.497438 0.549999
v -0.000000 2.497438 0.559999
v -0.000000 2.561078 0.542426
v -0.000000 2.561078 0.542426
v -0.000000 2.497438 0.559999
v 0.010000 2.497438 0.549999
v 0.010000 2.550471 0.535355
v -0.000000 2.497438 0.439999
v -0.000000 2.561078 0.457573
v 0.010000 2.550471 0.464644
v 0.010000 2.497438 0.449999
v 0.010000 2.550471 0.464644
v 0.010000 2.572438 0.499999
v -0.000000 2.557437 0.499999
v -0.000000 2.539864 0.471715
v -0.010000 2.550471 0.464644
v -0.010000 2.572438 0.499999
v -0.000000 2.587438 0.499999
v -0.000000 2.561078 0.457573
v -0.010000 2.497438 0.449999
v -0.010000 2.550471 0.464644
v -0.000000 2.561078 0.457573
v -0.000000 2.497438 0.439999
v 0.010000 2.497438 -0.550001
v 0.010000 2.550471 -0.535356
v -0.000000 2.539864 -0.528285
v -0.000000 2.497438 -0.540001
v -0.010000 2.550471 -0.535356
v -0.010000 2.572438 -0.500001
v -0.000000 2.587438 -0.500001
v -0.000000 2.561078 -0.542427
v -0.010000 2.550471 -0.464645
v -0.010000 2.497438 -0.450001
v -0.000000 2.497438 -0.440001
v -0.000000 2.561078 -0.457574
v -0.000000 2.561078 -0.542427
v -0.000000 2.587438 -0.500001
v 0.010000 2.572438 -0.500001
v 0.010000 2.550471 -0.535356
v 0.010000 2.550471 -0.535356
v 0.010000 2.572438 -0.500001
v -0.000000 2.557437 -0.500001
v -0.000000 2.539864 -0.528285
v -0.000000 2.561078 -0.457574
v -0.000000 2.497438 -0.440001
v 0.010000 2.497438 -0.450001
v 0.010000 2.550471 -0.464645
v 0.010000 2.550471 -0.464645
v 0.010000 2.497438 -0.450001
v -0.000000 2.497438 -0.460001
v -0.000000 2.539864 -0.471716
v -0.000000 2.497438 -0.560001
v -0.000000 2.561078 -0.542427
v 0.010000 2.550471 -0.535356
v 0.010000 2.497438 -0.550001
v -0.010000 2.572438 -0.500001
v -0.010000 2.550471 -0.464645
v -0.000000 2.561078 -0.457574
v -0.000000 2.587438 -0.500001
v -0.000000 2.557437 -0.500001
v -0.000000 2.539864 -0.471716
v -0.010000 2.550471 -0.464645
v -0.010000 2.572438 -0.500001
v -0.000000 2.587438 -0.500001
v -0.000000 2.561078 -0.457574
v 0.010000 2.550471 -0.464645
v 0.010000 2.572438 -0.500001
v 0.010000 2.572438 -0.500001
v 0.010000 2.550471 -0.464645
v -0.000000 2.539864 -0.471716
v -0.000000 2.557437 -0.500001
v -0.000000 2.497438 -0.540001
v -0.000000 2.539864 -0.528285
v -0.010000 2.550471 -0.535356
v -0.010000 2.497438 -0.550001
v -0.010000 2.497438 -0.550001
v -0.010000 2.550471 -0.535356
v -0.000000 2.561078 -0.542427
v -0.000000 2.497438 -0.560001
v -0.000000 2.539864 -0.471716
v -0.000000 2.497438 -0.460001
v -0.010000 2.497438 -0.450001
v -0.010000 2.550471 -0.464645
v -0.000000 2.539864 -0.528285
v -0.000000 2.557437 -0.500001
v -0.010000 2.572438 -0.500001
v -0.010000 2.550471 -0.535356
v -0.250000 -1.700000 1.000000
v -0.250000 -2.500000 1.000000
v 0.250000 -2.500000 1.000000
v -0.250000 2.500000 1.000000
v 0.250000 2.500000 1.000000
v 0.250000 -1.700000 1.000000
vn 0.000000 -1.000000 0.000000
vn 0.000000 -1.000000 0.000000
vn 0.000000 -1.000000 0.000000
vn 0.000000 -1.000000 0.000000
vn 0.000000 -1.000000 0.000000
vn 0.000000 -1.000000 0.000000
vn -0.554700 -0.000000 -0.832050
vn -0.554700 -0.000000 -0.832050
vn -0.554701 -0.000000 -0.832050
vn -0.554701 -0.000000 -0.832050
vn -0.554700 0.832050 -0.000000
vn -0.554700 0.832050 0.000000
vn -0.554700 0.832050 -0.000000
vn -0.554700 0.832050 -0.000000
vn 0.000000 1.000000 0.000000
vn 0.000000 1.000000 0.000000
vn 0.000000 1.000000 0.000000
vn 0.000000 1.000000 0.000000
vn -0.554700 0.000000 0.832051
vn -0.554700 0.000000 0.832051
vn -0.554700 0.000000 0.832050
vn -0.554700 0.000000 0.832050
vn 1.000000 0.000000 0.000000
vn 1.000000 0.000000 0.000000
vn 1.000000 0.000000 0.000000
vn 1.000000 0.000000 0.000000
vn 1.000000 0.000000 0.000000
vn 1.000000 0.000000 0.000000
vn 1.000000 0.000000 0.000000
vn -0.000001 -0.000000 -1.000000
vn 0.000000 -0.000000 -1.000000
vn -0.000000 -0.000000 -1.000000
vn -0.000000 -0.000000 -1.000000
vn 0.000000 -0.000000 -1.000000
vn 0.148341 0.000048 0.988936
vn 0.554700 0.832050 -0.000000
vn 0.554700 0.832050 -0.000000
vn 0.554700 0.832050 -0.000000
vn 0.554700 0.832050 0.000000
vn 0.554700 0.000000 -0.832050
vn 0.554700 0.000000 -0.832050
vn 0.554700 0.000000 -0.832050
vn 0.554700 0.000000 -0.832050
vn 0.554700 0.000000 0.832050
vn 0.554700 0.000000 0.832050
vn 0.554700 0.000000 0.832051
vn 0.554700 0.000000 0.832051
vn 0.000000 -0.780868 0.624697
vn 0.000000 -0.780868 0.624697
vn 0.000000 -0.780868 0.624697
vn 0.000000 -0.780868 0.624697
vn -1.000000 0.000000 0.000000
vn -1.000000 0.000000 0.000000
vn -1.000000 0.000000 0.000000
vn -1.000000 -0.000000 0.000000
vn -1.000000 -0.000000 0.000000
vn -1.000000 -0.000000 0.000000
vn -1.000000 0.000000 0.000000
vn -1.000000 -0.000000 0.000000
vn -1.000000 -0.000000 0.000000
vn -1.000000 -0.000000 0.000000
vn -1.000000 -0.000000 0.000000
vn 1.000000 0.000000 -0.000000
vn 1.000000 0.000000 0.000000
vn 1.000000 0.000000 -0.000000
vn 1.000000 0.000000 -0.000000
vn 0.000000 -1.000000 0.000000
vn 0.000000 -1.000000 0.000000
vn 0.000000 -1.000000 0.000000
vn 0.000000 -1.000000 0.000000
vn 0.000000 -1.000000 0.000000
vn 0.000000 -1.000000 0.000000
vn 0.000000 -0.780868 -0.624696
vn 0.000000 -0.780868 -0.624696
vn 0.000000 -0.780868 -0.624696
vn 0.000000 -0.780868 -0.624696
vn 0.693998 -0.191642 0.694003
vn 0.694001 -0.191643 0.694000
vn 0.694000 -0.191643 0.694000
vn 0.693998 -0.191641 0.694004
vn 0.786648 0.524422 -0.325833
vn 0.786640 0.524431 -0.325837
vn 0.786642 0.524429 -0.325836
vn 0.786650 0.524419 -0.325831
vn -0.786644 -0.524427 0.325835
vn -0.786650 -0.524421 0.325828
vn -0.786647 -0.524424 0.325831
vn -0.786641 -0.524429 0.325837
vn -0.694000 -0.191643 0.694000
vn -0.694001 -0.191642 0.694000
vn -0.694001 -0.191642 0.694000
vn -0.694000 -0.191644 0.694000
vn 0.786641 0.524428 0.325839
vn 0.786651 0.524421 0.325826
vn 0.786648 0.524423 0.325829
vn 0.786637 0.524431 0.325844
vn -0.786645 -0.524424 -0.325836
vn -0.786641 -0.524434 -0.325829
vn -0.786643 -0.524430 -0.325832
vn -0.786646 -0.524421 -0.325837
vn -0.786642 0.524430 0.325833
vn -0.786651 0.524419 0.325830
vn -0.786648 0.524422 0.325831
vn -0.786641 0.524432 0.325833
vn 0.786645 -0.524424 -0.325836
vn 0.786639 -0.524431 -0.325838
vn 0.786641 -0.524429 -0.325837
vn 0.786648 -0.524421 -0.325835
vn 0.693998 -0.191642 -0.694003
vn 0.694001 -0.191642 -0.694001
vn 0.694000 -0.191642 -0.694001
vn 0.693997 -0.191642 -0.694004
vn -0.694002 -0.191642 -0.693999
vn -0.693998 -0.191642 -0.694004
vn -0.693999 -0.191642 -0.694002
vn -0.694003 -0.191642 -0.693998
vn -0.694002 0.191642 0.693999
vn -0.694000 0.191643 0.694000
vn -0.694001 0.191643 0.694000
vn -0.694003 0.191642 0.693998
vn 0.694001 0.191642 0.693999
vn 0.693997 0.191641 0.694005
vn 0.693997 0.191641 0.694004
vn 0.694003 0.191642 0.693998
vn 0.693997 0.191643 -0.694004
vn 0.694005 0.191640 -0.693996
vn 0.694004 0.191641 -0.693997
vn 0.693995 0.191644 -0.694005
vn 0.786642 -0.524428 0.325836
vn 0.786648 -0.524419 0.325837
vn 0.786646 -0.524422 0.325837
vn 0.786640 -0.524432 0.325835
vn -0.786649 0.524424 -0.325827
vn -0.786638 0.524429 -0.325843
vn -0.786642 0.524427 -0.325838
vn -0.786652 0.524423 -0.325823
vn -0.694003 0.191642 -0.693998
vn -0.694003 0.191643 -0.693997
vn -0.694003 0.191643 -0.693998
vn -0.694003 0.191642 -0.693999
vn 0.693996 -0.191643 0.694004
vn 0.694004 -0.191643 0.693997
vn 0.694003 -0.191643 0.693998
vn 0.693994 -0.191643 0.694007
vn -0.786649 0.524424 -0.325827
vn -0.786638 0.524430 -0.325843
vn -0.786642 0.524428 -0.325837
vn -0.786652 0.524422 -0.325823
vn -0.694002 0.191642 0.693999
vn -0.693998 0.191644 0.694003
vn -0.693999 0.191644 0.694002
vn -0.694003 0.191642 0.693999
vn 0.786648 0.524422 -0.325833
vn 0.786640 0.524431 -0.325837
vn 0.786642 0.524429 -0.325836
vn 0.786650 0.524419 -0.325831
vn 0.786643 -0.524428 0.325835
vn 0.786648 -0.524419 0.325837
vn 0.786646 -0.524422 0.325836
vn 0.786641 -0.524431 0.325835
vn 0.694003 0.191642 0.693998
vn 0.693992 0.191642 0.694009
vn 0.693994 0.191642 0.694007
vn 0.694005 0.191642 0.693996
vn 0.693998 -0.191643 -0.694003
vn 0.694000 -0.191642 -0.694000
vn 0.694000 -0.191642 -0.694001
vn 0.693997 -0.191643 -0.694003
vn 0.693997 0.191643 -0.694004
vn 0.694004 0.191641 -0.693998
vn 0.694003 0.191641 -0.693998
vn 0.693995 0.191644 -0.694005
vn -0.786642 0.524430 0.325833
vn -0.786650 0.524419 0.325831
vn -0.786648 0.524422 0.325832
vn -0.786641 0.524432 0.325833
vn -0.786646 -0.524422 -0.325835
vn -0.786642 -0.524433 -0.325829
vn -0.786644 -0.524429 -0.325831
vn -0.786648 -0.524419 -0.325837
vn 0.786641 0.524428 0.325839
vn 0.786649 0.524423 0.325827
vn 0.786647 0.524424 0.325830
vn 0.786638 0.524430 0.325844
vn 0.786646 -0.524423 -0.325835
vn 0.786642 -0.524428 -0.325837
vn 0.786644 -0.524426 -0.325836
vn 0.786648 -0.524420 -0.325835
vn -0.694001 -0.191644 0.694000
vn -0.694002 -0.191642 0.693999
vn -0.694002 -0.191643 0.693999
vn -0.694000 -0.191644 0.694000
vn -0.694001 0.191643 -0.694000
vn -0.694004 0.191643 -0.693997
vn -0.694003 0.191643 -0.693998
vn -0.694000 0.191643 -0.694000
vn -0.694000 -0.191644 -0.694000
vn -0.694000 -0.191642 -0.694000
vn -0.694000 -0.191643 -0.694000
vn -0.694000 -0.191644 -0.694000
vn -0.786643 -0.524427 0.325835
vn -0.786650 -0.524421 0.325828
vn -0.786647 -0.524423 0.325831
vn -0.786641 -0.524429 0.325837
vn 0.000000 0.000000 1.000000
vn 0.000000 0.000000 1.000000
vn 0.000000 0.000000 1.000000
vn 0.000000 0.000000 1.000000
vn 0.000000 0.000000 1.000000
vn -0.999298 0.000000 0.037474
f 1//1 2//2 3//3
f 3//3 4//4 1//1
f 3//3 5//5 4//4
f 5//5 6//6 4//4
f 7//7 8//8 9//9
f 10//10 7//7 9//9
f 11//11 12//12 13//13
f 14//14 11//11 13//13
f 15//15 16//16 17//17
f 18//18 15//15 17//17
f 19//19 20//20 21//21
f 22//22 19//19 21//21
f 23//23 24//24 25//25
f 25//25 26//26 23//23
f 26//26 25//25 27//27
f 26//26 27//27 28//28
f 28//28 29//29 26//26
f 30//30 31//31 32//32
f 32//32 33//33 30//30
f 32//32 34//34 33//33
f 32//32 35//35 34//34
f 36//36 37//37 38//38
f 39//39 36//36 38//38
f 40//40 41//41 42//42
f 43//43 40//40 42//42
f 44//44 45//45 46//46
f 47//47 44//44 46//46
f 48//48 49//49 50//50
f 51//51 48//48 50//50
f 52//52 53//53 54//54
f 54//54 55//55 52//52
f 55//55 54//54 56//56
f 55//55 56//56 57//57
f 57//57 58//58 55//55
f 59//59 60//60 61//61
f 62//62 59//59 61//61
f 63//63 64//64 65//65
f 66//66 63//63 65//65
f 67//67 68//68 69//69
f 69//69 70//70 67//67
f 69//69 71//71 70//70
f 71//71 72//72 70//70
f 73//73 74//74 75//75
f 76//76 73//73 75//75
f 77//77 78//78 79//79
f 80//80 77//77 79//79
f 81//81 82//82 83//83
f 84//84 81//81 83//83
f 85//85 86//86 87//87
f 88//88 85//85 87//87
f 89//89 90//90 91//91
f 92//92 89//89 91//91
f 93//93 94//94 95//95
f 96//96 93//93 95//95
f 97//97 98//98 99//99
f 100//100 97//97 99//99
f 101//101 102//102 103//103
f 104//104 101//101 103//103
f 105//105 106//106 107//107
f 108//108 105//105 107//107
f 109//109 110//110 111//111
f 112//112 109//109 111//111
f 113//113 114//114 115//115
f 116//116 113//113 115//115
f 117//117 118//118 119//119
f 120//120 117//117 119//119
f 121//121 122//122 123//123
f 124//124 121//121 123//123
f 125//125 126//126 127//127
f 128//128 125//125 127//127
f 129//129 130//130 131//131
f 132//132 129//129 131//131
f 133//133 134//134 135//135
f 136//136 133//133 135//135
f 137//137 138//138 139//139
f 140//140 137//137 139//139
f 141//141 142//142 143//143
f 144//144 141//141 143//143
f 145//145 146//146 147//147
f 148//148 145//145 147//147
f 149//149 150//150 151//151
f 152//152 149//149 151//151
f 153//153 154//154 155//155
f 156//156 153//153 155//155
f 157//157 158//158 159//159
f 160//160 157//157 159//159
f 161//161 162//162 163//163
f 164//164 161//161 163//163
f 165//165 166//166 167//167
f 168//168 165//165 167//167
f 169//169 170//170 171//171
f 172//172 169//169 171//171
f 173//173 174//174 175//175
f 176//176 173//173 175//175
f 177//177 178//178 179//179
f 180//180 177//177 179//179
f 181//181 182//182 183//183
f 184//184 181//181 183//183
f 185//185 186//186 187//187
f 188//188 185//185 187//187
f 189//189 190//190 191//191
f 192//192 189//189 191//191
f 193//193 194//194 195//195
f 196//196 193//193 195//195
f 197//197 198//198 199//199
f 200//200 197//197 199//199
f 201//201 202//202 203//203
f 204//204 201//201 203//203
f 205//205 206//206 207//207
f 207//207 208//208 205//205
f 207//207 209//209 208//208
f 207//207 210//210 209//209
