# Exported from Blender
v -0.150728 24.961102 36.102097
v 0.000002 -25.027514 37.527515
v -10.919163 24.966011 24.254986
v -9.738416 -25.032532 34.251030
v -11.843685 -25.029306 19.761189
v 0.772522 24.966011 14.108350
v -2.201206 -25.029308 12.254037
v 11.021376 24.962370 26.902521
v 10.399906 -25.030537 16.945389
v 0.047333 24.974129 35.445717
v 10.946157 -25.032532 32.779396
v 0.012388 -25.029600 37.644897
v -3.285686 24.972486 32.959850
v -1.675028 24.972486 33.448437
v -2.145211 -25.027514 35.812233
v -4.207987 -25.027514 35.186501
v 0.009058 24.972486 34.055897
v -6.300088 24.972486 31.327595
v -4.825421 24.972486 34.055229
v -9.355531 24.972486 28.902695
v -8.694387 24.972486 25.027510
v -9.999061 24.972486 24.042688
v -7.229120 24.972486 20.197168
v -8.419754 24.972486 19.401611
v -3.327199 24.972486 16.994946
v -4.736330 24.972486 16.166458
v 2.551280 24.972486 16.617062
v -0.000002 24.972486 14.901159
v 4.736326 24.972486 16.166458
v 7.229115 24.972486 20.197168
v 8.419749 24.972486 19.401611
v 8.694383 24.972486 25.027510
v 9.999056 24.972486 24.042688
v 6.300084 24.972486 31.327595
v 9.355526 24.972486 28.902695
v 4.825417 24.972486 34.055229
v -0.009063 24.972486 34.055897
v -4.027788 24.976454 32.562965
v -4.207987 -25.027514 35.186501
v -6.109049 -25.027514 34.170361
v -6.071152 24.972486 31.098660
v -4.770073 24.972486 32.166428
v -6.109049 -25.027514 34.170361
v -7.775346 -25.027514 32.802868
v -7.138919 24.972486 29.797581
v -6.071152 24.972486 31.098660
v -7.775346 -25.027514 32.802868
v -9.142840 -25.027514 31.136568
v -7.535469 24.976454 29.055300
v -9.142840 -25.027514 31.136568
v -10.158980 -25.027514 29.235506
v -8.420929 24.972486 26.702536
v -7.932342 24.972486 28.313192
v -10.158980 -25.027514 29.235506
v -10.784716 -25.027514 27.172729
v -8.585904 24.972486 25.027510
v -8.420929 24.972486 26.702536
v -10.784716 -25.027514 27.172729
v -10.996000 -25.027514 25.027517
v -8.420929 24.972486 23.352484
v -8.585904 24.972486 25.027510
v -10.996000 -25.027514 25.027517
v -10.784716 -25.027514 22.882303
v -7.932342 24.972486 21.741825
v -8.420929 24.972486 23.352484
v -10.784716 -25.027514 22.882303
v -10.158980 -25.027514 20.819529
v -7.535458 24.976454 20.999725
v -10.158980 -25.027514 20.819529
v -9.142840 -25.027514 18.918467
v -6.604905 24.976454 19.607006
v -9.142840 -25.027514 18.918467
v -7.775346 -25.027514 17.252169
v -4.770073 24.972486 17.888594
v -6.071152 24.972486 18.956360
v -7.775346 -25.027514 17.252169
v -6.109049 -25.027514 15.884674
v -4.027785 24.976454 17.492060
v -6.109049 -25.027514 15.884674
v -4.207987 -25.027514 14.868535
v -1.675029 24.972486 16.606583
v -3.285686 24.972486 17.095169
v -4.207987 -25.027514 14.868535
v -2.145211 -25.027514 14.242801
v -0.000002 24.972486 16.441608
v -1.675029 24.972486 16.606583
v -2.145211 -25.027514 14.242801
v 0.000002 -25.027514 14.031515
v 1.675024 24.972486 16.606583
v -0.000002 24.972486 16.441608
v 0.000002 -25.027514 14.031515
v 2.145216 -25.027514 14.242801
v 3.285681 24.972486 17.095169
v 1.675024 24.972486 16.606583
v 2.145216 -25.027514 14.242801
v 4.207991 -25.027514 14.868535
v 4.027790 24.976454 17.492043
v 4.207991 -25.027514 14.868535
v 6.109054 -25.027514 15.884674
v 6.071147 24.972486 18.956360
v 4.770069 24.972486 17.888594
v 6.109054 -25.027514 15.884674
v 7.775352 -25.027514 17.252169
v 6.604870 24.976452 19.607031
v 7.775352 -25.027514 17.252169
v 9.142845 -25.027514 18.918467
v 7.535462 24.976454 20.999720
v 9.142845 -25.027514 18.918467
v 10.158985 -25.027514 20.819529
v 8.420924 24.972486 23.352484
v 7.932337 24.972486 21.741825
v 10.158985 -25.027514 20.819529
v 10.784720 -25.027514 22.882303
v 8.585899 24.972486 25.027510
v 8.420924 24.972486 23.352484
v 10.784720 -25.027514 22.882303
v 10.996006 -25.027514 25.027517
v 8.503208 24.976454 25.865004
v 10.996006 -25.027514 25.027517
v 10.784720 -25.027514 27.172729
v 7.932337 24.972486 28.313192
v 8.420924 24.972486 26.702536
v 10.784720 -25.027514 27.172729
v 10.158985 -25.027514 29.235506
v 7.535449 24.976454 29.055292
v 10.158985 -25.027514 29.235506
v 9.142845 -25.027514 31.136568
v 6.071147 24.972486 31.098660
v 7.138915 24.972486 29.797581
v 9.142845 -25.027514 31.136568
v 7.775352 -25.027514 32.802868
v 4.770069 24.972486 32.166428
v 6.071147 24.972486 31.098660
v 7.775352 -25.027514 32.802868
v 6.109054 -25.027514 34.170361
v 4.027787 24.976454 32.562973
v 6.109054 -25.027514 34.170361
v 4.207991 -25.027514 35.186501
v 1.675025 24.972486 33.448437
v 3.285681 24.972486 32.959850
v 4.207991 -25.027514 35.186501
v 2.145216 -25.027514 35.812233
v -0.000002 24.972486 33.613411
v 1.675025 24.972486 33.448437
v 2.145216 -25.027514 35.812233
v 0.000002 -25.027514 36.023521
v -0.837494 24.976452 33.530712
v 0.000002 -25.027514 36.023521
v -2.145211 -25.027514 35.812233
v 3.645775 -25.027514 37.046017
v 6.186241 -25.027514 34.285881
v -2.469445 -25.027514 37.442234
v 0.000002 -25.027514 36.162453
v 9.743622 -25.027514 30.235580
v 9.891080 -25.027514 33.144913
v -9.891075 -25.027514 33.144913
v -6.186236 -25.027514 34.285881
v 11.134940 -25.027514 25.027517
v -9.743617 -25.027514 30.235580
v 12.657938 -25.027514 25.027517
v -12.657933 -25.027514 25.027517
v 8.700990 -25.027514 17.886803
v 11.076315 -25.027514 19.107105
v -11.134935 -25.027514 25.027517
v -9.891073 -25.027514 16.910118
v 3.207123 -25.027514 14.455082
v 6.031774 -25.027514 13.742870
v -8.700985 -25.027514 17.886803
v -2.172319 -25.027514 14.106536
v -2.469440 -25.027514 12.612802
vn -0.692714 0.106436 0.713315
vn -0.224534 0.026886 0.974095
vn -0.989946 0.122494 -0.070726
vn -0.763468 0.030085 0.645145
vn -0.919662 0.044051 -0.390233
vn 0.078085 0.122482 -0.989394
vn -0.167671 0.046497 -0.984746
vn 0.984420 0.125455 0.123200
vn 0.807601 0.018600 -0.589435
vn 0.583835 0.084190 0.807495
vn 0.839901 0.027450 0.542045
vn 0.406247 0.039865 0.912893
vn 0.289949 -0.047915 -0.955842
vn 0.289949 -0.047915 -0.955842
vn 0.289950 -0.047915 -0.955842
vn 0.289950 -0.047915 -0.955842
vn 0.000000 1.000000 -0.000001
vn 0.000000 1.000000 -0.000001
vn 0.000000 1.000000 -0.000001
vn 0.000000 1.000000 -0.000000
vn 0.000000 1.000000 -0.000000
vn 0.000000 1.000000 -0.000000
vn 0.000000 1.000000 -0.000001
vn 0.000000 1.000000 -0.000001
vn 0.000000 1.000000 0.000001
vn 0.000000 1.000000 0.000000
vn 0.000000 1.000000 -0.000000
vn 0.000000 1.000000 0.000001
vn 0.000000 1.000000 0.000003
vn 0.000000 1.000000 -0.000000
vn 0.000000 1.000000 -0.000000
vn 0.000000 1.000000 -0.000000
vn 0.000000 1.000000 -0.000000
vn 0.000000 1.000000 0.000002
vn 0.000000 1.000000 -0.000000
vn 0.000000 1.000000 -0.000000
vn 0.000000 1.000000 -0.000001
vn 0.470858 -0.047915 -0.880907
vn 0.470858 -0.047915 -0.880907
vn 0.470858 -0.047915 -0.880907
vn 0.633667 -0.047915 -0.772121
vn 0.633667 -0.047915 -0.772121
vn 0.633663 -0.047915 -0.772124
vn 0.633663 -0.047915 -0.772124
vn 0.772123 -0.047915 -0.633664
vn 0.772123 -0.047915 -0.633664
vn 0.772123 -0.047915 -0.633664
vn 0.772123 -0.047915 -0.633664
vn 0.880908 -0.047915 -0.470855
vn 0.880908 -0.047915 -0.470855
vn 0.880908 -0.047915 -0.470855
vn 0.955841 -0.047915 -0.289952
vn 0.955841 -0.047915 -0.289952
vn 0.955841 -0.047915 -0.289951
vn 0.955841 -0.047915 -0.289951
vn 0.994042 -0.047915 -0.097904
vn 0.994042 -0.047915 -0.097904
vn 0.994042 -0.047915 -0.097904
vn 0.994042 -0.047915 -0.097905
vn 0.994042 -0.047915 0.097904
vn 0.994042 -0.047915 0.097904
vn 0.994042 -0.047915 0.097904
vn 0.994042 -0.047915 0.097904
vn 0.955841 -0.047915 0.289952
vn 0.955841 -0.047915 0.289952
vn 0.955841 -0.047915 0.289951
vn 0.955841 -0.047915 0.289951
vn 0.880908 -0.047915 0.470856
vn 0.880908 -0.047915 0.470856
vn 0.880908 -0.047915 0.470856
vn 0.772123 -0.047914 0.633665
vn 0.772123 -0.047914 0.633665
vn 0.772123 -0.047914 0.633665
vn 0.633663 -0.047915 0.772124
vn 0.633663 -0.047915 0.772124
vn 0.633664 -0.047915 0.772123
vn 0.633664 -0.047915 0.772123
vn 0.470854 -0.047915 0.880909
vn 0.470854 -0.047915 0.880909
vn 0.470854 -0.047915 0.880909
vn 0.289951 -0.047915 0.955841
vn 0.289951 -0.047915 0.955841
vn 0.289950 -0.047915 0.955842
vn 0.289950 -0.047915 0.955842
vn 0.097905 -0.047915 0.994042
vn 0.097904 -0.047915 0.994042
vn 0.097905 -0.047915 0.994042
vn 0.097905 -0.047915 0.994042
vn -0.097905 -0.047915 0.994042
vn -0.097904 -0.047915 0.994042
vn -0.097905 -0.047915 0.994042
vn -0.097905 -0.047915 0.994042
vn -0.289951 -0.047915 0.955841
vn -0.289951 -0.047915 0.955841
vn -0.289950 -0.047915 0.955842
vn -0.289950 -0.047915 0.955842
vn -0.470856 -0.047915 0.880908
vn -0.470856 -0.047915 0.880908
vn -0.470856 -0.047915 0.880908
vn -0.633664 -0.047915 0.772123
vn -0.633664 -0.047915 0.772123
vn -0.633663 -0.047915 0.772124
vn -0.633663 -0.047915 0.772124
vn -0.772123 -0.047915 0.633664
vn -0.772123 -0.047915 0.633664
vn -0.772123 -0.047915 0.633664
vn -0.880908 -0.047915 0.470855
vn -0.880908 -0.047915 0.470855
vn -0.880908 -0.047915 0.470855
vn -0.955841 -0.047915 0.289952
vn -0.955841 -0.047915 0.289952
vn -0.955841 -0.047915 0.289951
vn -0.955841 -0.047915 0.289951
vn -0.994042 -0.047915 0.097904
vn -0.994042 -0.047915 0.097904
vn -0.994042 -0.047915 0.097905
vn -0.994042 -0.047915 0.097905
vn -0.994042 -0.047915 -0.097905
vn -0.994042 -0.047915 -0.097905
vn -0.994042 -0.047915 -0.097905
vn -0.955841 -0.047915 -0.289952
vn -0.955841 -0.047915 -0.289952
vn -0.955841 -0.047915 -0.289951
vn -0.955841 -0.047915 -0.289951
vn -0.880908 -0.047915 -0.470856
vn -0.880908 -0.047915 -0.470856
vn -0.880908 -0.047915 -0.470856
vn -0.772123 -0.047915 -0.633664
vn -0.772123 -0.047915 -0.633664
vn -0.772123 -0.047915 -0.633664
vn -0.772123 -0.047915 -0.633664
vn -0.633665 -0.047915 -0.772122
vn -0.633665 -0.047915 -0.772122
vn -0.633665 -0.047915 -0.772123
vn -0.633665 -0.047915 -0.772123
vn -0.470854 -0.047915 -0.880909
vn -0.470854 -0.047915 -0.880909
vn -0.470854 -0.047915 -0.880909
vn -0.289949 -0.047915 -0.955842
vn -0.289949 -0.047915 -0.955842
vn -0.289950 -0.047915 -0.955842
vn -0.289950 -0.047915 -0.955842
vn -0.097907 -0.047915 -0.994041
vn -0.097907 -0.047915 -0.994041
vn -0.097906 -0.047915 -0.994041
vn -0.097906 -0.047915 -0.994042
vn 0.097908 -0.047915 -0.994041
vn 0.097908 -0.047915 -0.994041
vn 0.097908 -0.047915 -0.994041
vn 0.000000 -1.000000 -0.000002
vn 0.000000 -1.000000 -0.000001
vn 0.000000 -1.000000 0.000000
vn 0.000000 -1.000000 -0.000000
vn 0.000000 -1.000000 -0.000000
vn 0.000000 -1.000000 -0.000000
vn 0.000000 -1.000000 0.000000
vn 0.000000 -1.000000 0.000000
vn 0.000000 -1.000000 0.000000
vn 0.000000 -1.000000 0.000000
vn 0.000000 -1.000000 -0.000000
vn 0.000000 -1.000000 -0.000000
vn 0.000000 -1.000000 0.000001
vn 0.000000 -1.000000 0.000000
vn 0.000000 -1.000000 -0.000000
vn 0.000000 -1.000000 -0.000000
vn 0.000000 -1.000000 -0.000000
vn 0.000000 -1.000000 -0.000001
vn 0.000000 -1.000000 0.000000
vn 0.000000 -1.000000 -0.000000
vn 0.000000 -1.000000 -0.000000
f 1//1 4//4 2//2
f 1//1 3//3 4//4
f 3//3 5//5 4//4
f 3//3 6//6 5//5
f 6//6 7//7 5//5
f 6//6 9//9 7//7
f 6//6 8//8 9//9
f 8//8 11//11 9//9
f 8//8 10//10 11//11
f 10//10 12//12 11//11
f 13//13 14//14 15//15
f 16//16 13//13 15//15
f 18//18 19//19 17//17
f 20//20 19//19 18//18
f 21//21 20//20 18//18
f 22//22 20//20 21//21
f 24//24 22//22 21//21
f 23//23 24//24 21//21
f 26//26 24//24 23//23
f 25//25 26//26 23//23
f 28//28 26//26 25//25
f 27//27 28//28 25//25
f 29//29 28//28 27//27
f 31//31 29//29 27//27
f 30//30 31//31 27//27
f 33//33 31//31 30//30
f 32//32 33//33 30//30
f 35//35 33//33 32//32
f 34//34 35//35 32//32
f 36//36 35//35 34//34
f 37//37 36//36 34//34
f 40//40 38//38 39//39
f 41//41 42//42 43//43
f 44//44 41//41 43//43
f 45//45 46//46 47//47
f 48//48 45//45 47//47
f 51//51 49//49 50//50
f 52//52 53//53 54//54
f 55//55 52//52 54//54
f 56//56 57//57 58//58
f 59//59 56//56 58//58
f 60//60 61//61 62//62
f 63//63 60//60 62//62
f 64//64 65//65 66//66
f 67//67 64//64 66//66
f 70//70 68//68 69//69
f 73//73 71//71 72//72
f 74//74 75//75 76//76
f 77//77 74//74 76//76
f 80//80 78//78 79//79
f 81//81 82//82 83//83
f 84//84 81//81 83//83
f 85//85 86//86 87//87
f 88//88 85//85 87//87
f 89//89 90//90 91//91
f 92//92 89//89 91//91
f 93//93 94//94 95//95
f 96//96 93//93 95//95
f 99//99 97//97 98//98
f 100//100 101//101 102//102
f 103//103 100//100 102//102
f 106//106 104//104 105//105
f 109//109 107//107 108//108
f 110//110 111//111 112//112
f 113//113 110//110 112//112
f 114//114 115//115 116//116
f 117//117 114//114 116//116
f 120//120 118//118 119//119
f 121//121 122//122 123//123
f 124//124 121//121 123//123
f 127//127 125//125 126//126
f 128//128 129//129 130//130
f 131//131 128//128 130//130
f 132//132 133//133 134//134
f 135//135 132//132 134//134
f 138//138 136//136 137//137
f 139//139 140//140 141//141
f 142//142 139//139 141//141
f 143//143 144//144 145//145
f 146//146 143//143 145//145
f 149//149 147//147 148//148
f 151//151 150//150 153//153
f 155//155 150//150 151//151
f 150//150 152//152 153//153
f 153//153 152//152 157//157
f 154//154 155//155 151//151
f 152//152 156//156 157//157
f 160//160 155//155 154//154
f 158//158 160//160 154//154
f 157//157 156//156 159//159
f 159//159 156//156 164//164
f 163//163 160//160 158//158
f 156//156 161//161 164//164
f 162//162 163//163 158//158
f 167//167 163//163 162//162
f 164//164 161//161 168//168
f 161//161 165//165 168//168
f 166//166 167//167 162//162
f 170//170 167//167 166//166
f 169//169 170//170 166//166
f 168//168 165//165 169//169
f 165//165 170//170 169//169
