# Exported from Blender
v -0.048781 25.003511 37.858631
v -11.485818 25.002197 31.312561
v -0.426610 -25.047068 47.082859
v -19.629421 -24.988523 30.690392
v -7.762472 24.944113 13.709823
v -14.856243 -25.027113 9.724019
v 9.032449 25.009745 15.723357
v 8.154935 -24.995514 5.960964
v 12.363317 24.989994 29.910612
v 21.293623 -25.027107 25.265213
v 0.063518 25.021978 37.983852
v 0.366384 -25.094601 46.748642
v -4.207991 25.018505 35.140472
v -2.145216 25.018505 35.766212
v -3.607753 -24.981489 43.118908
v -7.076864 -24.981489 42.066566
v -0.054935 25.018505 36.107460
v -0.354857 25.018507 37.862671
v -7.140713 25.018505 33.682480
v -8.950514 25.018505 33.932003
v -10.920985 25.018505 27.153818
v -12.414719 25.018505 27.450928
v -10.287347 25.018505 20.720341
v -12.018500 25.018505 21.335724
v -5.306023 25.018505 15.054601
v -8.117400 25.018505 15.090416
v -1.231035 25.018503 12.482671
v 4.366664 25.018505 14.439425
v 4.843977 25.018505 13.287084
v 10.287342 25.018505 20.720341
v 11.284642 25.018505 18.949718
v 10.920980 25.018505 27.153820
v 12.414714 25.018505 27.450926
v 7.140708 25.018505 33.682480
v 8.950513 25.018505 33.931999
v 0.054931 25.018505 36.107460
v 0.354853 25.018507 37.862671
v -5.157428 25.033991 34.630356
v -7.076864 -24.981489 42.066566
v -10.274013 -24.981493 40.357651
v -7.775350 25.018505 32.756840
v -6.109054 25.018505 34.124336
v -10.274013 -24.981493 40.357651
v -13.076342 -24.981493 38.057842
v -9.142845 25.018505 31.090542
v -7.775350 25.018505 32.756840
v -13.076342 -24.981493 38.057842
v -15.376151 -24.981497 35.255516
v -9.648870 25.033991 30.138918
v -15.376151 -24.981497 35.255516
v -17.085064 -24.981497 32.058365
v -10.784722 25.018505 27.126705
v -10.158985 25.018505 29.189480
v -17.085064 -24.981497 32.058365
v -18.137407 -24.981497 28.589252
v -10.888106 25.033998 26.053875
v -18.137407 -24.981497 28.589252
v -18.492741 -24.981497 24.981499
v -10.888024 25.033985 23.909115
v -18.492741 -24.981497 24.981499
v -18.137407 -24.981497 21.373743
v -10.158985 25.018505 20.773502
v -10.784722 25.018505 22.836277
v -18.137407 -24.981497 21.373743
v -17.085064 -24.981497 17.904631
v -9.648876 25.033993 19.824060
v -17.085064 -24.981497 17.904631
v -15.376151 -24.981497 14.707484
v -8.457333 25.033998 18.040741
v -15.376151 -24.981497 14.707484
v -13.076342 -24.981497 11.905156
v -6.109054 25.018505 15.838648
v -7.775350 25.018505 17.206142
v -13.076342 -24.981497 11.905156
v -10.274013 -24.981497 9.605347
v -5.157438 25.033993 15.332608
v -10.274013 -24.981497 9.605347
v -7.076864 -24.981499 7.896433
v -2.145216 25.018505 14.196770
v -4.207991 25.018505 14.822507
v -7.076864 -24.981499 7.896433
v -3.607753 -24.981499 6.844091
v -1.072388 25.034002 14.093368
v -3.607753 -24.981499 6.844091
v 0.000002 -24.981499 6.488758
v 1.072373 25.033983 14.093485
v 0.000002 -24.981499 6.488758
v 3.607757 -24.981499 6.844091
v 4.207988 25.018505 14.822507
v 2.145212 25.018505 14.196770
v 3.607757 -24.981499 6.844091
v 7.076869 -24.981499 7.896433
v 5.157430 25.033993 15.332615
v 7.076869 -24.981499 7.896433
v 10.274017 -24.981497 9.605347
v 7.775345 25.018505 17.206142
v 6.109049 25.018505 15.838648
v 10.274017 -24.981497 9.605347
v 13.076346 -24.981497 11.905156
v 8.457286 25.033989 18.040773
v 13.076346 -24.981497 11.905156
v 15.376156 -24.981491 14.707484
v 9.648869 25.033993 19.824062
v 15.376156 -24.981491 14.707484
v 17.085068 -24.981491 17.904631
v 10.784718 25.018505 22.836277
v 10.158980 25.018505 20.773502
v 17.085068 -24.981491 17.904631
v 18.137411 -24.981491 21.373743
v 10.888101 25.033998 23.909107
v 18.137411 -24.981491 21.373743
v 18.492744 -24.981491 24.981499
v 10.888019 25.033985 26.053867
v 18.492744 -24.981491 24.981499
v 18.137411 -24.981491 28.589252
v 10.158980 25.018505 29.189480
v 10.784718 25.018505 27.126705
v 18.137411 -24.981491 28.589252
v 17.085068 -24.981491 32.058365
v 9.648889 25.033997 30.138931
v 17.085068 -24.981491 32.058365
v 15.376156 -24.981491 35.255516
v 7.775345 25.018505 32.756840
v 9.142840 25.018505 31.090542
v 15.376156 -24.981491 35.255516
v 13.076346 -24.981493 38.057842
v 6.109049 25.018505 34.124336
v 7.775345 25.018505 32.756840
v 13.076346 -24.981493 38.057842
v 10.274017 -24.981493 40.357651
v 5.157430 25.033993 34.630371
v 10.274017 -24.981493 40.357651
v 7.076869 -24.981489 42.066566
v 2.145212 25.018505 35.766212
v 4.207988 25.018505 35.140472
v 7.076869 -24.981489 42.066566
v 3.607757 -24.981489 43.118908
v 1.072383 25.034000 35.869595
v 3.607757 -24.981489 43.118908
v 0.000002 -24.981489 43.474243
v -1.072378 25.033985 35.869514
v 0.000002 -24.981489 43.474243
v -3.607753 -24.981489 43.118908
v 3.951107 -24.981489 44.845047
v 8.758769 -24.981489 41.368015
v 1.821206 -24.981489 43.472500
v 12.748064 -24.981493 40.515049
v -5.833231 -24.981489 44.211098
v 15.570432 -24.981491 35.385330
v -7.166276 -24.981489 42.282436
v 17.722107 -24.981491 34.454155
v -12.748059 -24.981493 40.515049
v 18.491005 -24.981491 26.802702
v 19.998119 -24.981491 26.951141
v -17.722101 -24.981497 34.454155
v -15.570427 -24.981497 35.385330
v 17.300940 -24.981491 17.815220
v -19.998116 -24.981497 26.951141
v -18.490999 -24.981497 26.802702
v 18.711060 -24.981491 17.231131
v -18.711054 -24.981497 17.231131
v 11.787338 -24.981497 10.618608
v 12.748065 -24.981497 9.447950
v -17.300934 -24.981497 17.815220
v 3.653345 -24.981499 6.614923
v -12.748060 -24.981497 9.447950
v -11.787333 -24.981497 10.618608
v 3.951109 -24.981499 5.117950
v -5.833235 -24.981499 5.751898
v -5.393631 -24.981499 7.201097
vn -0.490236 0.161550 0.856487
vn -0.896661 0.182851 0.403192
vn -0.621390 0.107248 0.776127
vn -0.944088 0.147584 0.294816
vn -0.576100 0.211236 -0.789612
vn -0.687968 0.154226 -0.709165
vn 0.652173 0.209176 -0.728640
vn 0.389316 0.125660 -0.912493
vn 0.906712 0.182033 0.380444
vn 0.990580 0.112454 0.078142
vn 0.542966 0.147850 0.826637
vn 0.685288 0.079237 0.723949
vn 0.287105 -0.147579 -0.946463
vn 0.287105 -0.147579 -0.946463
vn 0.287106 -0.147579 -0.946462
vn 0.287106 -0.147579 -0.946462
vn 0.000000 1.000000 0.000001
vn 0.000000 1.000000 0.000001
vn -0.000000 1.000000 0.000000
vn -0.000000 1.000000 0.000000
vn 0.000000 1.000000 -0.000001
vn 0.000000 1.000000 -0.000001
vn 0.000000 1.000000 0.000000
vn 0.000000 1.000000 0.000000
vn -0.000000 1.000000 0.000000
vn -0.000000 1.000000 0.000000
vn -0.000000 1.000000 0.000001
vn -0.000000 1.000000 0.000000
vn -0.000000 1.000000 0.000000
vn 0.000000 1.000000 -0.000000
vn 0.000000 1.000000 -0.000000
vn 0.000000 1.000000 0.000000
vn 0.000000 1.000000 0.000000
vn 0.000000 1.000000 0.000001
vn 0.000000 1.000000 0.000000
vn -0.000000 1.000000 0.000000
vn -0.000000 1.000000 0.000000
vn 0.466236 -0.147579 -0.872264
vn 0.466236 -0.147579 -0.872264
vn 0.466236 -0.147579 -0.872264
vn 0.627448 -0.147579 -0.764545
vn 0.627448 -0.147579 -0.764545
vn 0.627446 -0.147579 -0.764547
vn 0.627446 -0.147579 -0.764547
vn 0.764547 -0.147579 -0.627446
vn 0.764546 -0.147579 -0.627447
vn 0.764547 -0.147579 -0.627446
vn 0.764547 -0.147579 -0.627446
vn 0.872264 -0.147579 -0.466235
vn 0.872264 -0.147579 -0.466235
vn 0.872264 -0.147579 -0.466235
vn 0.946462 -0.147579 -0.287106
vn 0.946462 -0.147579 -0.287106
vn 0.946462 -0.147579 -0.287106
vn 0.946462 -0.147579 -0.287106
vn 0.984288 -0.147578 -0.096944
vn 0.984288 -0.147578 -0.096944
vn 0.984288 -0.147578 -0.096944
vn 0.984288 -0.147580 0.096944
vn 0.984288 -0.147580 0.096944
vn 0.984288 -0.147580 0.096944
vn 0.946462 -0.147579 0.287107
vn 0.946462 -0.147579 0.287107
vn 0.946462 -0.147579 0.287106
vn 0.946462 -0.147579 0.287106
vn 0.872264 -0.147579 0.466236
vn 0.872264 -0.147579 0.466236
vn 0.872264 -0.147579 0.466236
vn 0.764547 -0.147578 0.627446
vn 0.764547 -0.147578 0.627446
vn 0.764547 -0.147578 0.627446
vn 0.627447 -0.147579 0.764546
vn 0.627447 -0.147579 0.764546
vn 0.627446 -0.147579 0.764547
vn 0.627446 -0.147579 0.764547
vn 0.466235 -0.147579 0.872265
vn 0.466235 -0.147579 0.872265
vn 0.466235 -0.147579 0.872265
vn 0.287108 -0.147579 0.946462
vn 0.287108 -0.147579 0.946462
vn 0.287106 -0.147579 0.946462
vn 0.287106 -0.147579 0.946462
vn 0.096944 -0.147578 0.984288
vn 0.096944 -0.147578 0.984288
vn 0.096944 -0.147578 0.984288
vn -0.096944 -0.147580 0.984288
vn -0.096944 -0.147580 0.984288
vn -0.096944 -0.147580 0.984288
vn -0.287108 -0.147579 0.946462
vn -0.287108 -0.147579 0.946462
vn -0.287106 -0.147579 0.946462
vn -0.287105 -0.147579 0.946462
vn -0.466235 -0.147579 0.872264
vn -0.466235 -0.147579 0.872264
vn -0.466235 -0.147579 0.872265
vn -0.627447 -0.147579 0.764546
vn -0.627447 -0.147579 0.764546
vn -0.627446 -0.147579 0.764547
vn -0.627446 -0.147579 0.764547
vn -0.764546 -0.147580 0.627447
vn -0.764546 -0.147580 0.627447
vn -0.764546 -0.147580 0.627447
vn -0.872264 -0.147579 0.466236
vn -0.872264 -0.147579 0.466236
vn -0.872264 -0.147579 0.466236
vn -0.946462 -0.147579 0.287107
vn -0.946462 -0.147579 0.287107
vn -0.946462 -0.147579 0.287106
vn -0.946462 -0.147579 0.287106
vn -0.984288 -0.147578 0.096944
vn -0.984288 -0.147578 0.096944
vn -0.984288 -0.147578 0.096944
vn -0.984288 -0.147580 -0.096944
vn -0.984288 -0.147580 -0.096944
vn -0.984288 -0.147580 -0.096944
vn -0.946462 -0.147579 -0.287107
vn -0.946462 -0.147579 -0.287107
vn -0.946462 -0.147579 -0.287106
vn -0.946462 -0.147579 -0.287106
vn -0.872265 -0.147579 -0.466235
vn -0.872265 -0.147579 -0.466235
vn -0.872264 -0.147579 -0.466235
vn -0.764547 -0.147579 -0.627446
vn -0.764547 -0.147579 -0.627445
vn -0.764546 -0.147579 -0.627447
vn -0.764546 -0.147579 -0.627447
vn -0.627446 -0.147579 -0.764547
vn -0.627446 -0.147579 -0.764547
vn -0.627447 -0.147579 -0.764546
vn -0.627447 -0.147579 -0.764546
vn -0.466235 -0.147579 -0.872265
vn -0.466235 -0.147579 -0.872265
vn -0.466235 -0.147579 -0.872265
vn -0.287108 -0.147579 -0.946461
vn -0.287109 -0.147579 -0.946461
vn -0.287104 -0.147579 -0.946463
vn -0.287104 -0.147579 -0.946463
vn -0.096946 -0.147578 -0.984288
vn -0.096946 -0.147578 -0.984288
vn -0.096946 -0.147578 -0.984288
vn 0.096946 -0.147580 -0.984287
vn 0.096946 -0.147580 -0.984287
vn 0.096946 -0.147580 -0.984287
vn -0.000000 -1.000000 -0.000000
vn -0.000001 -1.000000 0.000000
vn 0.000000 -1.000000 0.000000
vn -0.000001 -1.000000 0.000001
vn 0.000000 -1.000000 -0.000000
vn -0.000000 -1.000000 -0.000001
vn 0.000001 -1.000000 -0.000000
vn -0.000000 -1.000000 -0.000001
vn 0.000001 -1.000000 0.000001
vn 0.000000 -1.000000 0.000000
vn 0.000000 -1.000000 -0.000000
vn -0.000000 -1.000000 0.000000
vn -0.000000 -1.000000 0.000001
vn 0.000000 -1.000000 0.000001
vn 0.000000 -1.000000 -0.000000
vn 0.000000 -1.000000 -0.000000
vn 0.000000 -1.000000 0.000001
vn 0.000000 -1.000000 -0.000000
vn 0.000000 -1.000000 -0.000000
vn 0.000000 -1.000000 -0.000000
vn 0.000000 -1.000000 0.000000
vn 0.000000 -1.000000 -0.000000
vn -0.000000 -1.000000 -0.000000
vn -0.000000 -1.000000 -0.000000
vn 0.000000 -1.000000 -0.000000
vn -0.000000 -1.000000 -0.000001
vn -0.000000 -1.000000 -0.000001
f 1//1 2//2 3//3
f 2//2 4//4 3//3
f 2//2 5//5 4//4
f 5//5 6//6 4//4
f 5//5 8//8 6//6
f 5//5 7//7 8//8
f 7//7 10//10 8//8
f 7//7 9//9 10//10
f 9//9 12//12 10//10
f 9//9 11//11 12//12
f 13//13 14//14 15//15
f 16//16 13//13 15//15
f 19//19 18//18 17//17
f 20//20 18//18 19//19
f 22//22 20//20 19//19
f 21//21 22//22 19//19
f 24//24 22//22 21//21
f 23//23 24//24 21//21
f 26//26 24//24 23//23
f 25//25 26//26 23//23
f 27//27 26//26 25//25
f 28//28 27//27 25//25
f 29//29 27//27 28//28
f 31//31 29//29 28//28
f 30//30 31//31 28//28
f 33//33 31//31 30//30
f 32//32 33//33 30//30
f 35//35 33//33 32//32
f 34//34 35//35 32//32
f 37//37 35//35 34//34
f 36//36 37//37 34//34
f 40//40 38//38 39//39
f 41//41 42//42 43//43
f 44//44 41//41 43//43
f 45//45 46//46 47//47
f 48//48 45//45 47//47
f 51//51 49//49 50//50
f 52//52 53//53 54//54
f 55//55 52//52 54//54
f 58//58 56//56 57//57
f 61//61 59//59 60//60
f 62//62 63//63 64//64
f 65//65 62//62 64//64
f 68//68 66//66 67//67
f 71//71 69//69 70//70
f 72//72 73//73 74//74
f 75//75 72//72 74//74
f 78//78 76//76 77//77
f 79//79 80//80 81//81
f 82//82 79//79 81//81
f 85//85 83//83 84//84
f 88//88 86//86 87//87
f 89//89 90//90 91//91
f 92//92 89//89 91//91
f 95//95 93//93 94//94
f 96//96 97//97 98//98
f 99//99 96//96 98//98
f 102//102 100//100 101//101
f 105//105 103//103 104//104
f 106//106 107//107 108//108
f 109//109 106//106 108//108
f 112//112 110//110 111//111
f 115//115 113//113 114//114
f 116//116 117//117 118//118
f 119//119 116//116 118//118
f 122//122 120//120 121//121
f 123//123 124//124 125//125
f 126//126 123//123 125//125
f 127//127 128//128 129//129
f 130//130 127//127 129//129
f 133//133 131//131 132//132
f 134//134 135//135 136//136
f 137//137 134//134 136//136
f 140//140 138//138 139//139
f 143//143 141//141 142//142
f 145//145 144//144 146//146
f 147//147 144//144 145//145
f 146//146 144//144 150//150
f 144//144 148//148 150//150
f 149//149 147//147 145//145
f 151//151 147//147 149//149
f 148//148 152//152 150//150
f 150//150 152//152 156//156
f 154//154 151//151 149//149
f 153//153 154//154 149//149
f 152//152 155//155 156//156
f 160//160 154//154 153//153
f 157//157 160//160 153//153
f 156//156 155//155 159//159
f 155//155 158//158 159//159
f 159//159 158//158 164//164
f 163//163 160//160 157//157
f 158//158 161//161 164//164
f 162//162 163//163 157//157
f 168//168 163//163 162//162
f 165//165 168//168 162//162
f 164//164 161//161 167//167
f 161//161 166//166 167//167
f 167//167 166//166 170//170
f 169//169 168//168 165//165
f 166//166 169//169 170//170
f 170//170 169//169 165//165
