# Exported from Blender
v 1.221746 -1.300292 6.094786
v 1.221746 -3.886682 6.094787
v 1.221751 -3.886687 -6.094784
v 1.221751 -1.300297 -6.094785
v -0.000002 -1.300292 6.094796
v -0.000002 -3.886682 6.094797
v -1.221746 -1.300297 -6.094785
v -1.221745 -3.886687 -6.094784
v -1.221750 -3.886682 6.094787
v -1.221751 -1.300293 6.094786
v 0.000003 -1.300297 -6.094785
v -0.000002 -1.300293 6.094786
v 0.000003 -1.300297 -6.094785
v 0.000003 -3.886687 -6.094785
v 0.000003 -3.886688 -6.094784
v -0.000002 -3.886682 6.094787
v 3.762982 1.293198 6.094786
v 3.762982 -1.293192 6.094786
v 3.762988 -1.293197 -6.094786
v 3.762988 1.293193 -6.094786
v 2.541234 1.293198 6.094795
v 2.541234 -1.293192 6.094796
v 1.319491 1.293192 -6.094786
v 1.319491 -1.293197 -6.094785
v 1.319486 -1.293192 6.094786
v 1.319486 1.293198 6.094784
v 2.541239 1.293193 -6.094786
v 2.541234 1.293198 6.094785
v 2.541239 1.293192 -6.094777
v 2.541240 -1.293197 -6.094776
v 2.541240 -1.293198 -6.094785
v 2.541234 -1.293192 6.094786
v 3.762982 -1.300292 6.094786
v 3.762983 -3.886681 6.094787
v 3.762988 -3.886687 -6.094784
v 3.762988 -1.300297 -6.094786
v 2.541234 -1.300292 6.094796
v 2.541234 -3.886681 6.094797
v 1.319491 -1.300297 -6.094785
v 1.319491 -3.886687 -6.094784
v 1.319486 -3.886682 6.094787
v 1.319486 -1.300292 6.094786
v 2.541240 -1.300297 -6.094785
v 2.541234 -1.300292 6.094786
v 2.541240 -1.300297 -6.094795
v 2.541240 -3.886687 -6.094794
v 2.541240 -3.886687 -6.094784
v 2.541234 -3.886681 6.094787
v 1.221746 1.293198 6.094786
v 1.221746 -1.293192 6.094786
v 1.221751 -1.293197 -6.094785
v 1.221751 1.293192 -6.094786
v -0.000003 1.293198 6.094795
v -0.000002 -1.293193 6.094796
v -1.221746 1.293192 -6.094786
v -1.221746 -1.293198 -6.094785
v -1.221751 -1.293193 6.094786
v -1.221751 1.293197 6.094784
v 0.000003 1.293192 -6.094786
v -0.000003 1.293198 6.094785
v 0.000003 1.293192 -6.094787
v 0.000003 -1.293198 -6.094785
v 0.000003 -1.293198 -6.094785
v 1.221746 -1.293192 6.094786
v -1.221751 -1.293193 6.094786
v -1.319491 -1.300293 6.094786
v -1.319490 -3.886682 6.094788
v -1.319485 -3.886687 -6.094784
v -1.319486 -1.300297 -6.094785
v -2.541239 -1.300293 6.094777
v -2.541239 -3.886682 6.094778
v -3.762982 -1.300297 -6.094785
v -3.762982 -3.886688 -6.094784
v -3.762987 -3.886682 6.094787
v -3.762988 -1.300293 6.094786
v -2.541234 -1.300297 -6.094785
v -3.762988 -1.300293 6.094786
v -1.319491 -1.300293 6.094786
v -2.541234 -1.300297 -6.094785
v -2.541234 -3.886688 -6.094785
v -2.541234 -3.886688 -6.094784
v -1.319490 -3.886682 6.094788
v -3.762987 -3.886682 6.094787
v -1.319491 1.293197 6.094786
v -1.319491 -1.293193 6.094786
v -1.319486 -1.293198 -6.094785
v -1.319486 1.293192 -6.094786
v -2.541239 1.293197 6.094786
v -2.541239 -1.293193 6.094786
v -3.762982 1.293192 -6.094786
v -3.762982 -1.293198 -6.094785
v -3.762988 -1.293193 6.094786
v -3.762988 1.293197 6.094785
v -2.541234 1.293192 -6.094786
v -3.762988 1.293197 6.094785
v -1.319491 1.293197 6.094786
v -2.541234 1.293192 -6.094797
v -2.541234 -1.293198 -6.094795
v -2.541234 -1.293198 -6.094785
v -1.319491 -1.293193 6.094786
v -3.762988 -1.293193 6.094786
v 1.221746 3.886687 6.094784
v 1.221746 1.300296 6.094785
v 1.221751 1.300292 -6.094786
v 1.221751 3.886681 -6.094788
v -0.000003 3.886687 6.094783
v -0.000003 1.300296 6.094785
v -1.221746 3.886681 -6.094787
v -1.221746 1.300292 -6.094786
v -1.221751 1.300296 6.094784
v -1.221751 3.886687 6.094783
v 0.000002 3.886681 -6.094787
v -0.000003 3.886687 6.094783
v 0.000002 3.886681 -6.094808
v 0.000003 1.300292 -6.094806
v 0.000003 1.300292 -6.094786
v -0.000003 1.300296 6.094784
v 3.762982 3.886687 6.094784
v 3.762982 1.300297 6.094786
v 3.762988 1.300293 -6.094786
v 3.762987 3.886681 -6.094787
v 2.541234 3.886687 6.094774
v 2.541234 1.300297 6.094775
v 1.319491 3.886681 -6.094787
v 1.319491 1.300293 -6.094786
v 1.319486 1.300297 6.094784
v 1.319486 3.886687 6.094783
v 2.541239 3.886681 -6.094787
v 2.541234 3.886687 6.094783
v 2.541239 3.886681 -6.094787
v 2.541239 1.300293 -6.094786
v 2.541239 1.300293 -6.094786
v 2.541234 1.300297 6.094785
v -1.319491 3.886687 6.094784
v -1.319491 1.300296 6.094785
v -1.319486 1.300292 -6.094786
v -1.319486 3.886681 -6.094787
v -2.541240 3.886686 6.094794
v -2.541240 1.300296 6.094795
v -3.762983 3.886681 -6.094787
v -3.762982 1.300291 -6.094786
v -3.762988 1.300296 6.094784
v -3.762988 3.886686 6.094783
v -2.541234 3.886681 -6.094787
v -3.762988 3.886686 6.094783
v -1.319491 3.886687 6.094784
v -2.541234 3.886681 -6.094787
v -2.541234 1.300292 -6.094786
v -2.541234 1.300292 -6.094786
v -1.319491 1.300296 6.094785
v -3.762988 1.300296 6.094784
vn 1.000000 0.000000 0.000000
vn 1.000000 0.000000 0.000000
vn 1.000000 0.000000 0.000000
vn 1.000000 0.000000 0.000000
vn -0.000000 -0.208649 0.977991
vn -0.000000 -0.537680 0.843149
vn -1.000000 -0.000000 -0.000000
vn -1.000000 -0.000000 -0.000000
vn -1.000000 -0.000000 -0.000000
vn -1.000000 -0.000000 -0.000000
vn 0.000000 -0.208650 -0.977990
vn -0.000000 -0.208649 0.977990
vn 0.000000 -0.208650 -0.977990
vn 0.000000 -0.537681 -0.843148
vn 0.000000 -0.537682 -0.843148
vn -0.000000 -0.537681 0.843149
vn 1.000000 0.000000 0.000000
vn 1.000000 0.000000 0.000000
vn 1.000000 0.000000 0.000000
vn 1.000000 0.000000 0.000000
vn 0.377665 0.192188 0.905777
vn 0.377665 -0.192188 0.905777
vn -1.000000 -0.000000 -0.000000
vn -1.000000 -0.000000 -0.000000
vn -1.000000 -0.000000 -0.000000
vn -1.000000 -0.000000 -0.000000
vn 0.377666 0.192188 -0.905777
vn 0.377666 0.192189 0.905777
vn 0.377667 0.192188 -0.905777
vn 0.377667 -0.192189 -0.905777
vn 0.377666 -0.192189 -0.905777
vn 0.377666 -0.192188 0.905777
vn 1.000000 0.000000 0.000000
vn 1.000000 0.000000 0.000000
vn 1.000000 0.000000 0.000000
vn 1.000000 0.000000 0.000000
vn 0.377589 -0.193204 0.905593
vn 0.331655 -0.507248 0.795427
vn -1.000000 -0.000000 -0.000000
vn -1.000000 -0.000000 -0.000000
vn -1.000000 0.000000 -0.000000
vn -1.000000 0.000000 -0.000000
vn 0.377590 -0.193204 -0.905593
vn 0.377589 -0.193204 0.905593
vn 0.377589 -0.193204 -0.905593
vn 0.331655 -0.507248 -0.795427
vn 0.331656 -0.507249 -0.795426
vn 0.331655 -0.507248 0.795427
vn 1.000000 -0.000000 0.000000
vn 1.000000 -0.000000 0.000000
vn 1.000000 0.000000 0.000000
vn 1.000000 0.000000 0.000000
vn -0.000000 0.207560 0.978222
vn -0.000000 -0.207559 0.978222
vn -1.000000 -0.000000 -0.000000
vn -1.000000 0.000000 -0.000000
vn -1.000000 -0.000000 -0.000000
vn -1.000000 -0.000000 -0.000000
vn 0.000000 0.207559 -0.978222
vn -0.000000 0.207560 0.978222
vn 0.000000 0.207559 -0.978222
vn 0.000000 -0.207560 -0.978222
vn 0.000000 -1.000000 0.000000
vn 0.000000 -1.000000 0.000000
vn 0.000000 -1.000000 0.000000
vn 1.000000 0.000000 0.000000
vn 1.000000 0.000000 0.000000
vn 1.000000 0.000000 0.000000
vn 1.000000 0.000000 0.000000
vn -0.377590 -0.193204 0.905593
vn -0.331656 -0.507249 0.795426
vn -1.000000 -0.000000 -0.000000
vn -1.000000 0.000000 -0.000000
vn -1.000000 -0.000000 -0.000000
vn -1.000000 -0.000000 -0.000000
vn -0.000000 1.000000 -0.000000
vn -0.000000 1.000000 -0.000000
vn -0.000000 1.000000 -0.000000
vn -0.377589 -0.193205 -0.905593
vn -0.331655 -0.507249 -0.795427
vn 0.000000 -1.000000 0.000001
vn 0.000000 -1.000000 0.000001
vn 0.000000 -1.000000 0.000001
vn 1.000000 0.000000 0.000000
vn 1.000000 0.000000 0.000000
vn 1.000000 0.000000 0.000000
vn 1.000000 0.000000 0.000000
vn -0.377666 0.192189 0.905777
vn -0.377666 -0.192188 0.905777
vn -1.000000 0.000000 -0.000000
vn -1.000000 0.000000 -0.000000
vn -1.000000 0.000000 -0.000000
vn -1.000000 0.000000 -0.000000
vn -0.000000 1.000000 -0.000000
vn -0.000000 1.000000 -0.000000
vn -0.000000 1.000000 -0.000000
vn -0.377665 0.192188 -0.905777
vn -0.377665 -0.192188 -0.905777
vn 0.000000 -1.000000 0.000000
vn 0.000000 -1.000000 0.000000
vn 0.000000 -1.000000 0.000000
vn 1.000000 0.000000 0.000000
vn 1.000000 0.000000 0.000000
vn 1.000000 0.000000 0.000000
vn 1.000000 0.000000 0.000000
vn -0.000000 0.537682 0.843148
vn -0.000000 0.208650 0.977990
vn -1.000000 -0.000000 -0.000000
vn -1.000000 -0.000000 -0.000000
vn -1.000000 -0.000000 -0.000000
vn -1.000000 0.000000 -0.000000
vn 0.000000 0.537681 -0.843149
vn -0.000000 0.537682 0.843148
vn 0.000000 0.537679 -0.843149
vn 0.000000 0.208649 -0.977991
vn 0.000000 0.208649 -0.977991
vn -0.000000 0.208650 0.977990
vn 1.000000 0.000000 0.000000
vn 1.000000 0.000000 0.000000
vn 1.000000 -0.000000 0.000000
vn 1.000000 -0.000000 0.000000
vn 0.331655 0.507250 0.795426
vn 0.377589 0.193205 0.905593
vn -1.000000 0.000000 -0.000000
vn -1.000000 0.000000 -0.000000
vn -1.000000 0.000000 -0.000000
vn -1.000000 0.000000 -0.000000
vn 0.331656 0.507248 -0.795427
vn 0.331655 0.507249 0.795426
vn 0.331656 0.507248 -0.795427
vn 0.377590 0.193204 -0.905593
vn 0.377590 0.193204 -0.905593
vn 0.377589 0.193205 0.905593
vn 1.000000 0.000000 0.000000
vn 1.000000 0.000000 0.000000
vn 1.000000 0.000000 0.000000
vn 1.000000 0.000000 0.000000
vn -0.331655 0.507248 0.795427
vn -0.377589 0.193204 0.905593
vn -1.000000 -0.000000 -0.000000
vn -1.000000 -0.000000 -0.000000
vn -1.000000 0.000000 -0.000000
vn -1.000000 0.000000 -0.000000
vn -0.000000 1.000000 -0.000001
vn -0.000000 1.000000 -0.000001
vn -0.000000 1.000000 -0.000001
vn -0.331655 0.507248 -0.795427
vn -0.377589 0.193204 -0.905593
vn 0.000000 -1.000000 0.000000
vn 0.000000 -1.000000 0.000000
vn 0.000000 -1.000000 0.000000
f 1//1 2//2 3//3
f 4//4 1//1 3//3
f 7//7 8//8 9//9
f 10//10 7//7 9//9
f 17//17 18//18 19//19
f 20//20 17//17 19//19
f 23//23 24//24 25//25
f 26//26 23//23 25//25
f 33//33 34//34 35//35
f 36//36 33//33 35//35
f 39//39 40//40 41//41
f 42//42 39//39 41//41
f 49//49 50//50 51//51
f 52//52 49//49 51//51
f 55//55 56//56 57//57
f 58//58 55//55 57//57
f 65//65 63//63 64//64
f 66//66 67//67 68//68
f 69//69 66//66 68//68
f 72//72 73//73 74//74
f 75//75 72//72 74//74
f 78//78 76//76 77//77
f 83//83 81//81 82//82
f 84//84 85//85 86//86
f 87//87 84//84 86//86
f 90//90 91//91 92//92
f 93//93 90//90 92//92
f 96//96 94//94 95//95
f 101//101 99//99 100//100
f 102//102 103//103 104//104
f 105//105 102//102 104//104
f 108//108 109//109 110//110
f 111//111 108//108 110//110
f 118//118 119//119 120//120
f 121//121 118//118 120//120
f 124//124 125//125 126//126
f 127//127 124//124 126//126
f 134//134 135//135 136//136
f 137//137 134//134 136//136
f 140//140 141//141 142//142
f 143//143 140//140 142//142
f 146//146 144//144 145//145
f 151//151 149//149 150//150
