# Exported from Blender
v 1.218906 1.294803 6.093987
v 1.218906 -1.294798 6.093988
v 1.218911 -1.294802 -6.093986
v 1.218911 1.294798 -6.093987
v -1.218911 1.294802 6.093986
v -1.218911 -1.294798 6.093987
v 1.218906 -1.294798 6.093988
v 1.218906 1.294803 6.093987
v -1.218906 1.294797 -6.093987
v -1.218906 -1.294803 -6.093986
v -1.218911 -1.294798 6.093987
v -1.218911 1.294802 6.093986
v 1.218911 1.294798 -6.093987
v -1.218906 1.294797 -6.093987
v -1.218911 1.294802 6.093986
v 1.218906 1.294803 6.093987
v -1.218906 1.294797 -6.093987
v 1.218911 1.294798 -6.093987
v 1.218911 -1.294802 -6.093986
v -1.218906 -1.294803 -6.093986
v -1.218906 -1.294803 -6.093986
v 1.218911 -1.294802 -6.093986
v 1.218906 -1.294798 6.093988
v -1.218911 -1.294798 6.093987
vn 1.000000 -0.000000 0.000000
vn 1.000000 -0.000000 0.000000
vn 1.000000 0.000000 0.000000
vn 1.000000 0.000000 0.000000
vn -0.000001 0.000000 1.000000
vn -0.000000 0.000000 1.000000
vn -0.000001 0.000000 1.000000
vn -0.000001 0.000001 1.000000
vn -1.000000 -0.000000 -0.000000
vn -1.000000 -0.000000 -0.000000
vn -1.000000 0.000000 -0.000000
vn -1.000000 0.000000 -0.000000
vn -0.000000 1.000000 -0.000000
vn -0.000000 1.000000 -0.000000
vn -0.000000 1.000000 -0.000000
vn -0.000000 1.000000 -0.000000
vn 0.000000 -0.000000 -1.000000
vn 0.000000 -0.000000 -1.000000
vn -0.000000 -0.000000 -1.000000
vn -0.000000 -0.000000 -1.000000
vn 0.000000 -1.000000 0.000000
vn 0.000000 -1.000000 0.000000
vn 0.000000 -1.000000 0.000000
vn 0.000000 -1.000000 0.000000
f 1//1 2//2 3//3
f 4//4 1//1 3//3
f 5//5 6//6 7//7
f 8//8 5//5 7//7
f 9//9 10//10 11//11
f 12//12 9//9 11//11
f 13//13 14//14 15//15
f 16//16 13//13 15//15
f 17//17 18//18 19//19
f 20//20 17//17 19//19
f 21//21 22//22 23//23
f 24//24 21//21 23//23
