# Blender v3.4.0 OBJ File: ''
# www.blender.org
mtllib Cylinder1.mtl
o Cylinder2.001
v -0.000002 24.999983 12.436541
v -2.438631 24.999983 12.196356
v 0.000002 -25.000017 12.436533
v -2.438627 -25.000017 12.196348
v -4.783545 24.999983 11.485033
v -4.783541 -25.000017 11.485029
v -6.944629 24.999983 10.329908
v -6.944624 -25.000017 10.329905
v -8.838836 24.999983 8.775377
v -8.838831 -25.000017 8.775370
v -10.393372 24.999983 6.881169
v -10.393367 -25.000017 6.881160
v -11.548494 24.999987 4.720086
v -11.548490 -25.000013 4.720077
v -12.259816 24.999987 2.375172
v -12.259811 -25.000013 2.375164
v -12.500000 24.999987 -0.063457
v -12.499995 -25.000013 -0.063466
v -12.259816 24.999987 -2.502086
v -12.259811 -25.000013 -2.502095
v -11.548494 24.999987 -4.846999
v -11.548490 -25.000013 -4.847008
v -10.393372 24.999990 -7.008083
v -10.393367 -25.000010 -7.008092
v -8.838836 24.999990 -8.902292
v -8.838831 -25.000010 -8.902300
v -6.944629 24.999990 -10.456826
v -6.944624 -25.000010 -10.456833
v -4.783545 24.999990 -11.611951
v -4.783541 -25.000010 -11.611958
v -2.438631 24.999990 -12.323274
v -2.438627 -25.000010 -12.323279
v -0.000002 24.999990 -12.563456
v 0.000002 -25.000010 -12.563462
v 2.438627 24.999990 -12.323274
v 2.438631 -25.000010 -12.323279
v 4.783541 24.999990 -11.611951
v 4.783545 -25.000010 -11.611958
v 6.944624 24.999990 -10.456826
v 6.944629 -25.000010 -10.456833
v 8.838831 24.999990 -8.902292
v 8.838836 -25.000010 -8.902300
v 10.393367 24.999990 -7.008083
v 10.393372 -25.000010 -7.008092
v 11.548490 24.999987 -4.846999
v 11.548494 -25.000013 -4.847008
v 12.259811 24.999987 -2.502086
v 12.259816 -25.000013 -2.502095
v 12.499995 24.999987 -0.063457
v 12.500000 -25.000013 -0.063466
v 12.259811 24.999987 2.375172
v 12.259816 -25.000013 2.375164
v 11.548490 24.999987 4.720086
v 11.548494 -25.000013 4.720077
v 10.393367 24.999983 6.881169
v 10.393372 -25.000017 6.881160
v 8.838831 24.999983 8.775377
v 8.838836 -25.000017 8.775370
v 6.944624 24.999983 10.329908
v 6.944629 -25.000017 10.329905
v 4.783541 24.999983 11.485033
v 4.783545 -25.000017 11.485029
v 2.438627 24.999983 12.196356
v 2.438631 -25.000017 12.196348
v -0.000002 24.999983 12.436541
v 0.000002 -25.000017 12.436533
v -2.438631 24.999983 12.196356
v -0.000002 24.999983 12.436541
v -0.000002 24.999983 10.673535
v -2.094686 24.999983 10.467230
v -4.783545 24.999983 11.485033
v -2.438631 24.999983 12.196356
v -2.094686 24.999983 10.467230
v -4.108873 24.999983 9.856234
v -6.944629 24.999983 10.329908
v -4.783545 24.999983 11.485033
v -4.108873 24.999983 9.856234
v -5.965158 24.999983 8.864027
v -8.838836 24.999983 8.775377
v -6.944629 24.999983 10.329908
v -5.965158 24.999983 8.864027
v -7.592205 24.999983 7.528746
v -10.393372 24.999983 6.881169
v -8.838836 24.999983 8.775377
v -7.592205 24.999983 7.528746
v -8.927489 24.999983 5.901698
v -11.548494 24.999987 4.720086
v -10.393372 24.999983 6.881169
v -8.927489 24.999983 5.901698
v -9.919692 24.999987 4.045415
v -12.259816 24.999987 2.375172
v -11.548494 24.999987 4.720086
v -9.919692 24.999987 4.045415
v -10.530689 24.999987 2.031228
v -12.500000 24.999987 -0.063457
v -12.259816 24.999987 2.375172
v -10.530689 24.999987 2.031228
v -10.736998 24.999987 -0.063457
v -12.259816 24.999987 -2.502086
v -12.500000 24.999987 -0.063457
v -10.736998 24.999987 -0.063457
v -10.530689 24.999987 -2.158140
v -11.548494 24.999987 -4.846999
v -12.259816 24.999987 -2.502086
v -10.530689 24.999987 -2.158140
v -9.919692 24.999987 -4.172328
v -10.393372 24.999990 -7.008083
v -11.548494 24.999987 -4.846999
v -9.919692 24.999987 -4.172328
v -8.927489 24.999990 -6.028611
v -8.838836 24.999990 -8.902292
v -10.393372 24.999990 -7.008083
v -8.927489 24.999990 -6.028611
v -7.592205 24.999990 -7.655660
v -6.944629 24.999990 -10.456826
v -8.838836 24.999990 -8.902292
v -7.592205 24.999990 -7.655660
v -5.965158 24.999990 -8.990944
v -4.783545 24.999990 -11.611951
v -6.944629 24.999990 -10.456826
v -5.965158 24.999990 -8.990944
v -4.108873 24.999990 -9.983148
v -2.438631 24.999990 -12.323274
v -4.783545 24.999990 -11.611951
v -4.108873 24.999990 -9.983148
v -2.094686 24.999990 -10.594146
v -0.000002 24.999990 -12.563456
v -2.438631 24.999990 -12.323274
v -2.094686 24.999990 -10.594146
v -0.000002 24.999990 -10.800454
v 2.438627 24.999990 -12.323274
v -0.000002 24.999990 -12.563456
v -0.000002 24.999990 -10.800454
v 2.094682 24.999990 -10.594146
v 4.783541 24.999990 -11.611951
v 2.438627 24.999990 -12.323274
v 2.094682 24.999990 -10.594146
v 4.108869 24.999990 -9.983148
v 6.944624 24.999990 -10.456826
v 4.783541 24.999990 -11.611951
v 4.108869 24.999990 -9.983148
v 5.965152 24.999990 -8.990944
v 8.838831 24.999990 -8.902292
v 6.944624 24.999990 -10.456826
v 5.965152 24.999990 -8.990944
v 7.592200 24.999990 -7.655660
v 10.393367 24.999990 -7.008083
v 8.838831 24.999990 -8.902292
v 7.592200 24.999990 -7.655660
v 8.927484 24.999990 -6.028611
v 11.548490 24.999987 -4.846999
v 10.393367 24.999990 -7.008083
v 8.927484 24.999990 -6.028611
v 9.919687 24.999987 -4.172328
v 12.259811 24.999987 -2.502086
v 11.548490 24.999987 -4.846999
v 9.919687 24.999987 -4.172328
v 10.530684 24.999987 -2.158140
v 12.499995 24.999987 -0.063457
v 12.259811 24.999987 -2.502086
v 10.530684 24.999987 -2.158140
v 10.736993 24.999987 -0.063457
v 12.259811 24.999987 2.375172
v 12.499995 24.999987 -0.063457
v 10.736993 24.999987 -0.063457
v 10.530684 24.999987 2.031228
v 11.548490 24.999987 4.720086
v 12.259811 24.999987 2.375172
v 10.530684 24.999987 2.031228
v 9.919687 24.999987 4.045415
v 10.393367 24.999983 6.881169
v 11.548490 24.999987 4.720086
v 9.919687 24.999987 4.045415
v 8.927484 24.999983 5.901698
v 8.838831 24.999983 8.775377
v 10.393367 24.999983 6.881169
v 8.927484 24.999983 5.901698
v 7.592200 24.999983 7.528746
v 6.944624 24.999983 10.329908
v 8.838831 24.999983 8.775377
v 7.592200 24.999983 7.528746
v 5.965152 24.999983 8.864027
v 4.783541 24.999983 11.485033
v 6.944624 24.999983 10.329908
v 5.965152 24.999983 8.864027
v 4.108869 24.999983 9.856234
v 2.438627 24.999983 12.196356
v 4.783541 24.999983 11.485033
v 4.108869 24.999983 9.856234
v 2.094682 24.999983 10.467230
v -0.000002 24.999983 12.436541
v 2.438627 24.999983 12.196356
v 2.094682 24.999983 10.467230
v -0.000002 24.999983 10.673535
v 0.000002 -25.000017 12.436533
v -2.438627 -25.000017 12.196348
v -2.094682 -25.000017 10.467222
v 0.000002 -25.000017 10.673528
v -2.438627 -25.000017 12.196348
v -4.783541 -25.000017 11.485029
v -4.108869 -25.000017 9.856226
v -2.094682 -25.000017 10.467222
v -4.783541 -25.000017 11.485029
v -6.944624 -25.000017 10.329905
v -5.965152 -25.000017 8.864019
v -4.108869 -25.000017 9.856226
v -6.944624 -25.000017 10.329905
v -8.838831 -25.000017 8.775370
v -7.592200 -25.000017 7.528737
v -5.965152 -25.000017 8.864019
v -8.838831 -25.000017 8.775370
v -10.393367 -25.000017 6.881160
v -8.927484 -25.000017 5.901689
v -7.592200 -25.000017 7.528737
v -10.393367 -25.000017 6.881160
v -11.548490 -25.000013 4.720077
v -9.919687 -25.000013 4.045406
v -8.927484 -25.000017 5.901689
v -11.548490 -25.000013 4.720077
v -12.259811 -25.000013 2.375164
v -10.530684 -25.000013 2.031219
v -9.919687 -25.000013 4.045406
v -12.259811 -25.000013 2.375164
v -12.499995 -25.000013 -0.063466
v -10.736993 -25.000013 -0.063466
v -10.530684 -25.000013 2.031219
v -12.499995 -25.000013 -0.063466
v -12.259811 -25.000013 -2.502095
v -10.530684 -25.000013 -2.158148
v -10.736993 -25.000013 -0.063466
v -12.259811 -25.000013 -2.502095
v -11.548490 -25.000013 -4.847008
v -9.919687 -25.000013 -4.172337
v -10.530684 -25.000013 -2.158148
v -11.548490 -25.000013 -4.847008
v -10.393367 -25.000010 -7.008092
v -8.927484 -25.000010 -6.028620
v -9.919687 -25.000013 -4.172337
v -10.393367 -25.000010 -7.008092
v -8.838831 -25.000010 -8.902300
v -7.592200 -25.000010 -7.655669
v -8.927484 -25.000010 -6.028620
v -8.838831 -25.000010 -8.902300
v -6.944624 -25.000010 -10.456833
v -5.965152 -25.000010 -8.990952
v -7.592200 -25.000010 -7.655669
v -6.944624 -25.000010 -10.456833
v -4.783541 -25.000010 -11.611958
v -4.108869 -25.000010 -9.983155
v -5.965152 -25.000010 -8.990952
v -4.783541 -25.000010 -11.611958
v -2.438627 -25.000010 -12.323279
v -2.094682 -25.000010 -10.594152
v -4.108869 -25.000010 -9.983155
v -2.438627 -25.000010 -12.323279
v 0.000002 -25.000010 -12.563462
v 0.000002 -25.000010 -10.800461
v -2.094682 -25.000010 -10.594152
v 0.000002 -25.000010 -12.563462
v 2.438631 -25.000010 -12.323279
v 2.094686 -25.000010 -10.594152
v 0.000002 -25.000010 -10.800461
v 2.438631 -25.000010 -12.323279
v 4.783545 -25.000010 -11.611958
v 4.108873 -25.000010 -9.983155
v 2.094686 -25.000010 -10.594152
v 4.783545 -25.000010 -11.611958
v 6.944629 -25.000010 -10.456833
v 5.965158 -25.000010 -8.990952
v 4.108873 -25.000010 -9.983155
v 6.944629 -25.000010 -10.456833
v 8.838836 -25.000010 -8.902300
v 7.592205 -25.000010 -7.655669
v 5.965158 -25.000010 -8.990952
v 8.838836 -25.000010 -8.902300
v 10.393372 -25.000010 -7.008092
v 8.927489 -25.000010 -6.028620
v 7.592205 -25.000010 -7.655669
v 10.393372 -25.000010 -7.008092
v 11.548494 -25.000013 -4.847008
v 9.919692 -25.000013 -4.172337
v 8.927489 -25.000010 -6.028620
v 11.548494 -25.000013 -4.847008
v 12.259816 -25.000013 -2.502095
v 10.530689 -25.000013 -2.158148
v 9.919692 -25.000013 -4.172337
v 12.259816 -25.000013 -2.502095
v 12.500000 -25.000013 -0.063466
v 10.736998 -25.000013 -0.063466
v 10.530689 -25.000013 -2.158148
v 12.500000 -25.000013 -0.063466
v 12.259816 -25.000013 2.375164
v 10.530689 -25.000013 2.031219
v 10.736998 -25.000013 -0.063466
v 12.259816 -25.000013 2.375164
v 11.548494 -25.000013 4.720077
v 9.919692 -25.000013 4.045406
v 10.530689 -25.000013 2.031219
v 11.548494 -25.000013 4.720077
v 10.393372 -25.000017 6.881160
v 8.927489 -25.000017 5.901689
v 9.919692 -25.000013 4.045406
v 10.393372 -25.000017 6.881160
v 8.838836 -25.000017 8.775370
v 7.592205 -25.000017 7.528737
v 8.927489 -25.000017 5.901689
v 8.838836 -25.000017 8.775370
v 6.944629 -25.000017 10.329905
v 5.965158 -25.000017 8.864019
v 7.592205 -25.000017 7.528737
v 6.944629 -25.000017 10.329905
v 4.783545 -25.000017 11.485029
v 4.108873 -25.000017 9.856226
v 5.965158 -25.000017 8.864019
v 4.783545 -25.000017 11.485029
v 2.438631 -25.000017 12.196348
v 2.094686 -25.000017 10.467222
v 4.108873 -25.000017 9.856226
v 2.438631 -25.000017 12.196348
v 0.000002 -25.000017 12.436533
v 0.000002 -25.000017 10.673528
v 2.094686 -25.000017 10.467222
v -9.919687 -25.000013 4.045406
v -9.919692 24.999987 4.045415
v -8.927484 -25.000017 5.901689
v -8.927489 24.999983 5.901698
v -7.592200 -25.000017 7.528737
v -7.592205 24.999983 7.528746
v -5.965152 -25.000017 8.864019
v -5.965158 24.999983 8.864027
v -4.108869 -25.000017 9.856226
v -4.108873 24.999983 9.856234
v -2.094682 -25.000017 10.467222
v -2.094686 24.999983 10.467230
v 0.000002 -25.000017 10.673528
v -0.000002 24.999983 10.673535
v 2.094686 -25.000017 10.467222
v 2.094682 24.999983 10.467230
v 4.108873 -25.000017 9.856226
v 4.108869 24.999983 9.856234
v -10.530689 24.999987 2.031228
v -9.919692 24.999987 4.045415
v -9.919687 -25.000013 4.045406
v -10.530684 -25.000013 2.031219
v -10.736998 24.999987 -0.063457
v -10.736993 -25.000013 -0.063466
v -10.530689 24.999987 -2.158140
v -10.530684 -25.000013 -2.158148
v -9.919692 24.999987 -4.172328
v -9.919687 -25.000013 -4.172337
v -8.927489 24.999990 -6.028611
v -8.927484 -25.000010 -6.028620
v -7.592205 24.999990 -7.655660
v -7.592200 -25.000010 -7.655669
v -5.965158 24.999990 -8.990944
v -5.965152 -25.000010 -8.990952
v -4.108873 24.999990 -9.983148
v -4.108869 -25.000010 -9.983155
v -2.094686 24.999990 -10.594146
v -4.108873 24.999990 -9.983148
v -4.108869 -25.000010 -9.983155
v -2.094682 -25.000010 -10.594152
v -0.000002 24.999990 -10.800454
v 0.000002 -25.000010 -10.800461
v 2.094682 24.999990 -10.594146
v 2.094686 -25.000010 -10.594152
v 4.108869 24.999990 -9.983148
v 4.108873 -25.000010 -9.983155
v 5.965152 24.999990 -8.990944
v 5.965158 -25.000010 -8.990952
v 7.592200 24.999990 -7.655660
v 7.592205 -25.000010 -7.655669
v 8.927484 24.999990 -6.028611
v 8.927489 -25.000010 -6.028620
v 9.919687 24.999987 -4.172328
v 9.919692 -25.000013 -4.172337
v 10.530684 24.999987 -2.158140
v 9.919687 24.999987 -4.172328
v 9.919692 -25.000013 -4.172337
v 10.530689 -25.000013 -2.158148
v 10.736993 24.999987 -0.063457
v 10.736998 -25.000013 -0.063466
v 10.530684 24.999987 2.031228
v 10.530689 -25.000013 2.031219
v 9.919687 24.999987 4.045415
v 9.919692 -25.000013 4.045406
v 8.927484 24.999983 5.901698
v 8.927489 -25.000017 5.901689
v 7.592200 24.999983 7.528746
v 7.592205 -25.000017 7.528737
v 5.965152 24.999983 8.864027
v 5.965158 -25.000017 8.864019
v 4.108869 24.999983 9.856234
v 4.108873 -25.000017 9.856226
vn 0.0000 -0.0000 1.0000
vn -0.1951 -0.0000 0.9808
vn -0.3827 -0.0000 0.9239
vn -0.5556 -0.0000 0.8315
vn -0.7071 -0.0000 0.7071
vn -0.8315 -0.0000 0.5556
vn -0.9239 -0.0000 0.3827
vn -0.9808 -0.0000 0.1951
vn -1.0000 -0.0000 -0.0000
vn -0.9808 -0.0000 -0.1951
vn -0.9239 -0.0000 -0.3827
vn -0.8315 0.0000 -0.5556
vn -0.7071 0.0000 -0.7071
vn -0.5556 0.0000 -0.8315
vn -0.3827 0.0000 -0.9239
vn -0.1951 0.0000 -0.9808
vn 0.0000 0.0000 -1.0000
vn 0.1951 0.0000 -0.9808
vn 0.3827 0.0000 -0.9239
vn 0.5556 0.0000 -0.8315
vn 0.7071 0.0000 -0.7071
vn 0.8315 0.0000 -0.5556
vn 0.9239 0.0000 -0.3827
vn 0.9808 0.0000 -0.1951
vn 1.0000 0.0000 0.0000
vn 0.9808 0.0000 0.1951
vn 0.9239 0.0000 0.3827
vn 0.8315 -0.0000 0.5556
vn 0.7071 -0.0000 0.7071
vn 0.5556 -0.0000 0.8315
vn 0.3827 -0.0000 0.9239
vn 0.1951 -0.0000 0.9808
vn 0.0000 1.0000 -0.0000
vn 0.0000 -1.0000 0.0000
vn -0.3826 0.0000 -0.9239
vn 0.9239 0.0000 -0.3826
vn 0.3826 -0.0000 0.9239
vn -0.9239 -0.0000 0.3826
usemtl Default_OBJ.001
s 1
f 1//1 2//2 3//1
f 2//2 4//2 3//1
f 2//2 5//3 4//2
f 5//3 6//3 4//2
f 5//3 7//4 6//3
f 7//4 8//4 6//3
f 7//4 9//5 8//4
f 9//5 10//5 8//4
f 9//5 11//6 10//5
f 11//6 12//6 10//5
f 11//6 13//7 12//6
f 13//7 14//7 12//6
f 13//7 15//8 14//7
f 15//8 16//8 14//7
f 15//8 17//9 16//8
f 17//9 18//9 16//8
f 17//9 19//10 18//9
f 19//10 20//10 18//9
f 19//10 21//11 20//10
f 21//11 22//11 20//10
f 21//11 23//12 22//11
f 23//12 24//12 22//11
f 23//12 25//13 24//12
f 25//13 26//13 24//12
f 25//13 27//14 26//13
f 27//14 28//14 26//13
f 27//14 29//15 28//14
f 29//15 30//15 28//14
f 29//15 31//16 30//15
f 31//16 32//16 30//15
f 31//16 33//17 32//16
f 33//17 34//17 32//16
f 33//17 35//18 34//17
f 35//18 36//18 34//17
f 35//18 37//19 36//18
f 37//19 38//19 36//18
f 37//19 39//20 38//19
f 39//20 40//20 38//19
f 39//20 41//21 40//20
f 41//21 42//21 40//20
f 41//21 43//22 42//21
f 43//22 44//22 42//21
f 43//22 45//23 44//22
f 45//23 46//23 44//22
f 45//23 47//24 46//23
f 47//24 48//24 46//23
f 47//24 49//25 48//24
f 49//25 50//25 48//24
f 49//25 51//26 50//25
f 51//26 52//26 50//25
f 51//26 53//27 52//26
f 53//27 54//27 52//26
f 53//27 55//28 54//27
f 55//28 56//28 54//27
f 55//28 57//29 56//28
f 57//29 58//29 56//28
f 57//29 59//30 58//29
f 59//30 60//30 58//29
f 59//30 61//31 60//30
f 61//31 62//31 60//30
f 61//31 63//32 62//31
f 63//32 64//32 62//31
f 63//32 65//1 64//32
f 65//1 66//1 64//32
f 67//33 68//33 69//33
f 70//33 67//33 69//33
f 71//33 72//33 73//33
f 74//33 71//33 73//33
f 75//33 76//33 77//33
f 78//33 75//33 77//33
f 79//33 80//33 81//33
f 82//33 79//33 81//33
f 83//33 84//33 85//33
f 86//33 83//33 85//33
f 87//33 88//33 89//33
f 90//33 87//33 89//33
f 91//33 92//33 93//33
f 94//33 91//33 93//33
f 95//33 96//33 97//33
f 98//33 95//33 97//33
f 99//33 100//33 101//33
f 102//33 99//33 101//33
f 103//33 104//33 105//33
f 106//33 103//33 105//33
f 107//33 108//33 109//33
f 110//33 107//33 109//33
f 111//33 112//33 113//33
f 114//33 111//33 113//33
f 115//33 116//33 117//33
f 118//33 115//33 117//33
f 119//33 120//33 121//33
f 122//33 119//33 121//33
f 123//33 124//33 125//33
f 126//33 123//33 125//33
f 127//33 128//33 129//33
f 130//33 127//33 129//33
f 131//33 132//33 133//33
f 134//33 131//33 133//33
f 135//33 136//33 137//33
f 138//33 135//33 137//33
f 139//33 140//33 141//33
f 142//33 139//33 141//33
f 143//33 144//33 145//33
f 146//33 143//33 145//33
f 147//33 148//33 149//33
f 150//33 147//33 149//33
f 151//33 152//33 153//33
f 154//33 151//33 153//33
f 155//33 156//33 157//33
f 158//33 155//33 157//33
f 159//33 160//33 161//33
f 162//33 159//33 161//33
f 163//33 164//33 165//33
f 166//33 163//33 165//33
f 167//33 168//33 169//33
f 170//33 167//33 169//33
f 171//33 172//33 173//33
f 174//33 171//33 173//33
f 175//33 176//33 177//33
f 178//33 175//33 177//33
f 179//33 180//33 181//33
f 182//33 179//33 181//33
f 183//33 184//33 185//33
f 186//33 183//33 185//33
f 187//33 188//33 189//33
f 190//33 187//33 189//33
f 191//33 192//33 193//33
f 194//33 191//33 193//33
f 195//34 196//34 197//34
f 198//34 195//34 197//34
f 199//34 200//34 201//34
f 202//34 199//34 201//34
f 203//34 204//34 205//34
f 206//34 203//34 205//34
f 207//34 208//34 209//34
f 210//34 207//34 209//34
f 211//34 212//34 213//34
f 214//34 211//34 213//34
f 215//34 216//34 217//34
f 218//34 215//34 217//34
f 219//34 220//34 221//34
f 222//34 219//34 221//34
f 223//34 224//34 225//34
f 226//34 223//34 225//34
f 227//34 228//34 229//34
f 230//34 227//34 229//34
f 231//34 232//34 233//34
f 234//34 231//34 233//34
f 235//34 236//34 237//34
f 238//34 235//34 237//34
f 239//34 240//34 241//34
f 242//34 239//34 241//34
f 243//34 244//34 245//34
f 246//34 243//34 245//34
f 247//34 248//34 249//34
f 250//34 247//34 249//34
f 251//34 252//34 253//34
f 254//34 251//34 253//34
f 255//34 256//34 257//34
f 258//34 255//34 257//34
f 259//34 260//34 261//34
f 262//34 259//34 261//34
f 263//34 264//34 265//34
f 266//34 263//34 265//34
f 267//34 268//34 269//34
f 270//34 267//34 269//34
f 271//34 272//34 273//34
f 274//34 271//34 273//34
f 275//34 276//34 277//34
f 278//34 275//34 277//34
f 279//34 280//34 281//34
f 282//34 279//34 281//34
f 283//34 284//34 285//34
f 286//34 283//34 285//34
f 287//34 288//34 289//34
f 290//34 287//34 289//34
f 291//34 292//34 293//34
f 294//34 291//34 293//34
f 295//34 296//34 297//34
f 298//34 295//34 297//34
f 299//34 300//34 301//34
f 302//34 299//34 301//34
f 303//34 304//34 305//34
f 306//34 303//34 305//34
f 307//34 308//34 309//34
f 310//34 307//34 309//34
f 311//34 312//34 313//34
f 314//34 311//34 313//34
f 315//34 316//34 317//34
f 318//34 315//34 317//34
f 319//34 320//34 321//34
f 322//34 319//34 321//34
f 323//23 324//23 325//22
f 324//23 326//22 325//22
f 325//22 326//22 327//21
f 326//22 328//21 327//21
f 327//21 328//21 329//20
f 328//21 330//20 329//20
f 329//20 330//20 331//19
f 330//20 332//19 331//19
f 331//19 332//19 333//18
f 332//19 334//18 333//18
f 333//18 334//18 335//17
f 334//18 336//17 335//17
f 335//17 336//17 337//16
f 336//17 338//16 337//16
f 337//16 338//16 339//35
f 338//16 340//35 339//35
f 341//24 342//23 343//36
f 344//24 341//24 343//36
f 345//25 341//24 344//24
f 346//25 345//25 344//24
f 347//26 345//25 346//25
f 348//26 347//26 346//25
f 349//27 347//26 348//26
f 350//27 349//27 348//26
f 351//28 349//27 350//27
f 352//28 351//28 350//27
f 353//29 351//28 352//28
f 354//29 353//29 352//28
f 355//30 353//29 354//29
f 356//30 355//30 354//29
f 357//31 355//30 356//30
f 358//31 357//31 356//30
f 359//32 360//37 361//37
f 362//32 359//32 361//37
f 363//1 359//32 362//32
f 364//1 363//1 362//32
f 365//2 363//1 364//1
f 366//2 365//2 364//1
f 367//3 365//2 366//2
f 368//3 367//3 366//2
f 369//4 367//3 368//3
f 370//4 369//4 368//3
f 371//5 369//4 370//4
f 372//5 371//5 370//4
f 373//6 371//5 372//5
f 374//6 373//6 372//5
f 375//7 373//6 374//6
f 376//7 375//7 374//6
f 377//8 378//38 379//38
f 380//8 377//8 379//38
f 381//9 377//8 380//8
f 382//9 381//9 380//8
f 383//10 381//9 382//9
f 384//10 383//10 382//9
f 385//11 383//10 384//10
f 386//11 385//11 384//10
f 387//12 385//11 386//11
f 388//12 387//12 386//11
f 389//13 387//12 388//12
f 390//13 389//13 388//12
f 391//14 389//13 390//13
f 392//14 391//14 390//13
f 393//15 391//14 392//14
f 394//15 393//15 392//14
