# Exported from Blender
v -0.235936 -0.551706 -0.586920
v -0.436059 -0.417989 0.750255
v -0.235936 -0.551706 0.750255
v -0.436058 -0.417989 -0.586920
v -0.569775 -0.217866 0.750255
v -0.569775 -0.217867 -0.586921
v -0.616730 0.018194 0.750255
v -0.616730 0.018194 -0.586921
v -0.569775 0.254255 0.750255
v -0.569775 0.254255 -0.586921
v -0.436059 0.454377 0.750255
v -0.436058 0.454377 -0.586921
v -0.235936 0.588095 0.750254
v -0.235936 0.588095 -0.586921
v 0.000125 0.635050 0.750254
v 0.000126 0.635050 -0.586921
v 0.236187 0.588095 0.750254
v 0.236187 0.588095 -0.586921
v 0.436309 0.454377 0.750255
v 0.436310 0.454377 -0.586921
v 0.570028 0.254255 0.750255
v 0.570028 0.254255 -0.586921
v 0.616981 0.018195 0.750255
v 0.616981 0.018194 -0.586921
v 0.570028 -0.217866 0.750255
v 0.570028 -0.217867 -0.586921
v 0.436309 -0.417989 0.750255
v 0.436310 -0.417989 -0.586920
v 0.236187 -0.551706 0.750255
v 0.236187 -0.551706 -0.586920
v 0.000125 -0.598661 0.750255
v 0.000126 -0.598662 -0.586920
v 0.213702 0.533817 0.965298
v 0.394767 0.412836 0.965299
v 0.000125 0.576301 0.965298
v 0.515748 0.231773 0.965299
v -0.213454 0.533818 0.965298
v 0.558233 0.018195 0.965299
v -0.394516 0.412836 0.965299
v 0.515748 -0.195384 0.965299
v -0.515498 0.231774 0.965299
v 0.394767 -0.376447 0.965299
v -0.557980 0.018195 0.965299
v 0.213702 -0.497428 0.965299
v -0.515498 -0.195384 0.965299
v 0.000125 -0.539912 0.965299
v -0.394516 -0.376447 0.965299
v -0.213454 -0.497429 0.965299
v -0.397475 0.018195 1.122722
v -0.367209 -0.133962 1.122722
v -0.281022 -0.262951 1.122722
v -0.152030 -0.349140 1.122722
v 0.000125 -0.379405 1.122722
v 0.152280 -0.349140 1.122722
v -0.367209 0.170351 1.122722
v 0.281272 -0.262951 1.122722
v -0.281022 0.299341 1.122722
v 0.367459 -0.133961 1.122722
v -0.152030 0.385529 1.122722
v 0.397725 0.018195 1.122722
v 0.000125 0.415794 1.122722
v 0.367459 0.170350 1.122722
v 0.152280 0.385529 1.122722
v 0.281272 0.299340 1.122722
v -0.125985 0.144302 1.180340
v -0.068126 0.182963 1.180340
v 0.000125 0.196538 1.180340
v 0.068374 0.182963 1.180340
v 0.126233 0.144302 1.180340
v 0.164893 0.086445 1.180340
v 0.178468 0.018195 1.180340
v 0.164893 -0.050056 1.180340
v 0.126233 -0.107913 1.180340
v 0.068374 -0.146574 1.180340
v 0.000125 -0.160149 1.180340
v -0.068126 -0.146573 1.180340
v -0.125985 -0.107913 1.180340
v -0.164643 0.086446 1.180340
v -0.164643 -0.050056 1.180340
v -0.178220 0.018195 1.180340
v 0.213703 0.533817 -0.801964
v 0.394768 0.412835 -0.801963
v 0.515749 0.231773 -0.801963
v 0.000126 0.576300 -0.801964
v 0.558233 0.018194 -0.801963
v -0.213453 0.533817 -0.801964
v 0.515749 -0.195384 -0.801963
v -0.394516 0.412835 -0.801963
v 0.394768 -0.376447 -0.801963
v -0.515497 0.231773 -0.801963
v 0.213703 -0.497429 -0.801963
v -0.557980 0.018194 -0.801963
v 0.000126 -0.539912 -0.801963
v -0.515497 -0.195385 -0.801963
v -0.213453 -0.497429 -0.801963
v -0.394516 -0.376447 -0.801963
v 0.152281 -0.349140 -0.959386
v 0.000126 -0.379406 -0.959386
v -0.152029 -0.349140 -0.959386
v -0.281021 -0.262952 -0.959386
v -0.367209 -0.133963 -0.959386
v -0.397474 0.018194 -0.959386
v 0.281273 -0.262952 -0.959386
v -0.367209 0.170350 -0.959386
v 0.367460 -0.133962 -0.959386
v -0.281021 0.299340 -0.959386
v 0.397726 0.018194 -0.959386
v -0.152029 0.385529 -0.959386
v 0.367460 0.170350 -0.959386
v 0.000126 0.415794 -0.959386
v 0.281273 0.299340 -0.959386
v 0.152281 0.385528 -0.959386
v 0.164894 -0.050056 -1.017007
v 0.178469 0.018194 -1.017007
v 0.126234 -0.107914 -1.017007
v 0.164894 0.086445 -1.017007
v 0.126234 0.144302 -1.017007
v 0.068375 -0.146574 -1.017007
v 0.068375 0.182962 -1.017007
v 0.000126 0.196538 -1.017007
v 0.000126 -0.160150 -1.017007
v -0.068125 0.182962 -1.017007
v -0.068125 -0.146574 -1.017007
v -0.125984 0.144302 -1.017007
v -0.125984 -0.107913 -1.017007
v -0.164642 0.086445 -1.017007
v -0.164642 -0.050057 -1.017007
v -0.178219 0.018194 -1.017007
v -0.164642 0.086444 -1.085588
v -0.178219 0.018194 -1.085588
v -0.164642 -0.050057 -1.085588
v -0.125984 -0.107913 -1.085588
v -0.125984 0.144302 -1.085588
v -0.068125 0.182962 -1.085588
v -0.068125 -0.146574 -1.085588
v 0.000126 0.196538 -1.085588
v 0.000126 -0.160150 -1.085588
v 0.068375 0.182962 -1.085588
v 0.068375 -0.146574 -1.085588
v 0.126234 0.144302 -1.085588
v 0.126234 -0.107914 -1.085588
v 0.164894 0.086445 -1.085588
v 0.164894 -0.050056 -1.085588
v 0.178469 0.018194 -1.085588
v -0.236428 -0.552896 -0.611825
v -0.436968 -0.418899 -0.541040
v -0.236428 -0.552896 -0.541040
v -0.436968 -0.418899 -0.611825
v -0.570964 -0.218359 -0.541040
v -0.570964 -0.218359 -0.611825
v -0.618017 0.018194 -0.541040
v -0.618017 0.018194 -0.611825
v -0.570964 0.254748 -0.541040
v -0.570964 0.254748 -0.611825
v -0.436968 0.455288 -0.541040
v -0.436968 0.455288 -0.611825
v -0.236428 0.589284 -0.541041
v -0.236428 0.589284 -0.611826
v 0.000126 0.636338 -0.541041
v 0.000126 0.636338 -0.611825
v 0.236679 0.589284 -0.541041
v 0.236679 0.589284 -0.611826
v 0.437220 0.455288 -0.541041
v 0.437220 0.455288 -0.611825
v 0.571218 0.254748 -0.541041
v 0.571218 0.254748 -0.611825
v 0.618269 0.018194 -0.541041
v 0.618269 0.018194 -0.611825
v 0.571218 -0.218359 -0.541041
v 0.571218 -0.218359 -0.611825
v 0.437220 -0.418899 -0.541040
v 0.437220 -0.418899 -0.611825
v 0.236679 -0.552896 -0.541040
v 0.236679 -0.552896 -0.611825
v 0.000126 -0.599949 -0.541040
v 0.000126 -0.599949 -0.611825
v -0.236428 -0.552896 0.703415
v -0.436969 -0.418899 0.774201
v -0.236428 -0.552896 0.774201
v -0.436969 -0.418899 0.703415
v -0.570965 -0.218359 0.774201
v -0.570965 -0.218359 0.703415
v -0.618017 0.018194 0.774201
v -0.618017 0.018194 0.703415
v -0.570965 0.254748 0.774201
v -0.570965 0.254748 0.703415
v -0.436969 0.455288 0.774201
v -0.436969 0.455288 0.703415
v -0.236428 0.589285 0.774201
v -0.236428 0.589284 0.703415
v 0.000125 0.636338 0.774201
v 0.000125 0.636338 0.703415
v 0.236679 0.589285 0.774201
v 0.236679 0.589285 0.703415
v 0.437219 0.455288 0.774201
v 0.437219 0.455288 0.703415
v 0.571217 0.254748 0.774201
v 0.571217 0.254748 0.703415
v 0.618269 0.018195 0.774201
v 0.618269 0.018194 0.703415
v 0.571217 -0.218359 0.774201
v 0.571217 -0.218359 0.703415
v 0.437219 -0.418899 0.774201
v 0.437219 -0.418899 0.703415
v 0.236679 -0.552895 0.774201
v 0.236679 -0.552896 0.703415
v 0.000125 -0.599949 0.774201
v 0.000125 -0.599949 0.703415
vn -0.382432 -0.923271 -0.036275
vn -0.706639 -0.706644 0.036274
vn -0.382437 -0.923269 0.036274
vn -0.706638 -0.706645 -0.036274
vn -0.923271 -0.382433 0.036274
vn -0.923270 -0.382435 -0.036275
vn -0.999342 -0.000004 0.036275
vn -0.999342 -0.000008 -0.036276
vn -0.923274 0.382425 0.036274
vn -0.923275 0.382423 -0.036275
vn -0.706645 0.706638 0.036273
vn -0.706648 0.706635 -0.036275
vn -0.382434 0.923270 0.036273
vn -0.382437 0.923269 -0.036275
vn -0.000004 0.999342 0.036274
vn -0.000007 0.999342 -0.036276
vn 0.382428 0.923273 0.036276
vn 0.382424 0.923275 -0.036276
vn 0.706637 0.706646 0.036275
vn 0.706635 0.706648 -0.036275
vn 0.923271 0.382432 0.036277
vn 0.923269 0.382437 -0.036276
vn 0.999342 0.000006 0.036274
vn 0.999342 0.000006 -0.036274
vn 0.923274 -0.382426 0.036276
vn 0.923276 -0.382421 -0.036277
vn 0.706631 -0.706652 0.036275
vn 0.706645 -0.706638 -0.036275
vn 0.382435 -0.923270 0.036276
vn 0.382438 -0.923269 -0.036276
vn 0.000004 -0.999342 0.036275
vn 0.000007 -0.999342 -0.036275
vn 0.335054 0.808903 0.483130
vn 0.619108 0.619106 0.483129
vn 0.000001 0.875549 0.483129
vn 0.808903 0.335053 0.483131
vn -0.335070 0.808927 0.483079
vn 0.875576 -0.000002 0.483080
vn -0.619126 0.619126 0.483079
vn 0.808923 -0.335072 0.483084
vn -0.808930 0.335062 0.483079
vn 0.619123 -0.619128 0.483081
vn -0.875576 -0.000000 0.483079
vn 0.335052 -0.808904 0.483131
vn -0.808903 -0.335058 0.483128
vn -0.000002 -0.875549 0.483130
vn -0.619121 -0.619130 0.483080
vn -0.335054 -0.808903 0.483129
vn -0.548816 -0.000003 0.835943
vn -0.507038 -0.210023 0.835944
vn -0.388058 -0.388083 0.835944
vn -0.210019 -0.507038 0.835945
vn 0.000002 -0.548813 0.835945
vn 0.210022 -0.507036 0.835945
vn -0.507078 0.210042 0.835915
vn 0.388072 -0.388068 0.835945
vn -0.388068 0.388073 0.835944
vn 0.507080 -0.210035 0.835916
vn -0.210017 0.507039 0.835945
vn 0.548811 0.000024 0.835946
vn 0.000003 0.548814 0.835944
vn 0.507035 0.210023 0.835946
vn 0.210023 0.507037 0.835945
vn 0.388058 0.388082 0.835945
vn -0.061374 0.061389 0.996225
vn -0.033209 0.080202 0.996225
vn 0.000000 0.086845 0.996222
vn 0.033227 0.080218 0.996223
vn 0.061404 0.061403 0.996222
vn 0.080215 0.033226 0.996224
vn 0.086850 0.000016 0.996221
vn 0.080202 -0.033219 0.996225
vn 0.061380 -0.061380 0.996225
vn 0.033221 -0.080197 0.996225
vn 0.000003 -0.086844 0.996222
vn -0.033226 -0.080219 0.996223
vn -0.061391 -0.061414 0.996223
vn -0.080196 0.033231 0.996225
vn -0.080216 -0.033221 0.996224
vn -0.086799 -0.000000 0.996226
vn 0.335051 0.808904 -0.483131
vn 0.619124 0.619128 -0.483081
vn 0.808900 0.335058 -0.483132
vn -0.000003 0.875575 -0.483081
vn 0.875576 0.000000 -0.483080
vn -0.335061 0.808900 -0.483130
vn 0.808901 -0.335056 -0.483131
vn -0.619129 0.619123 -0.483081
vn 0.619125 -0.619126 -0.483081
vn -0.808929 0.335063 -0.483080
vn 0.335066 -0.808927 -0.483082
vn -0.875576 -0.000004 -0.483081
vn 0.000000 -0.875576 -0.483081
vn -0.808902 -0.335059 -0.483128
vn -0.335068 -0.808927 -0.483081
vn -0.619126 -0.619125 -0.483080
vn 0.210020 -0.507042 -0.835942
vn -0.000002 -0.548863 -0.835912
vn -0.210024 -0.507040 -0.835943
vn -0.388074 -0.388071 -0.835942
vn -0.507085 -0.210038 -0.835912
vn -0.548819 0.000003 -0.835941
vn 0.388074 -0.388071 -0.835942
vn -0.507041 0.210024 -0.835942
vn 0.507084 -0.210037 -0.835913
vn -0.388076 0.388070 -0.835942
vn 0.548816 0.000004 -0.835943
vn -0.210037 0.507084 -0.835913
vn 0.507082 0.210042 -0.835913
vn -0.000003 0.548817 -0.835943
vn 0.388070 0.388075 -0.835942
vn 0.210042 0.507082 -0.835913
vn 0.706142 -0.292495 -0.644834
vn 0.764326 -0.000003 -0.644830
vn 0.540456 -0.540464 -0.644831
vn 0.706145 0.292488 -0.644834
vn 0.540459 0.540460 -0.644832
vn 0.292492 -0.706145 -0.644831
vn 0.292497 0.706143 -0.644831
vn 0.000004 0.764324 -0.644832
vn -0.000001 -0.764325 -0.644831
vn -0.292490 0.706146 -0.644831
vn -0.292497 -0.706143 -0.644831
vn -0.540458 0.540458 -0.644834
vn -0.540463 -0.540456 -0.644832
vn -0.706145 0.292496 -0.644829
vn -0.706145 -0.292493 -0.644830
vn -0.764324 0.000005 -0.644833
vn -0.695311 0.288002 -0.658481
vn -0.752585 -0.000003 -0.658496
vn -0.695302 -0.288009 -0.658487
vn -0.532164 -0.532166 -0.658483
vn -0.532165 0.532153 -0.658494
vn -0.288005 0.695297 -0.658495
vn -0.287999 -0.695305 -0.658489
vn -0.000004 0.752596 -0.658483
vn 0.000006 -0.752595 -0.658483
vn 0.287999 0.695304 -0.658490
vn 0.288007 -0.695297 -0.658494
vn 0.532151 0.532162 -0.658498
vn 0.532165 -0.532163 -0.658485
vn 0.695314 0.288010 -0.658474
vn 0.695310 -0.288000 -0.658483
vn 0.752579 0.000004 -0.658502
vn -0.382679 -0.923882 0.000000
vn -0.707111 -0.707103 0.000001
vn -0.382687 -0.923878 -0.000000
vn -0.707104 -0.707109 0.000001
vn -0.923882 -0.382678 0.000001
vn -0.923878 -0.382687 0.000001
vn -1.000000 0.000005 0.000001
vn -1.000000 -0.000005 0.000001
vn -0.923878 0.382687 0.000000
vn -0.923882 0.382678 -0.000000
vn -0.707104 0.707109 -0.000002
vn -0.707111 0.707103 -0.000002
vn -0.382679 0.923882 -0.000000
vn -0.382687 0.923878 -0.000000
vn 0.000005 1.000000 0.000000
vn -0.000005 1.000000 0.000000
vn 0.382687 0.923878 0.000000
vn 0.382678 0.923882 0.000000
vn 0.707108 0.707106 -0.000000
vn 0.707101 0.707112 -0.000000
vn 0.923882 0.382677 -0.000000
vn 0.923879 0.382686 -0.000000
vn 1.000000 -0.000005 -0.000000
vn 1.000000 0.000005 0.000000
vn 0.923878 -0.382686 0.000000
vn 0.923882 -0.382677 -0.000000
vn 0.707101 -0.707112 -0.000000
vn 0.707108 -0.707106 -0.000000
vn 0.382678 -0.923882 -0.000000
vn 0.382687 -0.923878 -0.000000
vn -0.000004 -1.000000 0.000000
vn 0.000005 -1.000000 -0.000000
vn -0.382678 -0.923882 0.000002
vn -0.707111 -0.707103 0.000001
vn -0.382687 -0.923878 0.000002
vn -0.707104 -0.707110 0.000001
vn -0.923882 -0.382677 0.000000
vn -0.923879 -0.382686 0.000000
vn -1.000000 0.000005 -0.000000
vn -1.000000 -0.000005 0.000000
vn -0.923879 0.382686 -0.000000
vn -0.923882 0.382677 -0.000000
vn -0.707103 0.707110 -0.000001
vn -0.707110 0.707104 -0.000001
vn -0.382678 0.923882 -0.000000
vn -0.382687 0.923878 0.000000
vn 0.000004 1.000000 -0.000001
vn -0.000006 1.000000 -0.000001
vn 0.382687 0.923878 -0.000002
vn 0.382678 0.923882 -0.000002
vn 0.707109 0.707105 -0.000001
vn 0.707102 0.707112 -0.000000
vn 0.923882 0.382677 0.000000
vn 0.923878 0.382686 0.000000
vn 1.000000 -0.000005 0.000000
vn 1.000000 0.000005 0.000000
vn 0.923879 -0.382686 0.000000
vn 0.923882 -0.382677 0.000000
vn 0.707102 -0.707112 0.000000
vn 0.707109 -0.707105 0.000000
vn 0.382679 -0.923881 0.000001
vn 0.382688 -0.923878 0.000001
vn -0.000005 -1.000000 0.000001
vn 0.000005 -1.000000 0.000001
f 1//1 3//3 2//2
f 1//1 2//2 4//4
f 4//4 2//2 5//5
f 4//4 5//5 6//6
f 6//6 5//5 7//7
f 6//6 7//7 8//8
f 8//8 7//7 9//9
f 8//8 9//9 10//10
f 10//10 9//9 11//11
f 10//10 11//11 12//12
f 12//12 11//11 13//13
f 12//12 13//13 14//14
f 14//14 13//13 15//15
f 14//14 15//15 16//16
f 16//16 15//15 17//17
f 16//16 17//17 18//18
f 18//18 17//17 19//19
f 18//18 19//19 20//20
f 20//20 19//19 21//21
f 20//20 21//21 22//22
f 22//22 21//21 23//23
f 22//22 23//23 24//24
f 24//24 23//23 25//25
f 24//24 25//25 26//26
f 26//26 25//25 27//27
f 26//26 27//27 28//28
f 28//28 27//27 29//29
f 28//28 29//29 30//30
f 30//30 29//29 31//31
f 30//30 31//31 32//32
f 32//32 31//31 3//3
f 32//32 3//3 1//1
f 33//33 19//19 17//17
f 33//33 34//34 19//19
f 34//34 21//21 19//19
f 35//35 33//33 17//17
f 35//35 17//17 15//15
f 34//34 36//36 21//21
f 36//36 23//23 21//21
f 37//37 35//35 15//15
f 37//37 15//15 13//13
f 36//36 38//38 23//23
f 38//38 25//25 23//23
f 39//39 37//37 13//13
f 39//39 13//13 11//11
f 38//38 40//40 25//25
f 40//40 27//27 25//25
f 41//41 39//39 11//11
f 41//41 11//11 9//9
f 40//40 42//42 27//27
f 42//42 29//29 27//27
f 43//43 41//41 9//9
f 43//43 9//9 7//7
f 42//42 44//44 29//29
f 44//44 31//31 29//29
f 45//45 43//43 7//7
f 45//45 7//7 5//5
f 44//44 46//46 31//31
f 46//46 3//3 31//31
f 47//47 45//45 5//5
f 47//47 5//5 2//2
f 48//48 2//2 3//3
f 46//46 48//48 3//3
f 48//48 47//47 2//2
f 49//49 41//41 43//43
f 50//50 43//43 45//45
f 50//50 49//49 43//43
f 51//51 45//45 47//47
f 51//51 50//50 45//45
f 52//52 47//47 48//48
f 52//52 51//51 47//47
f 53//53 48//48 46//46
f 53//53 52//52 48//48
f 54//54 46//46 44//44
f 54//54 53//53 46//46
f 49//49 55//55 41//41
f 55//55 39//39 41//41
f 56//56 54//54 44//44
f 56//56 44//44 42//42
f 55//55 57//57 39//39
f 57//57 37//37 39//39
f 58//58 56//56 42//42
f 58//58 42//42 40//40
f 57//57 59//59 37//37
f 59//59 35//35 37//37
f 60//60 58//58 40//40
f 60//60 40//40 38//38
f 59//59 61//61 35//35
f 61//61 33//33 35//35
f 62//62 60//60 38//38
f 62//62 38//38 36//36
f 61//61 63//63 33//33
f 63//63 34//34 33//33
f 64//64 36//36 34//34
f 64//64 62//62 36//36
f 63//63 64//64 34//34
f 65//65 59//59 57//57
f 66//66 61//61 59//59
f 65//65 66//66 59//59
f 67//67 63//63 61//61
f 66//66 67//67 61//61
f 68//68 64//64 63//63
f 67//67 68//68 63//63
f 69//69 62//62 64//64
f 68//68 69//69 64//64
f 70//70 60//60 62//62
f 69//69 70//70 62//62
f 70//70 71//71 60//60
f 71//71 58//58 60//60
f 70//70 72//72 71//71
f 71//71 72//72 58//58
f 69//69 72//72 70//70
f 72//72 56//56 58//58
f 69//69 73//73 72//72
f 72//72 73//73 56//56
f 68//68 73//73 69//69
f 73//73 54//54 56//56
f 68//68 74//74 73//73
f 73//73 74//74 54//54
f 67//67 74//74 68//68
f 74//74 53//53 54//54
f 67//67 75//75 74//74
f 74//74 75//75 53//53
f 66//66 75//75 67//67
f 75//75 52//52 53//53
f 66//66 76//76 75//75
f 75//75 76//76 52//52
f 76//76 51//51 52//52
f 65//65 76//76 66//66
f 76//76 77//77 51//51
f 65//65 77//77 76//76
f 77//77 50//50 51//51
f 78//78 77//77 65//65
f 78//78 65//65 57//57
f 78//78 57//57 55//55
f 77//77 79//79 50//50
f 78//78 79//79 77//77
f 79//79 49//49 50//50
f 80//80 55//55 49//49
f 80//80 78//78 55//55
f 79//79 78//78 80//80
f 79//79 80//80 49//49
f 18//18 82//82 81//81
f 18//18 20//20 82//82
f 16//16 18//18 81//81
f 20//20 83//83 82//82
f 20//20 22//22 83//83
f 16//16 81//81 84//84
f 14//14 16//16 84//84
f 22//22 85//85 83//83
f 22//22 24//24 85//85
f 14//14 84//84 86//86
f 12//12 14//14 86//86
f 24//24 87//87 85//85
f 24//24 26//26 87//87
f 12//12 86//86 88//88
f 10//10 12//12 88//88
f 26//26 89//89 87//87
f 26//26 28//28 89//89
f 10//10 88//88 90//90
f 8//8 10//10 90//90
f 28//28 91//91 89//89
f 28//28 30//30 91//91
f 8//8 90//90 92//92
f 6//6 8//8 92//92
f 30//30 93//93 91//91
f 30//30 32//32 93//93
f 6//6 92//92 94//94
f 4//4 6//6 94//94
f 32//32 95//95 93//93
f 32//32 1//1 95//95
f 1//1 4//4 96//96
f 4//4 94//94 96//96
f 1//1 96//96 95//95
f 89//89 91//91 97//97
f 91//91 93//93 98//98
f 91//91 98//98 97//97
f 93//93 95//95 99//99
f 93//93 99//99 98//98
f 95//95 96//96 100//100
f 95//95 100//100 99//99
f 96//96 94//94 101//101
f 96//96 101//101 100//100
f 94//94 92//92 102//102
f 94//94 102//102 101//101
f 89//89 97//97 103//103
f 87//87 89//89 103//103
f 92//92 104//104 102//102
f 92//92 90//90 104//104
f 87//87 103//103 105//105
f 85//85 87//87 105//105
f 90//90 106//106 104//104
f 90//90 88//88 106//106
f 85//85 105//105 107//107
f 83//83 85//85 107//107
f 88//88 108//108 106//106
f 88//88 86//86 108//108
f 83//83 107//107 109//109
f 82//82 83//83 109//109
f 86//86 110//110 108//108
f 86//86 84//84 110//110
f 82//82 109//109 111//111
f 81//81 82//82 111//111
f 84//84 81//81 112//112
f 84//84 112//112 110//110
f 81//81 111//111 112//112
f 107//107 105//105 113//113
f 107//107 113//113 114//114
f 109//109 107//107 114//114
f 105//105 115//115 113//113
f 109//109 114//114 116//116
f 111//111 109//109 116//116
f 105//105 103//103 115//115
f 111//111 116//116 117//117
f 112//112 111//111 117//117
f 103//103 118//118 115//115
f 112//112 117//117 119//119
f 110//110 112//112 119//119
f 103//103 97//97 118//118
f 110//110 119//119 120//120
f 97//97 121//121 118//118
f 108//108 110//110 120//120
f 97//97 98//98 121//121
f 108//108 120//120 122//122
f 98//98 123//123 121//121
f 106//106 108//108 122//122
f 98//98 99//99 123//123
f 106//106 122//122 124//124
f 99//99 125//125 123//123
f 104//104 106//106 124//124
f 99//99 100//100 125//125
f 104//104 124//124 126//126
f 100//100 127//127 125//125
f 102//102 104//104 126//126
f 100//100 101//101 127//127
f 102//102 126//126 128//128
f 101//101 128//128 127//127
f 101//101 102//102 128//128
f 129//129 131//131 130//130
f 131//131 129//129 132//132
f 132//132 129//129 133//133
f 132//132 133//133 134//134
f 132//132 134//134 135//135
f 135//135 134//134 136//136
f 135//135 136//136 137//137
f 137//137 136//136 138//138
f 137//137 138//138 139//139
f 139//139 138//138 140//140
f 139//139 140//140 141//141
f 141//141 140//140 142//142
f 141//141 142//142 143//143
f 143//143 142//142 144//144
f 118//118 121//121 137//137
f 118//118 137//137 139//139
f 115//115 118//118 139//139
f 115//115 139//139 141//141
f 113//113 115//115 141//141
f 113//113 141//141 143//143
f 114//114 113//113 143//143
f 114//114 143//143 144//144
f 116//116 114//114 144//144
f 116//116 144//144 142//142
f 117//117 116//116 142//142
f 117//117 142//142 140//140
f 119//119 117//117 140//140
f 119//119 140//140 138//138
f 120//120 119//119 138//138
f 120//120 138//138 136//136
f 122//122 120//120 136//136
f 122//122 136//136 134//134
f 124//124 122//122 134//134
f 124//124 134//134 133//133
f 126//126 124//124 133//133
f 126//126 133//133 129//129
f 128//128 126//126 129//129
f 128//128 129//129 130//130
f 127//127 128//128 130//130
f 127//127 130//130 131//131
f 125//125 127//127 131//131
f 125//125 131//131 132//132
f 123//123 125//125 132//132
f 123//123 132//132 135//135
f 121//121 123//123 135//135
f 121//121 135//135 137//137
f 145//145 147//147 146//146
f 145//145 146//146 148//148
f 148//148 146//146 149//149
f 148//148 149//149 150//150
f 150//150 149//149 151//151
f 150//150 151//151 152//152
f 152//152 151//151 153//153
f 152//152 153//153 154//154
f 154//154 153//153 155//155
f 154//154 155//155 156//156
f 156//156 155//155 157//157
f 156//156 157//157 158//158
f 158//158 157//157 159//159
f 158//158 159//159 160//160
f 160//160 159//159 161//161
f 160//160 161//161 162//162
f 162//162 161//161 163//163
f 162//162 163//163 164//164
f 164//164 163//163 165//165
f 164//164 165//165 166//166
f 166//166 165//165 167//167
f 166//166 167//167 168//168
f 168//168 167//167 169//169
f 168//168 169//169 170//170
f 170//170 169//169 171//171
f 170//170 171//171 172//172
f 172//172 171//171 173//173
f 172//172 173//173 174//174
f 174//174 173//173 175//175
f 174//174 175//175 176//176
f 176//176 175//175 147//147
f 176//176 147//147 145//145
f 177//177 179//179 178//178
f 177//177 178//178 180//180
f 180//180 178//178 181//181
f 180//180 181//181 182//182
f 182//182 181//181 183//183
f 182//182 183//183 184//184
f 184//184 183//183 185//185
f 184//184 185//185 186//186
f 186//186 185//185 187//187
f 186//186 187//187 188//188
f 188//188 187//187 189//189
f 188//188 189//189 190//190
f 190//190 189//189 191//191
f 190//190 191//191 192//192
f 192//192 191//191 193//193
f 192//192 193//193 194//194
f 194//194 193//193 195//195
f 194//194 195//195 196//196
f 196//196 195//195 197//197
f 196//196 197//197 198//198
f 198//198 197//197 199//199
f 198//198 199//199 200//200
f 200//200 199//199 201//201
f 200//200 201//201 202//202
f 202//202 201//201 203//203
f 202//202 203//203 204//204
f 204//204 203//203 205//205
f 204//204 205//205 206//206
f 206//206 205//205 207//207
f 206//206 207//207 208//208
f 208//208 207//207 179//179
f 208//208 179//179 177//177
