# Blender 4.3.2
# www.blender.org
mtllib guardTower1.mtl
o guardTower1
v -2.891351 11.001510 2.752389
v -2.891349 11.001510 -2.853192
v 2.690099 11.001510 -2.853187
v 2.690099 11.001510 2.752389
v -2.891350 -0.712656 2.752392
v 2.690100 -0.712656 2.752392
v 2.690100 -0.712656 -2.853184
v -2.891347 -0.712656 -2.853189
v 2.921367 19.950001 -3.094110
v -3.078632 19.949999 -3.094110
v -3.078632 19.950001 2.905890
v 2.921368 19.950001 2.905890
v 2.921368 20.050001 2.905890
v -3.078632 20.050001 2.905890
v -3.078632 20.049999 -3.094110
v 2.921367 20.049999 -3.094110
v -1.581769 14.001511 1.436409
v 1.380516 14.001511 1.436409
v 1.380515 17.001509 1.436408
v -1.581770 17.001509 1.436408
v -1.581769 11.001510 1.436410
v 1.380517 11.001510 1.436410
v -1.581769 11.001510 -1.537208
v -1.581769 14.001511 -1.537210
v 1.380519 11.001510 -1.537206
v 1.380518 14.001511 -1.537207
v 1.380518 17.001509 -1.537208
v -1.581770 17.001509 -1.537210
v -1.581770 20.001509 -1.537211
v 1.380518 20.001509 -1.537208
v 1.380515 20.001509 1.436408
v -1.581770 20.001509 1.436408
v -1.406394 21.033310 0.609488
v -1.406392 21.033308 -1.324027
v -1.406392 21.947546 -1.324027
v -1.406394 21.947546 0.609488
v 1.229883 21.033308 -1.323494
v 1.229882 21.947546 -1.323494
v 1.229456 21.033310 1.225734
v 1.229456 21.947548 1.225734
v -0.790158 21.033310 1.225730
v -0.790158 21.947546 1.225730
v -3.028896 20.049423 2.872190
v 2.895674 20.049423 2.872190
v 2.895674 20.799423 2.872190
v -3.028896 20.799423 2.872190
v -3.028896 20.049421 -3.075046
v -3.028896 20.799421 -3.075046
v 2.895679 20.049421 -3.075042
v 2.895679 20.799421 -3.075042
v -1.631521 21.947546 -1.549147
v -1.631524 21.947546 0.609488
v 1.454586 21.033310 1.450854
v -0.790158 21.033310 1.450852
v 1.454588 21.033308 -1.549144
v -1.631521 21.033308 -1.549147
v -1.631523 21.033310 0.609488
v 1.454586 21.947548 1.450854
v 1.454587 21.947546 -1.549145
v -1.631523 22.803291 1.450853
v -1.631522 22.803291 -1.549147
v 1.454587 22.803291 -1.549145
v 1.454584 22.803291 1.450853
v -1.631523 20.003290 1.450853
v -1.631521 20.003290 -1.549147
v 1.454588 20.003290 -1.549145
v -2.239761 22.803291 2.042117
v 2.062821 22.803291 2.042117
v 2.062824 22.803291 -2.140412
v -2.239759 22.803291 -2.140419
v -1.228225 23.253290 1.030582
v -1.228223 23.253290 -1.128878
v 1.051286 23.253290 -1.128871
v 1.051284 23.253290 1.030582
v 2.062821 23.003292 2.042117
v 2.062824 23.003290 -2.140412
v -2.239761 23.003292 2.042117
v -2.239759 23.003290 -2.140419
v 1.454585 20.003292 1.450853
v 1.454586 20.003292 1.450854
v 1.454586 22.803291 1.450854
v -0.790158 21.947546 1.450852
v -2.891351 11.001510 2.752389
v -2.891349 11.001510 -2.853192
v 2.690099 11.001510 -2.853187
v 2.690099 11.001510 2.752389
v -2.891350 -0.712656 2.752392
v 2.690100 -0.712656 2.752392
v 2.690100 -0.712656 -2.853184
v -2.891347 -0.712656 -2.853189
v -1.581770 20.001509 1.436408
v -1.581769 11.001510 1.436410
v 1.380517 11.001510 1.436410
v 1.380515 20.001509 1.436408
v 1.380519 11.001510 -1.537206
v -1.581769 11.001510 -1.537208
v -1.581770 20.001509 -1.537211
v 1.380518 20.001509 -1.537208
v -1.631521 20.003290 -1.549147
v -1.631522 22.803291 -1.549147
v -1.631523 22.803291 1.450853
v -1.631523 20.003290 1.450853
v 1.454587 22.803291 -1.549145
v 1.454588 20.003290 -1.549145
v -2.239761 22.803291 2.042117
v 2.062821 22.803291 2.042117
v 2.062824 22.803291 -2.140412
v -2.239759 22.803291 -2.140419
v -1.228225 23.253290 1.030582
v -1.228223 23.253290 -1.128878
v 1.051286 23.253290 -1.128871
v 1.051284 23.253290 1.030582
v 2.062821 23.003292 2.042117
v 2.062824 23.003290 -2.140412
v -2.239761 23.003292 2.042117
v -2.239759 23.003290 -2.140419
v 1.454585 20.003292 1.450853
v 1.454586 20.003292 1.450854
v 1.454585 22.803291 1.450854
v -3.078632 19.949999 -3.094110
v 2.921367 19.950001 -3.094110
v 2.921367 20.049999 -3.094110
v -3.078632 20.049999 -3.094110
v 2.921368 19.950001 2.905890
v 2.921368 20.050001 2.905890
v -3.078632 19.950001 2.905890
v -3.078632 20.050001 2.905890
v -3.028896 20.049423 2.872190
v 2.895674 20.049423 2.872190
v 2.895674 20.799423 2.872190
v -3.028896 20.799423 2.872190
v -3.028896 20.049421 -3.075046
v -3.028896 20.799421 -3.075046
v 2.895679 20.049421 -3.075042
v 2.895679 20.799421 -3.075042
vn -0.5773 0.5774 0.5773
vn 0.5773 0.5774 -0.5773
vn -0.5774 0.5774 -0.5773
vn 0.5774 0.5774 0.5773
vn -0.5773 -0.5774 0.5773
vn 0.5773 -0.5774 -0.5773
vn 0.5773 -0.5774 0.5774
vn -0.5773 -0.5774 -0.5774
vn -0.5773 -0.5773 -0.5774
vn 0.5773 -0.5773 0.5774
vn 0.5773 0.5774 0.5773
vn -0.5773 0.5774 -0.5773
vn -0.5773 0.5773 0.5774
vn 0.5773 0.5773 -0.5774
vn 0.4452 -0.0000 -0.8954
vn -0.7071 -0.0000 -0.7071
vn 0.7071 -0.0000 -0.7071
vn 0.0040 -0.7071 -0.7071
vn 0.0040 -0.7072 0.7070
vn 0.7071 -0.7071 0.0057
vn -0.0000 -0.0000 -1.0000
vn 0.0040 -0.7071 0.7071
vn -0.4492 -0.0000 -0.8934
vn 0.4492 -0.0000 -0.8934
vn -0.5774 0.5773 -0.5774
vn -0.0040 0.7071 -0.7071
vn -0.3014 -0.9046 -0.3015
vn -0.3015 0.9046 -0.3015
vn -0.5773 -0.5774 -0.5773
vn 0.3016 0.9045 -0.3015
vn 0.3016 -0.9045 -0.3015
vn 0.7071 -0.7071 0.0056
vn -0.4493 -0.0000 -0.8934
vn 0.0039 -0.7071 -0.7071
vn -0.5773 0.5773 -0.5774
vn 0.4493 -0.0000 -0.8934
vn -0.0039 0.7071 -0.7071
vn 0.3015 -0.9045 0.3016
vn 0.3015 0.9045 0.3016
vn -0.6433 -0.0000 -0.7656
vn 0.6433 -0.0000 -0.7656
vn -0.6433 -0.0000 0.7656
vn 0.7071 -0.0000 0.7071
vn -0.7071 -0.0000 0.7071
vn -0.6434 -0.0000 0.7656
vn 0.6434 -0.0000 0.7656
vn 0.6433 -0.0000 0.7656
vn -0.6433 0.0001 0.7656
vn 0.6433 -0.0001 0.7656
vn -0.5774 -0.5774 -0.5773
vn -0.9045 -0.3015 -0.3015
vn 0.5773 0.5774 0.5774
vn 0.3015 0.3015 0.9045
vn 0.5774 0.5774 -0.5773
vn -0.5773 0.5774 -0.5774
vn -0.9045 0.3015 -0.3015
vn 0.5774 -0.5774 0.5773
vn 0.5773 -0.5774 -0.5774
vn -0.0000 1.0000 -0.0000
vn 0.5774 -0.5773 0.5773
vn -0.5774 -0.5773 -0.5773
vn -0.0911 0.9917 0.0911
vn 0.0911 0.9917 -0.0911
vn -0.0911 0.9917 -0.0911
vn 0.0911 0.9917 0.0911
vn 0.6001 0.5289 -0.6001
vn 0.6001 0.5289 0.6001
vn -0.6001 0.5289 0.6001
vn -0.6001 0.5289 -0.6001
vn -0.0000 -1.0000 -0.0000
vn 0.5774 -0.5774 -0.5773
vn 0.3015 -0.3015 0.9045
vn -0.7071 0.7072 -0.0000
vn -0.7071 -0.7071 -0.0000
vn -0.7072 -0.7071 -0.0000
vn -0.7071 0.7071 -0.0000
vn -0.7072 0.7071 -0.0000
vn -0.7071 -0.7072 -0.0000
vn -0.7070 0.7072 -0.0000
vn -0.7070 -0.7072 -0.0001
vn -0.5774 -0.5773 -0.5774
vn -0.5773 -0.5774 0.5774
vn -0.7070 -0.7072 -0.0000
vn 0.7658 -0.0000 -0.6431
vn 0.7658 -0.0000 0.6430
vn 0.7658 -0.0001 0.6431
vn 0.7658 -0.0000 -0.6430
vn 0.7658 -0.0000 0.6431
s 1
f 1//1 3//2 2//3
f 1//1 4//4 3//2
f 5//5 7//6 6//7
f 5//5 8//8 7//6
f 4//4 5//5 6//7
f 4//4 1//1 5//5
f 1//1 8//8 5//5
f 1//1 2//3 8//8
f 2//3 7//6 8//8
f 2//3 3//2 7//6
f 3//2 6//7 7//6
f 3//2 4//4 6//7
f 9//6 11//5 10//9
f 9//6 12//10 11//5
f 13//11 15//12 14//13
f 13//11 16//14 15//12
f 17//15 19//16 18//16
f 17//15 20//17 19//16
f 21//6 18//16 22//18
f 21//6 17//15 18//16
f 23//19 17//15 21//6
f 25//20 24//21 23//22
f 22//18 18//16 26//23
f 24//21 20//17 17//15
f 24//21 28//24 20//17
f 18//16 27//16 26//23
f 18//16 19//16 27//16
f 19//16 30//25 27//16
f 19//16 31//12 30//25
f 20//17 31//12 19//16
f 20//17 32//26 31//12
f 28//24 32//26 20//17
f 33//12 35//27 34//28
f 33//12 36//29 35//27
f 35//27 37//30 34//28
f 35//27 38//31 37//30
f 23//22 17//15 24//21
f 25//32 24//21 26//33
f 22//34 25//32 26//33
f 27//16 29//35 30//3
f 27//16 28//36 29//35
f 26//33 28//36 27//16
f 26//33 24//21 28//36
f 28//36 32//37 29//35
f 37//30 40//38 39//39
f 37//30 38//31 40//38
f 40//38 41//4 39//39
f 40//38 42//7 41//4
f 43//17 45//16 44//40
f 43//17 46//41 45//16
f 47//42 46//41 43//17
f 49//43 48//44 47//45
f 49//43 50//46 48//44
f 44//40 45//16 50//47
f 47//48 46//41 48//44
f 44//40 49//43 50//49
f 51//50 36//29 52//51
f 51//50 35//27 36//29
f 53//52 41//4 54//53
f 53//52 39//39 41//4
f 55//54 39//39 53//52
f 55//54 37//30 39//39
f 56//55 37//30 55//54
f 56//55 34//28 37//30
f 57//56 34//28 56//55
f 57//56 33//12 34//28
f 58//57 38//31 59//58
f 58//57 40//38 38//31
f 60//1 62//2 61//55
f 60//1 63//59 62//2
f 56//55 65//50 64//5
f 56//55 64//5 57//56
f 57//56 64//5 60//1
f 57//56 60//1 52//51
f 52//51 60//1 61//55
f 52//51 61//55 51//50
f 55//54 65//50 56//55
f 55//54 66//6 65//50
f 51//50 62//2 59//58
f 51//50 61//55 62//2
f 52//51 33//12 57//56
f 52//51 36//29 33//12
f 59//58 35//27 51//50
f 59//58 38//31 35//27
f 67//5 69//6 68//60
f 67//5 70//61 69//6
f 71//62 73//63 72//64
f 71//62 74//65 73//63
f 68//60 76//66 75//67
f 68//60 69//6 76//66
f 67//5 75//67 77//68
f 67//5 68//60 75//67
f 70//61 77//68 78//69
f 70//61 67//5 77//68
f 69//6 78//69 76//66
f 69//6 70//61 78//69
f 71//62 78//69 77//68
f 71//62 72//64 78//69
f 73//63 75//67 76//66
f 73//63 74//65 75//67
f 74//65 77//68 75//67
f 74//65 71//62 77//68
f 72//64 76//66 78//69
f 72//64 73//63 76//66
f 64//5 66//6 79//70
f 64//5 65//50 66//6
f 21//71 25//32 22//34
f 21//71 23//22 25//32
f 32//37 30//3 29//35
f 32//37 31//25 30//3
f 53//52 66//6 55//54
f 53//52 80//43 66//6
f 59//58 81//43 58//57
f 59//58 62//2 81//43
f 54//53 80//43 53//52
f 54//53 64//5 80//43
f 82//72 64//5 54//53
f 82//72 60//1 64//5
f 58//57 60//1 82//72
f 58//57 81//43 60//1
f 82//72 40//38 58//57
f 82//72 42//7 40//38
f 54//53 42//7 82//72
f 54//53 41//4 42//7
f 10//9 16//14 9//6
f 10//9 15//12 16//14
f 9//6 13//11 12//10
f 9//6 16//14 13//11
f 12//10 14//13 11//5
f 12//10 13//11 14//13
f 11//5 15//12 10//9
f 11//5 14//13 15//12
f 83//1 85//2 84//3
f 83//1 86//4 85//2
f 87//5 89//6 88//7
f 87//5 90//8 89//6
f 86//4 87//5 88//7
f 86//4 83//1 87//5
f 83//1 90//8 87//5
f 83//1 84//3 90//8
f 84//3 89//6 90//8
f 84//3 85//2 89//6
f 85//2 88//7 89//6
f 85//2 86//4 88//7
f 91//73 93//74 92//75
f 91//73 94//76 93//74
f 95//74 97//77 96//78
f 95//74 98//79 97//77
f 94//73 95//80 93//74
f 94//73 98//73 95//80
f 99//81 101//44 100//16
f 99//81 102//82 101//44
f 103//17 99//81 100//16
f 103//17 104//71 99//81
f 105//5 107//6 106//60
f 105//5 108//61 107//6
f 109//62 111//63 110//64
f 109//62 112//65 111//63
f 106//60 114//66 113//67
f 106//60 107//6 114//66
f 105//5 113//67 115//68
f 105//5 106//60 113//67
f 108//61 115//68 116//69
f 108//61 105//5 115//68
f 107//6 116//69 114//66
f 107//6 108//61 116//69
f 109//62 116//69 115//68
f 109//62 110//64 116//69
f 111//63 113//67 114//66
f 111//63 112//65 113//67
f 112//65 115//68 113//67
f 112//65 109//62 115//68
f 110//64 114//66 116//69
f 110//64 111//63 114//66
f 102//82 104//71 117//70
f 102//82 99//81 104//71
f 92//74 95//74 93//74
f 92//74 96//74 95//74
f 92//78 94//79 91//73
f 92//78 93//74 94//79
f 96//75 98//76 95//83
f 96//75 97//73 98//76
f 91//76 96//74 92//74
f 91//76 97//76 96//74
f 91//76 98//76 97//76
f 91//76 94//76 98//76
f 104//71 119//43 118//43
f 104//71 103//17 119//43
f 119//43 102//82 118//43
f 119//43 101//44 102//82
f 120//9 122//14 121//6
f 120//9 123//12 122//14
f 121//6 125//11 124//10
f 121//6 122//14 125//11
f 124//10 127//13 126//5
f 124//10 125//11 127//13
f 126//5 123//12 120//9
f 126//5 127//13 123//12
f 121//6 126//5 120//9
f 121//6 124//10 126//5
f 125//11 123//12 127//13
f 125//11 122//14 123//12
f 128//17 130//16 129//40
f 128//17 131//17 130//16
f 132//17 131//17 128//17
f 132//17 133//84 131//17
f 134//85 135//46 133//84
f 129//40 130//16 135//47
f 134//86 132//17 133//87
f 129//40 134//88 135//49
