# Exported from Blender
v -7.749733 10.043819 11.467650
v -7.746186 10.043818 0.563310
v -0.582431 10.043815 -19.183649
v -11.722593 10.043814 -19.414642
v -11.722593 10.043814 -18.951450
v -0.576757 10.043822 26.600229
v -5.132987 10.043821 26.599182
v -0.584403 10.043820 14.142830
v -5.457772 10.043819 13.546401
v -5.613315 10.043819 12.979386
v -9.941010 10.043819 10.022562
v -10.325394 10.043819 10.325382
v -13.808681 10.043818 4.288138
v -13.302931 10.043818 4.134810
v -14.053994 10.043817 0.555644
v -4.019462 10.043816 -13.212451
v -0.613764 10.043816 -13.935571
v -4.165732 10.043816 -13.721340
v -7.970416 10.043816 -11.205598
v -7.952687 10.043816 -11.746998
v -9.898351 10.043816 -9.819026
v -10.054922 10.043816 -9.908294
v -13.436224 10.043817 -5.468324
v -13.302938 10.043817 -3.937937
v -14.040303 10.043817 -0.497797
v -7.746110 10.043816 -11.969201
v -7.746110 10.043815 -18.951775
v -11.722518 10.043820 19.713440
v -0.567604 10.043821 19.774017
v -0.582405 10.043814 -29.032352
v -5.133082 10.043813 -29.034887
v -7.746110 10.043818 -0.516706
v -7.746110 10.043816 -11.335413
v -7.751840 10.043820 19.539959
v -7.749221 10.043819 12.203121
v 7.749732 10.043820 11.467650
v 7.746185 10.043818 0.563310
v 0.582429 10.043815 -19.183649
v 11.722591 10.043817 -19.414642
v 11.722591 10.043817 -18.951450
v 0.576756 10.043822 26.600229
v 5.132986 10.043822 26.599182
v 0.584401 10.043820 14.142830
v 4.169994 10.043821 13.914231
v 4.016169 10.043821 13.408221
v 7.959660 10.043820 11.940105
v 7.974926 10.043820 11.403129
v 9.898372 10.043820 10.015858
v 10.325392 10.043820 10.325382
v 13.649100 10.043820 4.690292
v 13.302928 10.043820 4.134810
v 14.053991 10.043819 0.555644
v 0.613762 10.043816 -13.935571
v 4.019460 10.043817 -13.212451
v 4.165730 10.043817 -13.721340
v 7.970415 10.043818 -11.205598
v 7.952685 10.043818 -11.746998
v 9.898350 10.043818 -9.819026
v 10.054920 10.043818 -9.908294
v 13.436222 10.043818 -5.468324
v 13.302936 10.043819 -3.937937
v 14.040301 10.043819 -0.497797
v 7.746109 10.043818 -11.969201
v 7.746109 10.043816 -18.951775
v 11.722516 10.043822 19.713440
v 0.567603 10.043821 19.774017
v 0.582403 10.043814 -29.032352
v 5.133081 10.043815 -29.034887
v 7.746109 10.043818 -0.516706
v 7.746109 10.043818 -11.335413
v 7.751839 10.043822 19.539959
v 7.749220 10.043821 12.203121
v -98.208298 10.043824 96.792847
v -98.208298 10.043795 -97.370712
v 98.708298 10.043841 96.792847
v 98.708298 10.043812 -97.370712
v 97.708298 10.043812 -97.370712
v 97.708298 10.043841 96.792847
v -96.792839 10.043791 -98.708298
v -96.792839 10.043791 -97.708298
v 97.370720 10.043809 -98.208298
v -96.792847 10.043821 98.208305
v 97.370705 10.043839 98.208336
v -96.792847 10.043806 0.021601
v 97.370705 10.043823 0.021624
v -0.521601 10.043796 -96.792847
v -0.021616 10.043811 -0.522245
v 0.478399 10.043796 -96.792847
v -0.021616 10.043811 0.583563
v -0.021631 10.043826 97.370705
v -100.000000 -39.531792 100.000000
v -100.000000 -40.869881 100.000000
v 100.000000 -39.531773 100.000000
v 100.000000 -40.869858 100.000000
v 100.000000 8.194236 100.000000
v 100.000000 9.664486 100.000000
v -100.000000 9.664469 100.000000
v -100.000000 8.194219 100.000000
v -100.000000 8.194189 -100.000000
v -100.000000 9.664438 -100.000000
v 100.000000 8.194206 -100.000000
v 100.000000 9.664455 -100.000000
v -100.000000 9.664469 100.000000
v -100.000000 9.664438 -100.000000
v -100.000000 8.194189 -100.000000
v -100.000000 8.194219 100.000000
v 100.000000 9.664455 -100.000000
v 100.000000 9.664486 100.000000
v 100.000000 8.194236 100.000000
v 100.000000 8.194206 -100.000000
v 100.000000 -39.531803 -100.000000
v 100.000000 -40.869888 -100.000000
v -100.000000 -40.869907 -100.000000
v -100.000000 -39.531822 -100.000000
v -100.000000 -40.869907 -100.000000
v -100.000000 -40.869881 100.000000
v -100.000000 -39.531792 100.000000
v -100.000000 -39.531822 -100.000000
v 100.000000 -40.869858 100.000000
v 100.000000 -40.869888 -100.000000
v 100.000000 -39.531803 -100.000000
v 100.000000 -39.531773 100.000000
v -50.000000 8.194193 -100.000000
v 100.000000 8.194206 -100.000000
v -99.196259 10.000932 99.196259
v -99.196259 10.000903 -99.196259
v 99.196259 10.000950 99.196259
v 99.196259 10.000919 -99.196259
v 99.598129 9.832719 99.598122
v 99.554588 9.988176 -99.408180
v 100.000000 9.664457 -100.000000
v -99.196259 10.000904 -99.196259
v -100.000000 9.664438 -100.000000
v -99.598129 9.832672 -99.598122
v -99.554588 9.988189 99.408180
v -100.000000 9.664471 100.000000
v 99.196259 10.000951 99.196259
v 100.000000 9.664486 100.000000
v -100.000000 8.194219 100.000000
v -100.000000 8.194189 -100.000000
v 100.000000 8.194236 100.000000
v 100.000000 8.194206 -100.000000
v -100.000000 -40.869881 100.000000
v -100.000000 -40.869907 -100.000000
v 100.000000 -40.869892 -100.000000
v 100.000000 -40.869862 100.000000
v -100.000000 -39.531822 -100.000000
v -100.000000 -39.531796 100.000000
v 100.000000 -39.531807 -100.000000
v 100.000000 -39.531773 100.000000
v 95.321289 8.194206 -95.321289
v 95.321289 8.194236 95.321289
v 95.321289 -7.714436 95.321289
v 95.321289 -7.714465 -95.321289
v -95.321289 8.194219 95.321289
v -95.321289 8.194189 -95.321289
v -95.321289 -7.714482 -95.321289
v -95.321289 -7.714453 95.321289
v -95.321289 -7.714482 -95.321289
v -95.321289 8.194189 -95.321289
v 95.321289 -7.714465 -95.321289
v 95.321289 8.194206 -95.321289
v 95.321289 -7.714436 95.321289
v 95.321289 8.194236 95.321289
v -95.321289 -7.714453 95.321289
v -95.321289 8.194219 95.321289
v 95.321289 -39.531776 95.321289
v 95.321289 -23.623108 95.321289
v -95.321289 -23.623121 95.321289
v -95.321289 -39.531792 95.321289
v 95.321289 -23.623108 95.321289
v 95.321289 -7.714436 95.321289
v -95.321289 -23.623121 95.321289
v -95.321289 -7.714453 95.321289
v -95.321289 -39.531822 -95.321289
v -95.321289 -23.623152 -95.321289
v 95.321289 -39.531807 -95.321289
v 95.321289 -23.623137 -95.321289
v -95.321289 -23.623152 -95.321289
v -95.321289 -7.714482 -95.321289
v 95.321289 -7.714465 -95.321289
v 95.321289 -23.623137 -95.321289
v -95.321289 -23.623121 95.321289
v -95.321289 -23.623152 -95.321289
v -95.321289 -39.531822 -95.321289
v -95.321289 -39.531792 95.321289
v -95.321289 -7.714453 95.321289
v -95.321289 -7.714482 -95.321289
v -95.321289 -23.623152 -95.321289
v -95.321289 -23.623121 95.321289
v 95.321289 -23.623137 -95.321289
v 95.321289 -23.623108 95.321289
v 95.321289 -39.531776 95.321289
v 95.321289 -39.531807 -95.321289
v 95.321289 -7.714465 -95.321289
v 95.321289 -7.714436 95.321289
v 95.321289 -23.623108 95.321289
v 95.321289 -23.623137 -95.321289
v 95.321289 8.194206 -95.321289
v 95.321289 -7.714465 -95.321289
v 95.321289 -7.714436 95.321289
v 95.321289 8.194236 95.321289
v -95.321289 8.194219 95.321289
v -95.321289 -7.714453 95.321289
v -95.321289 -7.714482 -95.321289
v -95.321289 8.194189 -95.321289
v -95.321289 8.194189 -95.321289
v -95.321289 -7.714482 -95.321289
v 95.321289 -7.714465 -95.321289
v 95.321289 8.194206 -95.321289
v 95.321289 8.194236 95.321289
v 95.321289 -7.714436 95.321289
v -95.321289 -7.714453 95.321289
v -95.321289 8.194219 95.321289
v 95.321289 -23.623108 95.321289
v 95.321289 -39.531776 95.321289
v -95.321289 -39.531792 95.321289
v -95.321289 -23.623121 95.321289
v 95.321289 -7.714436 95.321289
v 95.321289 -23.623108 95.321289
v -95.321289 -7.714453 95.321289
v -95.321289 -23.623121 95.321289
v -95.321289 -23.623152 -95.321289
v -95.321289 -39.531822 -95.321289
v 95.321289 -39.531807 -95.321289
v 95.321289 -23.623137 -95.321289
v -95.321289 -7.714482 -95.321289
v -95.321289 -23.623152 -95.321289
v 95.321289 -23.623137 -95.321289
v 95.321289 -7.714465 -95.321289
v -95.321289 -23.623121 95.321289
v -95.321289 -39.531792 95.321289
v -95.321289 -39.531822 -95.321289
v -95.321289 -23.623152 -95.321289
v -95.321289 -7.714453 95.321289
v -95.321289 -23.623121 95.321289
v -95.321289 -23.623152 -95.321289
v -95.321289 -7.714482 -95.321289
v 95.321289 -23.623137 -95.321289
v 95.321289 -39.531807 -95.321289
v 95.321289 -39.531776 95.321289
v 95.321289 -23.623108 95.321289
v 95.321289 -7.714465 -95.321289
v 95.321289 -23.623137 -95.321289
v 95.321289 -23.623108 95.321289
v 95.321289 -7.714436 95.321289
vn -0.453175 0.587324 0.670584
vn -0.610108 0.791075 0.044368
vn -0.000000 1.000000 0.000000
vn -0.000000 1.000000 0.000000
vn -0.000000 1.000000 0.000000
vn -0.020280 0.353169 0.935340
vn -0.177662 0.347634 0.920645
vn -0.000000 1.000000 -0.000002
vn -0.000000 1.000000 -0.000001
vn -0.000000 1.000000 0.000001
vn -0.000000 1.000000 -0.000001
vn -0.000000 1.000000 -0.000001
vn -0.000000 1.000000 -0.000000
vn -0.000000 1.000000 0.000000
vn -0.000000 1.000000 0.000000
vn 0.000000 1.000000 0.000001
vn 0.000000 1.000000 0.000000
vn 0.000000 1.000000 0.000001
vn 0.000000 1.000000 0.000000
vn 0.000000 1.000000 0.000000
vn -0.576042 0.584507 -0.571425
vn 0.000000 1.000000 0.000001
vn 0.000000 1.000000 0.000001
vn 0.000000 1.000000 0.000000
vn 0.000000 1.000000 0.000000
vn -0.444166 0.575918 -0.686320
vn -0.339673 0.440429 -0.831050
vn -0.468184 0.401139 0.787332
vn -0.025584 0.452713 0.891289
vn -0.018955 0.326882 -0.944875
vn -0.164792 0.322446 -0.932133
vn -0.610200 0.791201 -0.040703
vn -0.455361 0.590433 -0.666360
vn -0.332731 0.431109 0.838710
vn -0.440236 0.570593 0.693264
vn 0.453175 0.587324 0.670584
vn 0.610108 0.791075 0.044368
vn -0.000000 1.000000 0.000000
vn -0.000000 1.000000 0.000000
vn -0.000000 1.000000 0.000000
vn 0.020280 0.353169 0.935340
vn 0.177662 0.347634 0.920645
vn -0.000000 1.000000 0.000004
vn -0.000000 1.000000 0.000002
vn -0.000000 1.000000 0.000002
vn 0.000000 1.000000 0.000000
vn 0.000000 1.000000 0.000000
vn 0.000000 1.000000 0.000000
vn 0.000000 1.000000 0.000000
vn 0.000000 1.000000 0.000000
vn 0.000000 1.000000 0.000000
vn 0.000000 1.000000 0.000000
vn -0.000000 1.000000 -0.000004
vn -0.000000 1.000000 -0.000002
vn -0.000000 1.000000 -0.000002
vn -0.000000 1.000000 0.000000
vn -0.000000 1.000000 0.000000
vn 0.576042 0.584507 -0.571425
vn 0.000000 1.000000 -0.000003
vn 0.000001 1.000000 -0.000002
vn 0.000002 1.000000 -0.000001
vn 0.000002 1.000000 -0.000001
vn 0.444166 0.575918 -0.686320
vn 0.339673 0.440429 -0.831050
vn 0.468184 0.401139 0.787332
vn 0.025584 0.452713 0.891289
vn 0.018955 0.326882 -0.944875
vn 0.164792 0.322446 -0.932133
vn 0.610200 0.791202 -0.040703
vn 0.455360 0.590433 -0.666360
vn 0.332731 0.431109 0.838710
vn 0.440236 0.570593 0.693264
vn -0.710339 0.072647 0.700101
vn -0.708263 0.072434 -0.702223
vn 0.000000 1.000000 -0.000000
vn 0.000000 1.000000 -0.000000
vn 0.000000 1.000000 -0.000000
vn 0.000000 1.000000 -0.000000
vn -0.000000 1.000000 0.000000
vn -0.000000 1.000000 0.000000
vn -0.000000 1.000000 0.000000
vn -0.700101 0.072647 0.710339
vn 0.702222 0.072435 0.708263
vn -0.994659 0.103212 0.000222
vn 0.994722 0.102606 0.000221
vn 0.000000 1.000000 -0.000000
vn 0.000000 1.000000 -0.000000
vn 0.000000 1.000000 -0.000000
vn -0.002149 0.998314 0.058004
vn -0.000221 0.102606 0.994722
vn 0.000000 0.000000 1.000000
vn 0.000000 0.000000 1.000000
vn 0.000000 0.000000 1.000000
vn 0.000000 0.000000 1.000000
vn 0.707037 -0.707139 0.007334
vn 0.000000 0.000000 1.000000
vn -0.000000 0.000000 1.000000
vn -0.007286 -0.999967 0.003691
vn -0.707037 -0.707139 -0.007334
vn -0.000000 0.000000 -1.000000
vn 0.007287 -0.999967 -0.003691
vn -0.000000 0.000000 -1.000000
vn -1.000000 0.000000 0.000000
vn -1.000000 0.000000 0.000000
vn -0.007334 -0.999966 -0.003691
vn -0.007334 -0.999966 0.003691
vn 1.000000 0.000000 0.000000
vn 1.000000 0.000000 0.000000
vn 0.007334 -0.999966 0.003691
vn 0.007334 -0.999966 -0.003691
vn 0.000000 0.000000 -1.000000
vn 0.000000 0.000000 -1.000000
vn 0.000000 0.000000 -1.000000
vn 0.000000 0.000000 -1.000000
vn -1.000000 0.000000 0.000000
vn -1.000000 0.000000 0.000000
vn -1.000000 0.000000 0.000000
vn -1.000000 0.000000 0.000000
vn 1.000000 0.000000 0.000000
vn 1.000000 0.000000 0.000000
vn 1.000000 0.000000 0.000000
vn 1.000000 0.000000 0.000000
vn -0.446017 0.073095 -0.892035
vn 0.705923 0.057845 -0.705923
vn -0.000000 1.000000 -0.000000
vn -0.000000 1.000000 -0.000000
vn -0.000000 1.000000 -0.000000
vn -0.000000 1.000000 -0.000000
vn 0.705390 0.069639 0.705390
vn 0.024547 0.994179 -0.104906
vn -0.000454 0.877404 -0.479752
vn -0.078904 0.996852 -0.007762
vn -0.000000 0.922434 -0.386154
vn -0.705390 0.069639 -0.705390
vn -0.024547 0.994179 0.104907
vn 0.000454 0.877404 0.479752
vn 0.078904 0.996852 0.007759
vn -0.000000 0.922435 0.386151
vn -0.005221 -0.999973 0.005151
vn -0.007319 -0.999966 -0.003692
vn 0.007319 -0.999966 0.003692
vn 0.007319 -0.999966 -0.003692
vn 0.000000 -1.000000 0.000000
vn 0.000000 -1.000000 0.000000
vn 0.000000 -1.000000 0.000000
vn 0.000000 -1.000000 0.000000
vn -0.000000 1.000000 -0.000000
vn -0.000000 1.000000 -0.000000
vn -0.000000 1.000000 -0.000000
vn -0.000000 1.000000 -0.000000
vn 1.000000 0.000000 0.000000
vn 1.000000 0.000000 0.000000
vn 1.000000 0.000000 0.000000
vn 1.000000 0.000000 0.000000
vn -1.000000 0.000000 0.000000
vn -1.000000 0.000000 0.000000
vn -1.000000 0.000000 0.000000
vn -1.000000 0.000000 0.000000
vn 0.000000 0.000000 -1.000000
vn 0.000000 0.000000 -1.000000
vn 0.000000 0.000000 -1.000000
vn 0.000000 0.000000 -1.000000
vn 0.000000 0.000000 1.000000
vn 0.000000 0.000000 1.000000
vn 0.000000 0.000000 1.000000
vn 0.000000 0.000000 1.000000
vn -0.000000 0.000000 1.000000
vn -0.000000 0.000000 1.000000
vn -0.000000 0.000000 1.000000
vn 0.000000 0.000000 1.000000
vn 0.000000 0.000000 1.000000
vn 0.000000 0.000000 1.000000
vn 0.000000 0.000000 1.000000
vn 0.000000 0.000000 1.000000
vn 0.000000 0.000000 -1.000000
vn 0.000000 0.000000 -1.000000
vn 0.000000 0.000000 -1.000000
vn 0.000000 0.000000 -1.000000
vn 0.000000 0.000000 -1.000000
vn 0.000000 0.000000 -1.000000
vn 0.000000 0.000000 -1.000000
vn 0.000000 0.000000 -1.000000
vn -1.000000 0.000000 0.000000
vn -1.000000 0.000000 0.000000
vn -1.000000 0.000000 0.000000
vn -1.000000 0.000000 0.000000
vn -1.000000 0.000000 0.000000
vn -1.000000 0.000000 0.000000
vn -1.000000 0.000000 0.000000
vn -1.000000 0.000000 0.000000
vn 1.000000 0.000000 0.000000
vn 1.000000 0.000000 0.000000
vn 1.000000 0.000000 0.000000
vn 1.000000 0.000000 0.000000
vn 1.000000 0.000000 0.000000
vn 1.000000 0.000000 0.000000
vn 1.000000 0.000000 0.000000
vn 1.000000 0.000000 0.000000
vn -1.000000 0.000000 0.000000
vn -1.000000 0.000000 0.000000
vn -1.000000 0.000000 0.000000
vn -1.000000 0.000000 0.000000
vn 1.000000 0.000000 0.000000
vn 1.000000 0.000000 0.000000
vn 1.000000 0.000000 0.000000
vn 1.000000 0.000000 0.000000
vn 0.000000 0.000000 1.000000
vn 0.000000 0.000000 1.000000
vn 0.000000 0.000000 1.000000
vn 0.000000 0.000000 1.000000
vn 0.000000 0.000000 -1.000000
vn 0.000000 0.000000 -1.000000
vn 0.000000 0.000000 -1.000000
vn 0.000000 0.000000 -1.000000
vn -0.000000 0.000000 -1.000000
vn -0.000000 0.000000 -1.000000
vn 0.000000 0.000000 -1.000000
vn 0.000000 0.000000 -1.000000
vn 0.000000 0.000000 -1.000000
vn 0.000000 0.000000 -1.000000
vn -0.000000 0.000000 -1.000000
vn -0.000000 0.000000 -1.000000
vn -0.000000 0.000000 1.000000
vn -0.000000 0.000000 1.000000
vn -0.000000 0.000000 1.000000
vn 0.000000 0.000000 1.000000
vn -0.000000 0.000000 1.000000
vn -0.000000 0.000000 1.000000
vn -0.000000 0.000000 1.000000
vn 0.000000 0.000000 1.000000
vn 1.000000 0.000000 0.000000
vn 1.000000 0.000000 0.000000
vn 1.000000 0.000000 0.000000
vn 1.000000 0.000000 0.000000
vn 1.000000 0.000000 0.000000
vn 1.000000 0.000000 0.000000
vn 1.000000 0.000000 0.000000
vn 1.000000 0.000000 0.000000
vn -1.000000 0.000000 0.000000
vn -1.000000 0.000000 0.000000
vn -1.000000 0.000000 0.000000
vn -1.000000 0.000000 0.000000
vn -1.000000 0.000000 0.000000
vn -1.000000 0.000000 0.000000
vn -1.000000 0.000000 0.000000
vn -1.000000 0.000000 0.000000
f 5//5 3//3 4//4
f 8//8 10//10 9//9
f 11//11 9//9 10//10
f 13//13 12//12 11//11
f 14//14 13//13 11//11
f 15//15 13//13 14//14
f 18//18 16//16 17//17
f 19//19 16//16 18//18
f 20//20 19//19 18//18
f 23//23 24//24 22//22
f 24//24 23//23 25//25
f 38//38 40//40 39//39
f 45//45 43//43 44//44
f 44//44 46//46 45//45
f 46//46 47//47 45//45
f 49//49 50//50 48//48
f 50//50 52//52 51//51
f 54//54 55//55 53//53
f 54//54 56//56 55//55
f 56//56 57//57 55//55
f 61//61 60//60 59//59
f 60//60 61//61 62//62
f 75//75 76//76 77//77
f 78//78 75//75 77//77
f 79//79 80//80 81//81
f 88//88 86//86 87//87
f 91//91 92//92 93//93
f 92//92 94//94 93//93
f 96//96 97//97 95//95
f 95//95 97//97 98//98
f 99//99 100//100 101//101
f 100//100 102//102 101//101
f 103//103 104//104 105//105
f 106//106 103//103 105//105
f 107//107 108//108 109//109
f 110//110 107//107 109//109
f 112//112 113//113 111//111
f 111//111 113//113 114//114
f 115//115 116//116 117//117
f 118//118 115//115 117//117
f 119//119 120//120 121//121
f 122//122 119//119 121//121
f 125//125 127//127 126//126
f 126//126 127//127 128//128
f 132//132 130//130 131//131
f 133//133 132//132 131//131
f 137//137 135//135 136//136
f 138//138 137//137 136//136
f 140//140 141//141 139//139
f 140//140 142//142 141//141
f 143//143 144//144 145//145
f 146//146 143//143 145//145
f 147//147 148//148 149//149
f 148//148 150//150 149//149
f 151//151 152//152 153//153
f 154//154 151//151 153//153
f 155//155 156//156 157//157
f 158//158 155//155 157//157
f 159//159 160//160 161//161
f 160//160 162//162 161//161
f 163//163 164//164 165//165
f 164//164 166//166 165//165
f 168//168 169//169 167//167
f 167//167 169//169 170//170
f 171//171 172//172 173//173
f 172//172 174//174 173//173
f 175//175 176//176 177//177
f 176//176 178//178 177//177
f 180//180 181//181 179//179
f 179//179 181//181 182//182
f 183//183 184//184 185//185
f 186//186 183//183 185//185
f 187//187 188//188 189//189
f 190//190 187//187 189//189
f 191//191 192//192 193//193
f 194//194 191//191 193//193
f 195//195 196//196 197//197
f 198//198 195//195 197//197
f 199//199 200//200 201//201
f 202//202 199//199 201//201
f 203//203 204//204 205//205
f 206//206 203//203 205//205
f 207//207 208//208 209//209
f 210//210 207//207 209//209
f 211//211 212//212 213//213
f 214//214 211//211 213//213
f 215//215 216//216 217//217
f 218//218 215//215 217//217
f 221//221 219//219 220//220
f 221//221 220//220 222//222
f 223//223 224//224 225//225
f 226//226 223//223 225//225
f 227//227 228//228 229//229
f 230//230 227//227 229//229
f 231//231 232//232 233//233
f 234//234 231//231 233//233
f 235//235 236//236 237//237
f 238//238 235//235 237//237
f 239//239 240//240 241//241
f 242//242 239//239 241//241
f 243//243 244//244 245//245
f 246//246 243//243 245//245
