# Exported from Blender
v -7.749728 9.802632 11.467660
v -7.746184 9.802630 0.026273
v -0.582431 9.802628 -19.183649
v -11.722610 9.802627 -19.183044
v -0.584403 9.802633 14.142830
v -4.169996 9.802632 13.914231
v -4.016171 9.802632 13.408221
v -7.959661 9.802632 11.940105
v -7.974928 9.802632 11.403129
v -11.153990 9.802631 9.254755
v -10.745416 9.802631 8.919555
v -13.808681 9.802630 4.288138
v -13.302931 9.802630 4.134810
v -14.336585 9.802629 0.133166
v -13.745184 9.802629 -2.626765
v -13.436224 9.802629 -5.468324
v -10.054922 9.802629 -9.908294
v -9.898351 9.802629 -9.819026
v -7.952687 9.802629 -11.746998
v -7.970416 9.802629 -11.205598
v -4.165732 9.802629 -13.721340
v -4.019462 9.802629 -13.212451
v -0.613764 9.802629 -13.935571
v -7.746110 9.802629 -11.969201
v -7.746110 9.802628 -18.951775
v -11.722518 9.802633 19.713440
v -0.567604 9.802634 19.774017
v -7.746110 9.802630 0.026344
v -7.746110 9.802629 -11.335413
v -7.751840 9.802633 19.539959
v -7.749221 9.802632 12.203121
v 7.749726 9.802633 11.467660
v 7.746183 9.802631 0.026273
v 0.582429 9.802628 -19.183649
v 11.722591 9.802629 -19.414642
v 11.722591 9.802629 -18.951450
v 0.584401 9.802633 14.142830
v 4.169994 9.802634 13.914231
v 4.016169 9.802634 13.408221
v 7.959660 9.802633 11.940105
v 7.974926 9.802633 11.403129
v 9.898372 9.802633 10.015858
v 10.325392 9.802633 10.325382
v 13.649100 9.802633 4.690292
v 13.302928 9.802633 4.134810
v 14.336583 9.802632 0.133166
v 13.745182 9.802632 -2.626765
v 13.436222 9.802631 -5.468324
v 10.054920 9.802630 -9.908294
v 9.898350 9.802630 -9.819026
v 6.589032 9.802629 -12.150838
v 5.414095 9.802629 -13.357301
v 0.631267 9.802629 -13.907195
v 7.746109 9.802630 -11.969201
v 7.746109 9.802629 -18.951775
v 11.722516 9.802635 19.713440
v 0.567603 9.802634 19.774017
v 7.746109 9.802631 0.026344
v 7.746109 9.802630 -11.335413
v 7.751839 9.802635 19.539959
v 7.749220 9.802634 12.203121
v -23.208313 9.802633 24.200945
v -23.208313 9.802626 -24.194214
v 23.208313 9.802636 24.200945
v 23.208313 9.802629 -24.194214
v -0.021600 9.802620 -24.194214
v -0.021616 9.802624 0.026344
v -0.021616 9.802624 0.026344
v -0.021631 9.802628 24.200945
v -22.239719 9.802633 24.200939
v -22.239719 9.802626 -24.194214
v 22.239719 9.802636 24.200939
v 22.239719 9.802629 -24.194214
v -24.999996 -39.772987 25.004694
v -24.999996 -41.111073 25.004694
v 25.000002 -41.111073 25.004694
v 25.000002 -39.772984 25.004694
v 25.000000 7.953032 25.004686
v 25.000000 9.423281 25.004686
v -25.000000 7.953027 25.004686
v -25.000000 9.423276 25.004686
v -25.000000 7.953020 -24.997952
v -25.000000 9.423268 -24.997952
v 25.000000 7.953025 -24.997953
v 25.000000 9.423274 -24.997953
v -25.000000 9.423276 25.004686
v -25.000000 9.423268 -24.997952
v -25.000000 7.953020 -24.997952
v -25.000000 7.953027 25.004686
v 25.000000 9.423274 -24.997952
v 25.000000 9.423281 25.004686
v 25.000000 7.953032 25.004686
v 25.000000 7.953025 -24.997952
v 25.000002 -39.772987 -24.997948
v 25.000002 -41.111073 -24.997946
v -24.999996 -41.111073 -24.997948
v -24.999996 -39.772991 -24.997946
v -24.999996 -41.111073 -24.997946
v -24.999996 -41.111073 25.004694
v -24.999996 -39.772987 25.004694
v -24.999996 -39.772991 -24.997946
v 25.000002 -41.111073 25.004694
v 25.000002 -41.111073 -24.997946
v 25.000002 -39.772987 -24.997946
v 25.000002 -39.772984 25.004694
v -0.000001 7.953022 -24.997952
v -0.000001 7.953022 -24.997952
v 25.000000 9.423274 -24.997952
v 24.196259 9.759737 -24.194208
v 25.000000 9.423281 25.004686
v 24.196259 9.759744 24.200945
v 25.000000 9.423281 25.004686
v 25.000000 9.423274 -24.997952
v -25.008705 9.447764 -25.006979
v -25.010685 9.453348 25.015774
v -25.000000 7.953027 25.004686
v -25.000000 7.953020 -24.997952
v 25.000000 7.953032 25.004686
v 25.000000 7.953025 -24.997952
v -24.999996 -41.111073 -24.997946
v -24.999996 -41.111073 25.004694
v 25.000002 -41.111073 -24.997946
v 25.000002 -41.111073 25.004694
v -24.999996 -39.772987 25.004694
v -24.999996 -39.772991 -24.997946
v 25.000002 -39.772987 -24.997946
v 25.000002 -39.772984 25.004694
v 20.321287 7.953024 -20.319241
v 20.321287 7.953031 20.325974
v 20.321289 -7.955640 20.325974
v 20.321289 -7.955647 -20.319241
v -20.321289 7.953027 20.325974
v -20.321289 7.953021 -20.319241
v -20.321287 -7.955651 -20.319241
v -20.321287 -7.955644 20.325974
v -20.321287 -7.955651 -20.319241
v -20.321289 7.953021 -20.319241
v 20.321289 -7.955647 -20.319241
v 20.321287 7.953024 -20.319241
v 20.321289 -7.955640 20.325974
v 20.321287 7.953031 20.325974
v -20.321287 -7.955644 20.325974
v -20.321289 7.953027 20.325974
v 20.321293 -39.772984 20.325979
v 20.321291 -23.864307 20.325977
v -20.321285 -23.864311 20.325977
v -20.321285 -39.772987 20.325979
v 20.321291 -23.864307 20.325977
v 20.321289 -7.955640 20.325974
v -20.321287 -7.955644 20.325974
v -20.321285 -23.864311 20.325977
v -20.321285 -39.772991 -20.319235
v -20.321285 -23.864321 -20.319239
v 20.321293 -39.772987 -20.319235
v 20.321291 -23.864315 -20.319237
v -20.321285 -23.864321 -20.319239
v -20.321287 -7.955651 -20.319241
v 20.321291 -23.864315 -20.319237
v 20.321289 -7.955647 -20.319241
v -20.321285 -23.864311 20.325977
v -20.321285 -23.864321 -20.319237
v -20.321285 -39.772991 -20.319235
v -20.321285 -39.772987 20.325979
v -20.321287 -7.955644 20.325974
v -20.321287 -7.955651 -20.319241
v -20.321285 -23.864321 -20.319237
v -20.321285 -23.864311 20.325977
v 20.321291 -23.864315 -20.319237
v 20.321291 -23.864307 20.325977
v 20.321293 -39.772984 20.325979
v 20.321293 -39.772987 -20.319235
v 20.321289 -7.955647 -20.319241
v 20.321289 -7.955640 20.325974
v 20.321291 -23.864307 20.325977
v 20.321291 -23.864315 -20.319237
v 20.321287 7.953024 -20.319241
v 20.321289 -7.955647 -20.319241
v 20.321289 -7.955640 20.325974
v 20.321287 7.953031 20.325974
v -20.321289 7.953027 20.325974
v -20.321287 -7.955644 20.325974
v -20.321287 -7.955651 -20.319241
v -20.321289 7.953021 -20.319241
v -20.321289 7.953021 -20.319241
v -20.321287 -7.955651 -20.319241
v 20.321289 -7.955647 -20.319241
v 20.321287 7.953024 -20.319241
v 20.321287 7.953031 20.325974
v 20.321289 -7.955640 20.325974
v -20.321287 -7.955644 20.325974
v -20.321289 7.953027 20.325974
v 20.321291 -23.864307 20.325977
v 20.321293 -39.772984 20.325979
v -20.321285 -23.864311 20.325977
v -20.321285 -39.772987 20.325979
v 20.321289 -7.955640 20.325974
v 20.321291 -23.864307 20.325977
v -20.321287 -7.955644 20.325974
v -20.321285 -23.864311 20.325977
v -20.321285 -23.864321 -20.319239
v -20.321285 -39.772991 -20.319235
v 20.321293 -39.772987 -20.319235
v 20.321291 -23.864315 -20.319237
v -20.321287 -7.955651 -20.319241
v -20.321285 -23.864321 -20.319239
v 20.321291 -23.864315 -20.319237
v 20.321289 -7.955647 -20.319241
v -20.321285 -23.864311 20.325977
v -20.321285 -39.772987 20.325979
v -20.321285 -39.772991 -20.319235
v -20.321285 -23.864321 -20.319237
v -20.321287 -7.955644 20.325974
v -20.321285 -23.864311 20.325977
v -20.321285 -23.864321 -20.319237
v -20.321287 -7.955651 -20.319241
v 20.321291 -23.864315 -20.319237
v 20.321293 -39.772987 -20.319235
v 20.321293 -39.772984 20.325979
v 20.321291 -23.864307 20.325977
v 20.321289 -7.955647 -20.319241
v 20.321291 -23.864315 -20.319237
v 20.321291 -23.864307 20.325977
v 20.321289 -7.955640 20.325974
vn -0.456929 0.577970 0.676141
vn -0.620001 0.784598 0.002103
vn -0.027026 0.454858 -0.890154
vn -0.477976 0.399691 -0.782167
vn -0.000000 1.000000 -0.000001
vn -0.000000 1.000000 -0.000000
vn -0.000000 1.000000 0.000000
vn -0.000000 1.000000 0.000003
vn 0.000000 1.000000 0.000004
vn -0.000000 1.000000 -0.000000
vn -0.000000 1.000000 -0.000000
vn -0.000000 1.000000 -0.000000
vn -0.000000 1.000000 -0.000000
vn -0.000000 1.000000 -0.000000
vn -0.000000 1.000000 0.000000
vn 0.000000 1.000000 0.000000
vn 0.000000 1.000000 0.000000
vn -0.580769 0.575152 -0.576114
vn 0.000000 1.000000 0.000000
vn 0.000000 1.000000 0.000000
vn 0.000000 1.000000 0.000001
vn 0.000000 1.000000 0.000001
vn 0.000000 1.000000 0.000000
vn -0.447703 0.566564 -0.691786
vn -0.341247 0.431845 -0.834901
vn -0.469982 0.393009 0.790355
vn -0.025709 0.444006 0.895655
vn -0.619997 0.784601 0.002109
vn -0.459174 0.581080 -0.671941
vn -0.334208 0.422624 0.842433
vn -0.443677 0.561244 0.698682
vn 0.456929 0.577970 0.676141
vn 0.620001 0.784598 0.002103
vn -0.000000 1.000000 0.000000
vn -0.000000 1.000000 0.000000
vn -0.000000 1.000000 0.000000
vn -0.000000 1.000000 0.000000
vn -0.000000 1.000000 0.000000
vn -0.000000 1.000000 0.000000
vn 0.000000 1.000000 0.000000
vn 0.000000 1.000000 0.000000
vn 0.000000 1.000000 0.000000
vn 0.000000 1.000000 0.000000
vn 0.000000 1.000000 0.000000
vn 0.000000 1.000000 -0.000000
vn 0.000001 1.000000 -0.000000
vn 0.000003 1.000000 -0.000001
vn 0.000000 1.000000 -0.000000
vn 0.000000 1.000000 0.000000
vn -0.000001 1.000000 0.000003
vn -0.000001 1.000000 0.000002
vn -0.000000 1.000000 -0.000001
vn -0.000000 1.000000 -0.000001
vn 0.447703 0.566564 -0.691786
vn 0.341247 0.431845 -0.834901
vn 0.469981 0.393009 0.790355
vn 0.025709 0.444006 0.895655
vn 0.619997 0.784601 0.002109
vn 0.459174 0.581081 -0.671941
vn 0.334208 0.422624 0.842433
vn 0.443677 0.561244 0.698682
vn -0.664342 0.280602 0.692757
vn -0.664431 0.280639 -0.692656
vn 0.664342 0.280602 0.692757
vn 0.664431 0.280640 -0.692656
vn -0.000827 0.375513 -0.926817
vn -0.002205 0.999994 0.002687
vn -0.002205 0.999994 0.002687
vn -0.000828 0.375423 0.926853
vn -0.648418 0.285804 0.705599
vn -0.648508 0.285843 -0.705501
vn 0.648418 0.285804 0.705599
vn 0.648508 0.285844 -0.705501
vn 0.000000 0.000000 1.000000
vn 0.000000 0.000000 1.000000
vn 0.000000 0.000000 1.000000
vn 0.000000 0.000000 1.000000
vn 0.000000 0.000000 1.000000
vn 0.000000 0.000000 1.000000
vn 0.000000 0.000000 1.000000
vn 0.000000 0.000000 1.000000
vn 0.000000 0.000000 -1.000000
vn -0.000000 0.000000 -1.000000
vn -0.000000 0.000000 -1.000000
vn -0.000000 0.000000 -1.000000
vn -1.000000 0.000000 0.000000
vn -1.000000 0.000000 0.000000
vn -1.000000 0.000000 0.000000
vn -1.000000 0.000000 0.000000
vn 1.000000 0.000000 0.000000
vn 1.000000 0.000000 0.000000
vn 1.000000 0.000000 0.000000
vn 1.000000 0.000000 0.000000
vn 0.000000 -0.000001 -1.000000
vn 0.000000 -0.000001 -1.000000
vn 0.000000 0.000001 -1.000000
vn 0.000000 0.000001 -1.000000
vn -1.000000 0.000000 0.000000
vn -1.000000 0.000000 0.000000
vn -1.000000 0.000000 0.000000
vn -1.000000 0.000000 0.000000
vn 1.000000 0.000000 0.000000
vn 1.000000 0.000000 0.000000
vn 1.000000 0.000000 0.000000
vn 1.000000 0.000000 0.000000
vn -0.000000 0.303173 -0.952935
vn -0.000000 0.303173 -0.952935
vn 0.386151 0.922436 -0.000000
vn -0.001652 0.999997 0.001518
vn 0.386151 0.922435 -0.000000
vn -0.000662 1.000000 -0.000579
vn 0.000640 0.922663 0.385608
vn 0.000521 0.922622 -0.385706
vn -0.006169 0.983337 0.181688
vn 0.113998 0.993087 -0.027959
vn 0.000000 -1.000000 0.000000
vn 0.000000 -1.000000 0.000000
vn 0.000000 -1.000000 0.000000
vn 0.000000 -1.000000 0.000000
vn 0.000000 -1.000000 0.000000
vn 0.000000 -1.000000 0.000000
vn 0.000000 -1.000000 0.000000
vn 0.000000 -1.000000 0.000000
vn -0.000000 1.000000 0.000000
vn -0.000000 1.000000 0.000000
vn -0.000000 1.000000 0.000000
vn -0.000000 1.000000 0.000000
vn 1.000000 0.000000 -0.000000
vn 1.000000 0.000000 -0.000000
vn 1.000000 0.000000 -0.000000
vn 1.000000 0.000000 -0.000000
vn -1.000000 -0.000000 0.000000
vn -1.000000 0.000000 0.000000
vn -1.000000 -0.000000 0.000000
vn -1.000000 -0.000000 0.000000
vn -0.000000 0.000000 -1.000000
vn -0.000000 0.000000 -1.000000
vn 0.000000 0.000000 -1.000000
vn 0.000000 0.000000 -1.000000
vn 0.000000 0.000000 1.000000
vn 0.000000 0.000000 1.000000
vn 0.000000 0.000000 1.000000
vn 0.000000 0.000000 1.000000
vn 0.000000 0.000000 1.000000
vn 0.000000 0.000000 1.000000
vn 0.000000 0.000000 1.000000
vn 0.000000 0.000000 1.000000
vn 0.000000 0.000000 1.000000
vn 0.000000 0.000000 1.000000
vn -0.000000 0.000000 1.000000
vn -0.000000 0.000000 1.000000
vn 0.000000 -0.000000 -1.000000
vn 0.000000 -0.000000 -1.000000
vn 0.000000 -0.000000 -1.000000
vn 0.000000 -0.000000 -1.000000
vn 0.000000 -0.000000 -1.000000
vn 0.000000 -0.000000 -1.000000
vn 0.000000 -0.000000 -1.000000
vn 0.000000 -0.000000 -1.000000
vn -1.000000 0.000000 0.000000
vn -1.000000 -0.000000 0.000000
vn -1.000000 -0.000000 0.000000
vn -1.000000 0.000000 0.000000
vn -1.000000 0.000000 0.000000
vn -1.000000 -0.000000 0.000000
vn -1.000000 -0.000000 0.000000
vn -1.000000 0.000000 0.000000
vn 1.000000 0.000000 -0.000000
vn 1.000000 0.000000 -0.000000
vn 1.000000 0.000000 -0.000000
vn 1.000000 0.000000 -0.000000
vn 1.000000 0.000000 -0.000000
vn 1.000000 -0.000000 -0.000000
vn 1.000000 0.000000 -0.000000
vn 1.000000 0.000000 -0.000000
vn -1.000000 -0.000000 0.000000
vn -1.000000 0.000000 0.000000
vn -1.000000 -0.000000 0.000000
vn -1.000000 -0.000000 0.000000
vn 1.000000 0.000000 -0.000000
vn 1.000000 0.000000 -0.000000
vn 1.000000 0.000000 -0.000000
vn 1.000000 0.000000 -0.000000
vn 0.000000 0.000000 1.000000
vn 0.000000 0.000000 1.000000
vn -0.000000 0.000000 1.000000
vn -0.000000 0.000000 1.000000
vn -0.000000 0.000000 -1.000000
vn -0.000000 0.000000 -1.000000
vn -0.000000 0.000000 -1.000000
vn 0.000000 0.000000 -1.000000
vn 0.000000 -0.000000 -1.000000
vn -0.000000 -0.000000 -1.000000
vn -0.000000 -0.000000 -1.000000
vn -0.000000 -0.000000 -1.000000
vn -0.000000 -0.000000 -1.000000
vn -0.000000 -0.000000 -1.000000
vn 0.000000 -0.000000 -1.000000
vn 0.000000 -0.000000 -1.000000
vn -0.000000 0.000000 1.000000
vn -0.000000 0.000000 1.000000
vn -0.000000 0.000000 1.000000
vn 0.000000 0.000000 1.000000
vn -0.000000 0.000000 1.000000
vn -0.000000 0.000000 1.000000
vn -0.000000 0.000000 1.000000
vn 0.000000 0.000000 1.000000
vn 1.000000 -0.000000 0.000000
vn 1.000000 -0.000000 0.000000
vn 1.000000 0.000000 0.000000
vn 1.000000 0.000000 0.000000
vn 1.000000 -0.000000 -0.000000
vn 1.000000 -0.000000 -0.000000
vn 1.000000 0.000000 -0.000000
vn 1.000000 0.000000 -0.000000
vn -1.000000 -0.000000 0.000000
vn -1.000000 0.000000 0.000000
vn -1.000000 -0.000000 0.000000
vn -1.000000 -0.000000 0.000000
vn -1.000000 -0.000000 0.000000
vn -1.000000 -0.000000 0.000000
vn -1.000000 -0.000000 0.000000
vn -1.000000 0.000000 0.000000
f 5//5 7//7 6//6
f 8//8 6//6 7//7
f 9//9 8//8 7//7
f 11//11 10//10 8//8
f 12//12 10//10 11//11
f 13//13 12//12 11//11
f 14//14 12//12 13//13
f 15//15 14//14 13//13
f 16//16 14//14 15//15
f 16//16 15//15 17//17
f 19//19 20//20 21//21
f 20//20 22//22 21//21
f 21//21 22//22 23//23
f 34//34 36//36 35//35
f 39//39 37//37 38//38
f 38//38 40//40 39//39
f 40//40 41//41 39//39
f 43//43 44//44 42//42
f 44//44 46//46 45//45
f 46//46 47//47 45//45
f 46//46 48//48 47//47
f 47//47 48//48 49//49
f 50//50 52//52 51//51
f 53//53 51//51 52//52
f 75//75 76//76 74//74
f 74//74 76//76 77//77
f 78//78 79//79 80//80
f 79//79 81//81 80//80
f 82//82 83//83 84//84
f 83//83 85//85 84//84
f 86//86 87//87 88//88
f 89//89 86//86 88//88
f 90//90 91//91 92//92
f 93//93 90//90 92//92
f 95//95 96//96 94//94
f 94//94 96//96 97//97
f 98//98 99//99 100//100
f 101//101 98//98 100//100
f 102//102 103//103 104//104
f 105//105 102//102 104//104
f 108//108 109//109 110//110
f 109//109 111//111 110//110
f 115//115 111//111 109//109
f 112//112 111//111 115//115
f 114//114 115//115 109//109
f 114//114 109//109 113//113
f 118//118 116//116 117//117
f 117//117 119//119 118//118
f 121//121 120//120 122//122
f 123//123 121//121 122//122
f 125//125 124//124 126//126
f 124//124 127//127 126//126
f 128//128 129//129 130//130
f 131//131 128//128 130//130
f 132//132 133//133 134//134
f 135//135 132//132 134//134
f 136//136 137//137 138//138
f 137//137 139//139 138//138
f 140//140 141//141 142//142
f 141//141 143//143 142//142
f 145//145 146//146 144//144
f 144//144 146//146 147//147
f 149//149 150//150 148//148
f 148//148 150//150 151//151
f 152//152 153//153 154//154
f 153//153 155//155 154//154
f 156//156 157//157 158//158
f 157//157 159//159 158//158
f 160//160 161//161 162//162
f 163//163 160//160 162//162
f 164//164 165//165 166//166
f 167//167 164//164 166//166
f 168//168 169//169 170//170
f 171//171 168//168 170//170
f 172//172 173//173 174//174
f 175//175 172//172 174//174
f 176//176 177//177 178//178
f 179//179 176//176 178//178
f 180//180 181//181 182//182
f 183//183 180//180 182//182
f 184//184 185//185 186//186
f 187//187 184//184 186//186
f 188//188 189//189 190//190
f 191//191 188//188 190//190
f 194//194 192//192 193//193
f 194//194 193//193 195//195
f 198//198 196//196 197//197
f 198//198 197//197 199//199
f 200//200 201//201 202//202
f 203//203 200//200 202//202
f 204//204 205//205 206//206
f 207//207 204//204 206//206
f 208//208 209//209 210//210
f 211//211 208//208 210//210
f 212//212 213//213 214//214
f 215//215 212//212 214//214
f 216//216 217//217 218//218
f 219//219 216//216 218//218
f 220//220 221//221 222//222
f 223//223 220//220 222//222
