# Blender 5.0.0
# www.blender.org
mtllib Ruin_Building1.mtl
o Ruin_Building1
v 17.754700 7.360940 -26.135403
v 17.754700 0.000002 -26.135403
v 17.754715 -0.000002 26.135391
v 17.754715 6.346235 26.135391
v 17.754711 9.283830 13.723065
v 17.754704 14.160951 -12.123907
v 17.754700 22.340729 -26.135401
v 17.754704 22.340729 -13.023643
v 17.754707 13.881275 -2.453492
v 17.754711 18.502831 12.576821
v 17.754707 18.664188 0.890512
v -17.754665 -0.000002 26.135403
v -17.754665 7.976644 26.135403
v -6.870044 9.012108 26.135401
v -5.513482 16.710165 26.135401
v 6.422540 12.610790 26.135395
v 3.852048 16.543142 26.135397
v 11.469413 12.610786 26.135395
v 17.754715 22.340725 26.135393
v 10.823684 22.340725 26.135395
v -10.504475 17.313292 -26.135393
v -17.754679 22.340729 -26.135389
v -17.754679 7.074152 -26.135391
v -17.754679 0.000002 -26.135391
v -2.304516 8.100446 -26.135395
v 6.905470 13.178427 -26.135399
v -17.754667 8.997087 18.959702
v -17.754667 14.419394 19.576708
v -17.754665 15.210575 26.135405
v -17.754671 9.049524 5.129487
v -17.754677 4.531405 -18.264040
v -17.754677 14.565967 -16.019611
v -17.754673 14.247927 -4.536231
v -17.754671 22.340727 0.766275
v -17.754673 21.400663 -3.715620
v -17.754673 22.340727 -3.568611
v 17.798710 14.230851 -20.640499
v -17.684458 12.963796 -20.135242
v -10.369471 9.792855 -23.913696
v 7.085308 7.593337 -27.184193
v -2.047041 3.800578 -30.765383
v 18.007685 4.011858 -31.591413
v 21.184639 7.783731 13.753692
v 21.710781 6.868515 26.465143
v 10.042728 17.531500 24.019524
v 14.608648 13.833391 11.211685
v 15.143639 14.240429 -14.666134
v 16.013214 12.958803 -0.358022
v 19.937962 9.489158 -2.930277
v 20.993624 8.862869 -12.526552
v -2.147696 10.409982 24.028732
v -7.902323 6.744473 26.099316
v -10.917589 6.619630 20.222656
v -11.340868 11.500350 0.409044
v -20.486860 4.479997 8.331114
v -15.517436 3.858615 21.222832
v -14.188177 11.142689 -1.629828
v -17.783636 5.638089 -4.563619
v -15.398712 8.564313 -15.413438
v -9.364447 17.109871 -22.716656
v -13.723201 11.857025 -1.206926
v -17.376776 4.953338 -27.309002
v -20.231628 1.096383 -20.571234
v 13.415001 5.402432 25.526793
v 8.406322 5.879788 25.921999
v 5.834167 8.496808 22.988388
v 12.721913 11.337298 17.820583
v -15.640158 14.040357 20.058495
v -3.461382 9.483468 23.588634
v -4.766344 4.964598 29.831808
v -15.563031 5.369021 31.509642
v -17.754679 -6.192157 -26.135391
v -17.754665 -6.192161 26.135403
v 17.754700 -6.192157 -26.135403
v 17.754715 -6.192161 26.135391
v 0.001186 3.307562 -8.379538
v 0.001189 3.307561 8.379539
vn 1.0000 -0.0000 -0.0000
vn -0.0000 -0.0000 1.0000
vn -0.0000 -0.0000 -1.0000
vn -1.0000 -0.0000 -0.0000
vn -0.0358 0.7303 -0.6822
vn 0.6715 0.7406 0.0255
vn 0.0358 -0.7303 0.6822
vn -0.6715 -0.7406 -0.0255
vn 0.4662 -0.8567 -0.2210
vn -0.8290 0.5583 -0.0316
vn 0.1227 0.7916 0.5986
vn -0.0000 0.9989 -0.0463
vn 0.0923 0.9914 -0.0923
vn -0.0923 0.9914 -0.0923
vn 0.0923 0.9914 0.0924
vn -0.0000 0.9989 0.0463
vn -0.0923 0.9914 0.0923
vt 0.500000 -7.522106
vt 2.339226 -8.040117
vt 0.500000 -8.040117
vt 2.339226 -7.593513
vt 1.902479 -7.386786
vt 0.993015 -7.043568
vt 0.500000 -6.467934
vt 0.961357 -6.467934
vt 1.333283 -7.063250
vt 1.862147 -6.738018
vt 1.450947 -6.726662
vt -2.217960 -8.040117
vt -0.968509 -7.478777
vt -0.968509 -8.040117
vt -1.351501 -7.405909
vt -1.399234 -6.864173
vt -1.819220 -7.152658
vt -1.728774 -6.875927
vt -1.996802 -7.152658
vt -2.217960 -6.467934
vt -1.974081 -6.467934
vt -2.217960 -7.593513
vt -1.223619 -6.821730
vt -0.968510 -7.542288
vt -0.968510 -6.467934
vt -0.968510 -8.040117
vt -1.512147 -7.470065
vt -1.836214 -7.112712
vt -2.217960 -7.522106
vt 2.086738 -7.406966
vt 2.339226 -6.969704
vt 2.108448 -7.025381
vt 1.600101 -7.403275
vt 2.339226 -7.478777
vt 0.776965 -7.721229
vt 0.500000 -8.040117
vt 0.855939 -7.015067
vt 1.259999 -7.037448
vt 1.446575 -6.467934
vt 1.288873 -6.534089
vt 1.294046 -6.467934
vt 2.339226 -6.467934
vt 0.500000 -7.542288
vt 0.500000 -6.467934
vt -0.968509 -6.467934
vt 0.500000 -2.095547
vt 1.563695 -1.969538
vt 0.500000 -1.969538
vt 1.563695 -2.095547
vt -1.071900 -2.095547
vt -0.349295 -1.969538
vt -1.071900 -1.969538
vt -0.349295 -2.095547
vt -0.349295 -2.095547
vt -0.349295 -1.969538
vt 0.500000 -1.969538
vt 0.500000 -2.095547
vt -0.710621 0.861326
vt -1.071900 0.500000
vt -0.349295 0.500000
vt -1.071900 1.563695
vt -0.710621 1.202368
vt -0.349295 1.563695
s 1
usemtl rubble
f 1/1/1 3/2/1 2/3/1
f 3/2/1 1/1/1 4/4/1
f 4/4/1 1/1/1 5/5/1
f 5/5/1 1/1/1 6/6/1
f 6/6/1 1/1/1 7/7/1
f 6/6/1 7/7/1 8/8/1
f 5/5/1 6/6/1 9/9/1
f 10/10/1 9/9/1 11/11/1
f 3/12/2 13/13/2 12/14/2
f 13/13/2 3/12/2 14/15/2
f 14/15/2 3/12/2 15/16/2
f 15/16/2 3/12/2 16/17/2
f 15/16/2 16/17/2 17/18/2
f 16/17/2 3/12/2 18/19/2
f 19/20/2 18/19/2 3/12/2
f 18/19/2 19/20/2 20/21/2
f 19/20/2 3/12/2 4/22/2
f 21/23/3 23/24/3 22/25/3
f 23/24/3 21/23/3 24/26/3
f 24/26/3 21/23/3 25/27/3
f 24/26/3 25/27/3 2/12/3
f 2/12/3 25/27/3 26/28/3
f 2/12/3 26/28/3 1/29/3
f 27/30/4 29/31/4 28/32/4
f 30/33/4 13/34/4 27/30/4
f 31/35/4 13/34/4 30/33/4
f 24/36/4 13/34/4 31/35/4
f 13/34/4 24/36/4 12/2/4
f 31/35/4 30/33/4 32/37/4
f 32/37/4 30/33/4 33/38/4
f 34/39/4 33/38/4 30/33/4
f 33/38/4 34/39/4 35/40/4
f 35/40/4 34/39/4 36/41/4
f 39/23/5 37/20/5 40/28/5
f 41/27/5 39/23/5 40/28/5
f 40/28/5 37/20/5 42/29/5
f 43/5/6 45/42/6 44/4/6
f 45/42/6 43/5/6 46/10/6
f 10/10/4 9/9/4 5/5/4
f 2/3/4 4/4/4 1/1/4
f 4/4/4 2/3/4 3/2/4
f 12/14/3 14/15/3 3/12/3
f 14/15/3 12/14/3 13/13/3
f 2/12/2 23/24/2 24/26/2
f 23/24/2 2/12/2 25/27/2
f 23/24/2 25/27/2 22/25/2
f 22/25/2 25/27/2 21/23/2
f 31/35/1 24/36/1 23/43/1
f 24/36/1 31/35/1 12/2/1
f 31/35/1 13/34/1 12/2/1
f 27/30/1 29/31/1 13/34/1
f 39/23/7 37/20/7 38/25/7
f 46/10/8 45/42/8 47/8/8
f 46/10/8 47/8/8 48/11/8
f 48/11/8 47/8/8 49/9/8
f 49/9/8 47/8/8 50/6/8
f 55/33/9 53/32/9 56/30/9
f 54/39/9 53/32/9 55/33/9
f 51/42/9 53/32/9 54/39/9
f 53/32/9 51/42/9 52/31/9
f 57/40/10 59/37/10 58/38/10
f 60/44/10 59/37/10 57/40/10
f 60/44/10 57/40/10 61/41/10
f 62/43/10 59/37/10 60/44/10
f 59/37/10 62/43/10 63/35/10
f 64/19/11 66/18/11 65/17/11
f 66/18/11 64/19/11 67/21/11
f 66/18/11 67/21/11 68/45/11
f 68/45/11 69/16/11 66/18/11
f 68/45/11 70/15/11 69/16/11
f 70/15/11 68/45/11 71/13/11
usemtl vehicle_destroyed.002
f 72/46/4 12/47/4 24/48/4
f 72/46/4 73/49/4 12/47/4
f 74/50/3 24/51/3 2/52/3
f 74/50/3 72/53/3 24/51/3
f 73/54/2 3/52/2 12/55/2
f 73/54/2 75/50/2 3/52/2
f 75/49/1 2/56/1 3/47/1
f 75/49/1 74/57/1 2/56/1
f 76/58/12 2/59/13 24/60/14
f 76/58/12 3/61/15 2/59/13
f 77/62/16 76/58/12 24/60/14
f 76/58/12 77/62/16 3/61/15
f 77/62/16 24/60/14 12/63/17
f 77/62/16 12/63/17 3/61/15
