# Exported from Blender
v 2.000001 25.000008 1.999993
v 2.000001 25.000000 -2.000007
v -1.999998 25.000000 -2.000007
v -1.999998 25.000008 1.999993
v -1.999994 -24.999990 2.000010
v -1.999994 -25.000000 -1.999990
v 2.000005 -25.000000 -1.999990
v 2.000005 -24.999990 2.000010
v 2.000005 -24.999990 2.000010
v 2.000005 -25.000000 -1.999990
v 2.000001 25.000000 -2.000007
v 2.000001 25.000008 1.999993
v -1.999998 25.000008 1.999993
v -1.999998 25.000000 -2.000007
v -1.999994 -25.000000 -1.999990
v -1.999994 -24.999990 2.000010
v -1.999998 25.000000 -2.000007
v 2.000001 25.000000 -2.000007
v 2.000005 -25.000000 -1.999990
v -1.999994 -25.000000 -1.999990
v 2.000001 25.000008 1.999993
v -1.999998 25.000008 1.999993
v -1.999994 -24.999990 2.000010
v 2.000005 -24.999990 2.000010
v 2.000001 25.000008 1.999993
v -1.999998 25.000008 1.999993
v -1.999998 25.000000 -2.000007
v 2.000001 25.000000 -2.000007
v -1.999994 -24.999990 2.000010
v 2.000005 -24.999990 2.000010
v 2.000005 -25.000000 -1.999990
v -1.999994 -25.000000 -1.999990
v 2.000005 -24.999990 2.000010
v 2.000001 25.000008 1.999993
v 2.000001 25.000000 -2.000007
v 2.000005 -25.000000 -1.999990
v -1.999998 25.000008 1.999993
v -1.999994 -24.999990 2.000010
v -1.999994 -25.000000 -1.999990
v -1.999998 25.000000 -2.000007
v -1.999998 25.000000 -2.000007
v -1.999994 -25.000000 -1.999990
v 2.000005 -25.000000 -1.999990
v 2.000001 25.000000 -2.000007
v 2.000001 25.000008 1.999993
v 2.000005 -24.999990 2.000010
v -1.999994 -24.999990 2.000010
v -1.999998 25.000008 1.999993
vn 0.000000 1.000000 -0.000002
vn 0.000000 1.000000 -0.000002
vn 0.000000 1.000000 -0.000002
vn 0.000000 1.000000 -0.000002
vn 0.000000 -1.000000 0.000002
vn 0.000000 -1.000000 0.000002
vn 0.000000 -1.000000 0.000002
vn 0.000000 -1.000000 0.000003
vn 1.000000 0.000000 -0.000000
vn 1.000000 0.000000 -0.000000
vn 1.000000 0.000000 -0.000000
vn 1.000000 0.000000 -0.000000
vn -1.000000 -0.000000 0.000000
vn -1.000000 -0.000000 0.000000
vn -1.000000 -0.000000 0.000000
vn -1.000000 -0.000000 0.000000
vn 0.000000 -0.000000 -1.000000
vn 0.000000 -0.000000 -1.000000
vn 0.000000 -0.000000 -1.000000
vn 0.000000 -0.000000 -1.000000
vn 0.000000 0.000000 1.000000
vn 0.000000 0.000000 1.000000
vn 0.000000 0.000000 1.000000
vn 0.000000 0.000000 1.000000
vn 0.000000 -1.000000 0.000002
vn 0.000000 -1.000000 0.000002
vn 0.000000 -1.000000 0.000002
vn 0.000000 -1.000000 0.000002
vn 0.000000 1.000000 -0.000002
vn 0.000000 1.000000 -0.000003
vn 0.000000 1.000000 -0.000002
vn 0.000000 1.000000 -0.000002
vn -1.000000 -0.000000 0.000000
vn -1.000000 -0.000000 0.000000
vn -1.000000 -0.000000 0.000000
vn -1.000000 -0.000000 0.000000
vn 1.000000 0.000000 -0.000000
vn 1.000000 0.000000 -0.000000
vn 1.000000 0.000000 -0.000000
vn 1.000000 0.000000 -0.000000
vn 0.000000 0.000000 1.000000
vn 0.000000 0.000000 1.000000
vn 0.000000 0.000000 1.000000
vn 0.000000 0.000000 1.000000
vn 0.000000 -0.000000 -1.000000
vn 0.000000 -0.000000 -1.000000
vn 0.000000 -0.000000 -1.000000
vn 0.000000 -0.000000 -1.000000
f 1//1 2//2 3//3
f 4//4 1//1 3//3
f 5//5 6//6 7//7
f 8//8 5//5 7//7
f 9//9 10//10 11//11
f 12//12 9//9 11//11
f 13//13 14//14 15//15
f 16//16 13//13 15//15
f 17//17 18//18 19//19
f 20//20 17//17 19//19
f 21//21 22//22 23//23
f 24//24 21//21 23//23
f 25//25 26//26 27//27
f 28//28 25//25 27//27
f 29//29 30//30 31//31
f 32//32 29//29 31//31
f 33//33 34//34 35//35
f 36//36 33//33 35//35
f 37//37 38//38 39//39
f 40//40 37//37 39//39
f 41//41 42//42 43//43
f 44//44 41//41 43//43
f 45//45 46//46 47//47
f 48//48 45//45 47//47
